#N canvas 123 23 1150 755 12;
#X obj 32 648 zmq;
#X msg 57 143 socket publish;
#X obj 32 676 print PUB;
#N canvas 267 23 1013 685 init 0;
#X obj 52 29 loadbang;
#X obj 53 80 metro 1000;
#X msg 52 53 1;
#X msg 201 42 0;
#X obj 55 377 ether;
#X msg 55 318 wlan0;
#X obj 56 403 list trim;
#X obj 54 148 ipinfo;
#X msg 54 120 wlan0;
#X msg 113 118 en0;
#X obj 55 275 delay 500;
#X obj 55 601 s wifi_ready;
#X obj 168 233 s my_ip;
#X obj 101 205 unpack s s;
#X obj 55 179 t b b l;
#X obj 178 409 print ether;
#X obj 179 181 print IP;
#X obj 1038 180 t b;
#X msg 1038 205 p5;
#X obj 56 543 t b a, f 7;
#X text 452 485 link01: http://192.168.0.137/ 28:87:BA:49:76:FC;
#X text 452 506 link02: http://192.168.0.112/ 28:87:BA:49:74:FA;
#X obj 53 475 t b;
#X obj 116 475 t b;
#X obj 180 475 t b;
#X msg 53 500 LINK1;
#X msg 116 500 LINK2;
#X msg 180 500 LINK3;
#X obj 154 601 s my_id;
#X obj 217 602 print ID;
#X text 452 550 link04: http://192.168.0.105/ 28:87:BA:49:81:D7;
#X text 453 529 link03: http://192.168.0.108/ 28:87:BA:49:6B:E6;
#X obj 53 444 route 28:87:BA:49:76:FC 28:87:BA:49:74:FA 28:87:BA:49:6B:E6 28:87:BA:49:81:D7, f 81;
#X obj 248 477 t b;
#X msg 248 502 LINK4;
#X obj 328 482 t b;
#X msg 328 507 other;
#X connect 0 0 2 0;
#X connect 1 0 8 0;
#X connect 2 0 1 0;
#X connect 3 0 1 0;
#X connect 4 0 6 0;
#X connect 4 0 15 0;
#X connect 5 0 4 0;
#X connect 6 0 32 0;
#X connect 7 0 14 0;
#X connect 7 0 16 0;
#X connect 8 0 7 0;
#X connect 9 0 7 0;
#X connect 10 0 5 0;
#X connect 13 1 12 0;
#X connect 14 0 10 0;
#X connect 14 1 3 0;
#X connect 14 2 13 0;
#X connect 17 0 18 0;
#X connect 19 0 11 0;
#X connect 19 1 28 0;
#X connect 19 1 29 0;
#X connect 22 0 25 0;
#X connect 23 0 26 0;
#X connect 24 0 27 0;
#X connect 25 0 19 0;
#X connect 26 0 19 0;
#X connect 27 0 19 0;
#X connect 32 0 22 0;
#X connect 32 1 23 0;
#X connect 32 2 24 0;
#X connect 32 3 33 0;
#X connect 32 4 35 0;
#X connect 33 0 34 0;
#X connect 34 0 19 0;
#X connect 35 0 36 0;
#X connect 36 0 19 0;
#X restore 31 25 pd init;
#X obj 25 87 r wifi_ready;
#X obj 39 210 print connect message;
#X msg 424 120 subscribe control;
#X msg 476 75 socket subscribe;
#X obj 427 51 t b b b;
#X obj 423 143 zmq;
#X obj 424 191 print SUB;
#X obj 427 26 r wifi_ready;
#X obj 26 117 t b b;
#X obj 423 168 route control;
#X obj 354 334 snapshot~;
#X obj 421 334 snapshot~;
#X obj 72 243 adc~ 3 4 5 6 7 8 9 10, f 70;
#X obj 72 334 snapshot~;
#X obj 143 334 snapshot~;
#X obj 215 334 snapshot~;
#X obj 285 334 snapshot~;
#X obj 70 525 list trim;
#X obj 70 501 list prepend send;
#X obj 70 477 list prepend sensors;
#X obj 70 452 list prepend;
#X obj 151 430 r my_id;
#X obj 629 138 r wifi_ready;
#X msg 146 55 connect tcp://192.168.0.10:5556;
#X msg 627 38 connect tcp://192.168.0.10:5555;
#X obj 70 399 pack 0 1 0 0 0 1;
#X obj 621 376 snapshot~;
#X msg 708 202 out 12;
#X obj 714 228 s bela_setDigital;
#X msg 760 202 out 13;
#X msg 814 202 out 14;
#X obj 683 464 unpack 0 0 0;
#X msg 683 429 0 0 0;
#X msg 730 429 0 0 1;
#X msg 778 429 0 1 0;
#X msg 826 429 0 1 1;
#X msg 874 429 1 0 0;
#X msg 923 429 1 0 1;
#X msg 971 430 1 1 0;
#X msg 1020 430 1 1 1;
#X obj 628 279 +;
#X msg 628 255 1;
#X obj 697 376 sel 0 1 2 3 4 5 6 7, f 39;
#X obj 628 302 % 8;
#X obj 629 165 t b b b b;
#X obj 628 203 delay 1000;
#X obj 627 328 + 1;
#X obj 723 522 s bela_digitalOut13;
#X obj 627 351 t b a;
#X obj 368 604 pack 0 0 0 0 0 0 0 0, f 38;
#X obj 762 558 s bela_digitalOut14;
#X obj 683 489 s bela_digitalOut12;
#X obj 70 427 zl join;
#X obj 517 212 t b b b b b b;
#X text 864 473 control multiplexer;
#X text 181 17 bela_sensor_14_sensorsuit;
#X msg 26 181 connect tcp://192.168.0.10:5556;
#X msg 451 98 connect tcp://192.168.0.10:5555;
#X obj 739 135 loadbang;
#X obj 740 167 t b b b;
#X obj 628 225 metro 10;
#X obj 73 277 average~ 3000;
#X obj 142 298 average~ 3000;
#X obj 213 275 average~ 3000;
#X obj 282 298 average~ 3000;
#X obj 352 278 average~ 3000;
#X obj 420 298 average~ 3000;
#X obj 553 184 metro 40;
#X obj 308 477 mean;
#X msg 345 455 clear;
#X obj 366 432 gate 8, f 37;
#X obj 345 479 t a b;
#X obj 341 524 mean;
#X msg 378 502 clear;
#X obj 378 526 t a b;
#X obj 386 479 mean;
#X msg 423 457 clear;
#X obj 423 481 t a b;
#X obj 421 525 mean;
#X msg 458 503 clear;
#X obj 458 527 t a b;
#X obj 467 481 mean;
#X msg 504 459 clear;
#X obj 504 483 t a b;
#X obj 502 528 mean;
#X msg 539 506 clear;
#X obj 539 530 t a b;
#X obj 547 484 mean;
#X msg 584 462 clear;
#X obj 584 486 t a b;
#X obj 587 528 mean;
#X msg 624 506 clear;
#X obj 624 530 t a b;
#X obj 308 573 clip 0 1;
#X obj 341 550 clip 0 1;
#X obj 389 577 clip 0 1;
#X obj 422 552 clip 0 1;
#X obj 474 575 clip 0 1;
#X obj 502 551 clip 0 1;
#X obj 552 577 clip 0 1;
#X obj 589 552 clip 0 1;
#X connect 0 0 2 0;
#X connect 1 0 0 0;
#X connect 4 0 12 0;
#X connect 6 0 9 0;
#X connect 7 0 9 0;
#X connect 8 0 6 0;
#X connect 8 1 61 0;
#X connect 8 2 7 0;
#X connect 9 0 13 0;
#X connect 11 0 8 0;
#X connect 12 0 60 0;
#X connect 12 1 1 0;
#X connect 13 0 10 0;
#X connect 14 0 29 4;
#X connect 15 0 29 5;
#X connect 16 0 65 0;
#X connect 16 1 66 0;
#X connect 16 2 67 0;
#X connect 16 3 68 0;
#X connect 16 4 69 0;
#X connect 16 5 70 0;
#X connect 17 0 29 0;
#X connect 18 0 29 1;
#X connect 19 0 29 2;
#X connect 20 0 29 3;
#X connect 21 0 0 0;
#X connect 22 0 21 0;
#X connect 23 0 22 0;
#X connect 24 0 23 0;
#X connect 25 0 24 1;
#X connect 26 0 48 0;
#X connect 29 0 56 0;
#X connect 30 0 74 1;
#X connect 31 0 32 0;
#X connect 33 0 32 0;
#X connect 34 0 32 0;
#X connect 35 0 55 0;
#X connect 35 1 51 0;
#X connect 35 2 54 0;
#X connect 36 0 35 0;
#X connect 37 0 35 0;
#X connect 38 0 35 0;
#X connect 39 0 35 0;
#X connect 40 0 35 0;
#X connect 41 0 35 0;
#X connect 42 0 35 0;
#X connect 43 0 35 0;
#X connect 44 0 47 0;
#X connect 45 0 44 0;
#X connect 46 0 36 0;
#X connect 46 1 37 0;
#X connect 46 2 38 0;
#X connect 46 3 39 0;
#X connect 46 4 40 0;
#X connect 46 5 41 0;
#X connect 46 6 42 0;
#X connect 46 7 43 0;
#X connect 47 0 44 1;
#X connect 47 0 50 0;
#X connect 47 0 46 0;
#X connect 48 1 71 0;
#X connect 49 0 64 0;
#X connect 50 0 52 0;
#X connect 52 0 30 0;
#X connect 52 1 74 0;
#X connect 56 0 24 0;
#X connect 57 0 17 0;
#X connect 57 1 18 0;
#X connect 57 2 19 0;
#X connect 57 3 20 0;
#X connect 57 4 14 0;
#X connect 57 5 15 0;
#X connect 60 0 0 0;
#X connect 60 0 5 0;
#X connect 61 0 9 0;
#X connect 62 0 63 0;
#X connect 63 0 31 0;
#X connect 63 1 33 0;
#X connect 63 2 34 0;
#X connect 64 0 45 0;
#X connect 65 0 17 0;
#X connect 66 0 18 0;
#X connect 67 0 19 0;
#X connect 68 0 20 0;
#X connect 69 0 14 0;
#X connect 70 0 15 0;
#X connect 71 0 57 0;
#X connect 72 0 75 0;
#X connect 72 0 97 0;
#X connect 73 0 72 0;
#X connect 74 0 72 0;
#X connect 75 0 72 0;
#X connect 75 1 73 0;
#X connect 76 0 78 0;
#X connect 76 0 98 0;
#X connect 77 0 76 0;
#X connect 78 0 76 0;
#X connect 78 1 77 0;
#X connect 79 0 81 0;
#X connect 79 0 99 0;
#X connect 80 0 79 0;
#X connect 81 0 79 0;
#X connect 81 1 80 0;
#X connect 82 0 84 0;
#X connect 82 0 100 0;
#X connect 83 0 82 0;
#X connect 84 0 82 0;
#X connect 84 1 83 0;
#X connect 85 0 87 0;
#X connect 85 0 101 0;
#X connect 86 0 85 0;
#X connect 87 0 85 0;
#X connect 87 1 86 0;
#X connect 88 0 90 0;
#X connect 88 0 102 0;
#X connect 89 0 88 0;
#X connect 90 0 88 0;
#X connect 90 1 89 0;
#X connect 91 0 93 0;
#X connect 91 0 103 0;
#X connect 92 0 91 0;
#X connect 93 0 91 0;
#X connect 93 1 92 0;
#X connect 94 0 96 0;
#X connect 94 0 104 0;
#X connect 95 0 94 0;
#X connect 96 0 94 0;
#X connect 96 1 95 0;
#X connect 97 0 53 0;
#X connect 98 0 53 1;
#X connect 99 0 53 2;
#X connect 100 0 53 3;
#X connect 101 0 53 4;
#X connect 102 0 53 5;
#X connect 103 0 53 6;
#X connect 104 0 53 7;
