#N canvas 15 23 1265 743 12;
#X obj 316 604 dac~;
#X obj 287 479 *~ 0.1;
#X obj 347 478 *~ 0.1;
#X obj 176 -42 osc~;
#X obj 131 124 *~;
#X obj 101 -60 mtof;
#X msg 67 -89 40;
#X obj 146 39 phasor~ 0.3;
#X obj 184 71 pink~;
#X obj 147 73 min~;
#X obj 147 98 lop~ 40;
#X obj 374 7 osc~;
#X obj 395 127 *~;
#X obj 386 -19 mtof;
#X msg 376 -42 40;
#X obj 489 24 pink~;
#X obj 452 24 min~;
#X obj 450 46 lop~ 40;
#X obj 242 129 min~;
#X obj 452 -4 phasor~ 0.2;
#X obj 257 213 delwrite~ tbt 200;
#X obj 441 310 delread~ tbt 200;
#X obj 269 296 delread~ tbt 120;
#X obj 442 341 *~;
#X obj 444 285 lop~ 40;
#X obj 442 369 *~ 0.8;
#X obj 562 99 random 60;
#X obj 563 125 / 100;
#X obj 562 72 metro 800;
#X obj 563 53 tgl 15 0 empty empty empty 17 7 0 10 #fcfcfc #000000 #000000 0 1;
#X obj 169 -138 random 60;
#X obj 170 -112 / 100;
#X obj 169 -165 metro 800;
#X obj 170 -184 tgl 15 0 empty empty empty 17 7 0 10 #fcfcfc #000000 #000000 0 1;
#X obj 299 124 vline~;
#X obj 809 6 metro 800;
#X obj 810 -13 tgl 15 0 empty empty empty 17 7 0 10 #fcfcfc #000000 #000000 0 1;
#X obj 810 59 * 10;
#X obj 253 6 phasor~;
#X obj 316 5 phasor~;
#X obj 58 238 delwrite~ ddd 600;
#X obj 42 294 delread~ ddd 600;
#X obj 280 150 vcf~ 20;
#X obj 413 -79 sel 0 1 2 3;
#X obj 36 -115 sel 0 1 2 3;
#X obj 810 112 vline~;
#X obj 809 135 vd~ ddd;
#X obj 809 33 random 80;
#X obj 810 86 * 20;
#X obj 252 -115 mtof;
#X obj 251 -92 osc~;
#X msg 253 -137 24;
#X obj 447 100 pink~;
#X obj 446 124 lop~ 50;
#X obj 870 111 pink~;
#X obj 869 135 lop~ 150;
#X obj 165 295 delread~ ddd;
#X obj 164 321 bp~ 50 2;
#X obj 430 178 vline~;
#X obj 411 204 vcf~ 10;
#X obj 513 124 * 100;
#X obj 322 181 *~;
#X obj 782 189 *~;
#X obj 827 192 *~;
#X obj 282 32 *~;
#X obj 79 331 *~;
#X obj 269 -194 bng 15 250 50 0 empty empty empty 17 7 0 10 #fcfcfc #000000 #000000;
#X msg 304 99 \$1 3000;
#X obj 253 -159 del 500;
#X obj 809 -47 loadbang;
#X obj 192 -188 loadbang;
#X obj 428 -156 == 3;
#X obj 418 -131 sel 1;
#X obj 463 -131 sel 0;
#X obj 418 -104 i;
#X obj 454 -192 t a a a;
#X msg 438 -42 37;
#X msg 470 -42 42;
#X msg 137 -87 43;
#X msg 102 -89 47;
#X msg 33 -85 39;
#X msg 407 -43 52;
#X obj 282 66 *~ 1;
#X floatatom 341 -77 5 0 0 0 - - - 0;
#X obj 337 -115 line;
#X obj 101 -15 line;
#X obj 470 480 granular;
#X obj 301 541 +~;
#X obj 344 541 +~;
#X obj 780 231 *~ 0.5;
#X msg 435 153 \$1 1000;
#X msg 101 -38 \$1 500;
#X obj 342 572 *~ 1;
#X obj 302 573 *~ 1;
#X obj 682 -166 sel 1;
#X obj 734 -166 sel 1;
#X obj 684 -136 onebang;
#X obj 685 -90 bng 15 250 50 0 empty empty empty 17 7 0 10 #fcfcfc #000000 #000000;
#X msg 996 144 \$1 100;
#X obj 997 170 line;
#X obj 723 427 line;
#X obj 940 169 line;
#X msg 939 143 \$1 500;
#X obj 388 -190 random 4;
#X msg 337 -138 \$1 100;
#X obj 79 361 *~ 1;
#X msg 723 401 \$1 2000;
#X obj 54 172 pluckedString;
#X obj 526 -24 pluckedString;
#X obj 585 360 line;
#X obj 940 -151 zl slice 4;
#X obj 939 -127 unpack 0 0 0 0 0 0;
#X obj 797 -165 sel 1;
#X obj 849 -165 sel 1;
#X obj 799 -135 onebang;
#X obj 36 -141 random 4;
#X obj -32 -113 sel 0 1 2 3;
#X obj -32 -139 random 4;
#X msg -35 -83 68;
#X msg -2 -84 72;
#X msg -27 -47 70;
#X msg 4 -53 64;
#X obj 939 111 clip 0 1;
#X obj 586 308 clip 0 1;
#X msg 585 334 \$1 1000;
#X obj 722 378 clip 0.001 1;
#X obj 803 -95 bng 19 250 50 0 empty empty empty 0 -10 0 12 #fcfcfc #000000 #000000;
#N canvas 47 74 906 593 Trill 0;
#X obj 164 121 r bela_trill;
#X obj 164 149 route mycraft;
#X obj 340 119 s bela_setTrill;
#X obj 342 157 r bela_trillCreated;
#X obj 343 189 print bela_trillhairL_Created;
#X msg 340 89 new mycraft 1 CRAFT \, mode mycraft DIFF \, prescaler mycraft 5;
#X obj 180 284 outlet;
#X obj 339 22 loadbang;
#X obj 340 55 delay 100;
#X obj 110 222 list;
#X obj 70 172 metro 200;
#X obj 75 91 delay 200;
#X obj 65 251 print trill;
#X connect 0 0 1 0;
#X connect 1 0 6 0;
#X connect 1 0 9 1;
#X connect 3 0 4 0;
#X connect 5 0 2 0;
#X connect 7 0 8 0;
#X connect 8 0 5 0;
#X connect 8 0 11 0;
#X connect 9 0 12 0;
#X connect 10 0 9 0;
#X connect 11 0 10 0;
#X restore 939 -181 pd Trill;
#X obj 683 -194 > 0.1;
#X obj 736 -195 < 0.1;
#X obj 798 -193 > 0.1;
#X obj 851 -194 < 0.1;
#X connect 1 0 87 0;
#X connect 2 0 88 0;
#X connect 3 0 4 0;
#X connect 3 0 18 0;
#X connect 3 0 61 0;
#X connect 4 0 1 0;
#X connect 5 0 91 0;
#X connect 6 0 5 0;
#X connect 6 0 107 0;
#X connect 7 0 9 0;
#X connect 7 0 18 0;
#X connect 8 0 9 1;
#X connect 9 0 10 0;
#X connect 10 0 4 1;
#X connect 11 0 12 0;
#X connect 11 0 18 1;
#X connect 11 0 61 1;
#X connect 12 0 2 0;
#X connect 13 0 104 0;
#X connect 14 0 13 0;
#X connect 14 0 108 0;
#X connect 15 0 16 1;
#X connect 16 0 17 0;
#X connect 17 0 12 1;
#X connect 18 0 42 0;
#X connect 19 0 16 0;
#X connect 19 0 18 1;
#X connect 19 0 24 0;
#X connect 21 0 2 0;
#X connect 21 0 23 0;
#X connect 22 0 1 0;
#X connect 23 0 25 0;
#X connect 24 0 23 1;
#X connect 25 0 20 0;
#X connect 26 0 27 0;
#X connect 26 0 60 0;
#X connect 27 0 19 0;
#X connect 28 0 26 0;
#X connect 29 0 28 0;
#X connect 30 0 31 0;
#X connect 31 0 7 0;
#X connect 32 0 30 0;
#X connect 33 0 32 0;
#X connect 34 0 42 1;
#X connect 35 0 47 0;
#X connect 36 0 35 0;
#X connect 37 0 67 0;
#X connect 37 0 48 0;
#X connect 38 0 64 0;
#X connect 39 0 64 1;
#X connect 41 0 65 0;
#X connect 42 0 65 1;
#X connect 42 0 20 0;
#X connect 43 0 14 0;
#X connect 43 1 81 0;
#X connect 43 2 76 0;
#X connect 43 3 77 0;
#X connect 44 0 80 0;
#X connect 44 1 6 0;
#X connect 44 2 79 0;
#X connect 44 3 78 0;
#X connect 45 0 46 0;
#X connect 46 0 62 0;
#X connect 47 0 37 0;
#X connect 48 0 45 0;
#X connect 49 0 50 0;
#X connect 50 0 40 0;
#X connect 50 0 20 0;
#X connect 51 0 49 0;
#X connect 52 0 53 0;
#X connect 53 0 42 0;
#X connect 54 0 55 0;
#X connect 55 0 63 0;
#X connect 56 0 57 0;
#X connect 57 0 1 0;
#X connect 57 0 2 0;
#X connect 58 0 59 1;
#X connect 60 0 90 0;
#X connect 61 0 59 0;
#X connect 61 0 40 0;
#X connect 61 0 2 0;
#X connect 62 0 89 0;
#X connect 63 0 89 0;
#X connect 64 0 82 0;
#X connect 65 0 105 0;
#X connect 66 0 68 0;
#X connect 66 0 103 0;
#X connect 67 0 34 0;
#X connect 68 0 51 0;
#X connect 69 0 29 0;
#X connect 69 0 36 0;
#X connect 70 0 33 0;
#X connect 71 0 72 0;
#X connect 71 0 73 0;
#X connect 72 0 103 0;
#X connect 73 0 74 0;
#X connect 74 0 43 0;
#X connect 75 0 71 1;
#X connect 75 1 71 0;
#X connect 75 2 74 1;
#X connect 76 0 13 0;
#X connect 76 0 108 0;
#X connect 77 0 13 0;
#X connect 77 0 108 0;
#X connect 78 0 5 0;
#X connect 78 0 107 0;
#X connect 79 0 5 0;
#X connect 79 0 107 0;
#X connect 80 0 5 0;
#X connect 80 0 107 0;
#X connect 81 0 13 0;
#X connect 81 0 108 0;
#X connect 82 0 40 0;
#X connect 82 0 42 0;
#X connect 84 0 83 0;
#X connect 84 0 11 0;
#X connect 84 0 39 0;
#X connect 85 0 38 0;
#X connect 85 0 3 0;
#X connect 86 0 87 1;
#X connect 86 0 88 1;
#X connect 87 0 93 0;
#X connect 88 0 92 0;
#X connect 89 0 40 0;
#X connect 89 0 20 0;
#X connect 90 0 58 0;
#X connect 91 0 85 0;
#X connect 92 0 0 1;
#X connect 93 0 0 0;
#X connect 94 0 96 0;
#X connect 95 0 96 1;
#X connect 96 0 97 0;
#X connect 96 0 66 0;
#X connect 96 0 115 0;
#X connect 98 0 99 0;
#X connect 99 0 62 1;
#X connect 100 0 86 1;
#X connect 101 0 63 1;
#X connect 102 0 101 0;
#X connect 103 0 75 0;
#X connect 104 0 84 0;
#X connect 105 0 1 0;
#X connect 105 0 2 0;
#X connect 106 0 100 0;
#X connect 107 0 40 0;
#X connect 108 0 20 0;
#X connect 109 0 86 1;
#X connect 109 0 86 0;
#X connect 110 1 111 0;
#X connect 111 0 128 0;
#X connect 111 0 129 0;
#X connect 111 0 125 0;
#X connect 111 2 130 0;
#X connect 111 2 131 0;
#X connect 111 4 122 0;
#X connect 111 4 123 0;
#X connect 112 0 114 0;
#X connect 113 0 114 1;
#X connect 114 0 117 0;
#X connect 114 0 126 0;
#X connect 115 0 44 0;
#X connect 116 0 118 0;
#X connect 116 1 119 0;
#X connect 116 2 120 0;
#X connect 116 3 121 0;
#X connect 117 0 116 0;
#X connect 118 0 107 0;
#X connect 119 0 107 0;
#X connect 120 0 107 0;
#X connect 121 0 107 0;
#X connect 122 0 98 0;
#X connect 122 0 102 0;
#X connect 123 0 124 0;
#X connect 124 0 109 0;
#X connect 125 0 106 0;
#X connect 127 0 110 0;
#X connect 128 0 94 0;
#X connect 129 0 95 0;
#X connect 130 0 112 0;
#X connect 131 0 113 0;
