#N canvas 216 23 1064 755 12;
#X obj 420 376 soundfiler;
#X obj 419 424 array define grainArray;
#X floatatom 420 400 10 0 0 0 - - - 0;
#X obj 543 294 s grainduration;
#X obj 182 367 clone grain 16;
#X msg 182 343 next \$1;
#X obj 138 145 phasor~;
#X obj 182 260 *~;
#X obj 182 288 snapshot~;
#X obj 36 245 tgl 15 0 empty empty empty 17 7 0 10 #fcfcfc #000000 #000000 0 1;
#X obj 294 68 samplerate~;
#X obj 247 69 t a b;
#X obj 250 92 expr $f2 / $f1;
#X floatatom 250 122 5 0 0 0 - - - 0;
#X floatatom 181 316 10 0 0 0 - - - 0;
#X obj 36 267 metro 125;
#X obj 250 156 * 1;
#X floatatom 297 135 5 0 0 0 - - - 0;
#X obj 297 157 t b f;
#X obj 36 296 random 50;
#X obj 390 124 hsl 128 15 0 1 0 0 empty empty empty -2 -8 0 10 #fcfcfc #000000 #000000 0 1;
#X floatatom 76 322 5 0 0 0 - - - 0;
#X obj 138 188 +~;
#X obj 592 187 hsl 128 15 0 1 0 0 empty empty empty -2 -8 0 10 #fcfcfc #000000 #000000 0 1;
#X obj 138 227 wrap~;
#X floatatom 250 185 5 0 0 0 - - - 0;
#X obj 136 75 t a b;
#X msg 182 119 0;
#X text 418 330 open sound file;
#X text 394 94 play speed 0-1;
#X obj 37 321 + 50;
#X text 36 345 grain size jitter;
#X obj 387 23 inlet;
#X obj 589 20 inlet;
#X obj 182 450 outlet~;
#X obj 36 218 loadbang;
#X obj 420 253 loadbang;
#X text 599 162 playhead start position 0-1;
#X obj 181 179 t a b;
#X floatatom 384 179 5 0 0 0 - - - 0;
#X obj 386 147 * 2;
#X obj 182 394 *~ 0.05;
#X msg 543 271 1000;
#X msg 420 353 read -resize overtone_sample.wav grainArray;
#X connect 0 0 2 0;
#X connect 0 0 11 0;
#X connect 0 0 7 1;
#X connect 4 0 41 0;
#X connect 5 0 4 0;
#X connect 6 0 22 0;
#X connect 7 0 8 0;
#X connect 8 0 14 0;
#X connect 9 0 15 0;
#X connect 10 0 12 1;
#X connect 11 0 12 0;
#X connect 11 1 10 0;
#X connect 12 0 13 0;
#X connect 13 0 16 0;
#X connect 14 0 5 0;
#X connect 15 0 19 0;
#X connect 15 0 8 0;
#X connect 16 0 25 0;
#X connect 16 0 26 0;
#X connect 17 0 18 0;
#X connect 18 0 16 0;
#X connect 18 1 16 1;
#X connect 19 0 30 0;
#X connect 20 0 40 0;
#X connect 21 0 30 1;
#X connect 22 0 24 0;
#X connect 23 0 38 0;
#X connect 24 0 7 0;
#X connect 26 0 6 0;
#X connect 26 1 27 0;
#X connect 27 0 6 1;
#X connect 30 0 15 1;
#X connect 32 0 20 0;
#X connect 33 0 23 0;
#X connect 35 0 9 0;
#X connect 36 0 43 0;
#X connect 36 0 42 0;
#X connect 38 0 22 1;
#X connect 38 1 27 0;
#X connect 40 0 18 0;
#X connect 40 0 39 0;
#X connect 41 0 34 0;
#X connect 42 0 3 0;
#X connect 43 0 0 0;
