#N canvas 458 23 588 698 12;
#X obj 104 290 *~;
#X obj 130 481 *~ 0.25;
#N canvas 0 23 450 300 zap 0;
#X obj 171 223 tgl 15 0 empty empty empty 17 7 0 10 #fcfcfc #000000 #000000 0 1;
#X obj 170 151 t b b;
#X obj 171 175 del 30;
#X msg 172 200 0;
#X msg 206 200 1;
#X obj 171 125 bng 15 250 50 0 empty empty empty 17 7 0 10 #fcfcfc #000000 #000000;
#X obj 172 101 inlet;
#X obj 169 254 outlet;
#X connect 0 0 7 0;
#X connect 1 0 2 0;
#X connect 1 1 4 0;
#X connect 2 0 3 0;
#X connect 3 0 0 0;
#X connect 4 0 0 0;
#X connect 5 0 1 0;
#X connect 6 0 5 0;
#X restore 159 230 pd zap;
#X obj 131 328 delwrite~ del 500;
#X obj 131 372 delread4~ del;
#X text 189 424 never > 1;
#X obj 131 447 lop~ 5000;
#X obj 247 262 mtof;
#X obj 247 286 expr 1000/ $f1;
#X obj 215 185 t b f;
#X obj 302 380 hsl 128 15 0 1 0 0 empty empty empty -2 -8 0 10 #fcfcfc #000000 #000000 0 1;
#X obj 162 173 bng 15 250 50 0 empty empty empty 17 7 0 10 #fcfcfc #000000 #000000;
#X obj 105 231 pink~;
#X obj 300 401 scale 0 1 0.9 0.995;
#X obj 86 107 inlet;
#X text 137 110 midi note number;
#X obj 322 68 inlet;
#X text 372 68 0-1 decay;
#X obj 133 534 outlet~;
#X obj 131 423 *~ 0.99;
#X connect 0 0 3 0;
#X connect 1 0 18 0;
#X connect 2 0 0 1;
#X connect 4 0 19 0;
#X connect 6 0 3 0;
#X connect 6 0 1 0;
#X connect 7 0 8 0;
#X connect 8 0 4 0;
#X connect 9 0 2 0;
#X connect 9 1 7 0;
#X connect 10 0 13 0;
#X connect 11 0 2 0;
#X connect 12 0 0 0;
#X connect 13 0 19 1;
#X connect 14 0 9 0;
#X connect 16 0 10 0;
#X connect 19 0 6 0;
