#N canvas 93 0 1317 835 10;
#X msg 48 248 850 30 1220 80 2810 100;
#X text 53 230 a;
#X text 176 256 e;
#X msg 156 278 430 30 2480 80 3070 100;
#X text 500 245 u;
#X msg 498 264 370 30 950 80 2670 100;
#X text 222 188 i;
#X msg 205 205 240 30 2400 80 2870 100;
#X msg 320 263 235 30 2100 80 2870 100;
#X text 332 242 y;
#X text 371 195 oe;
#X text 501 179 ɶ;
#X msg 360 214 585 30 1710 80 2710 100;
#X msg 490 195 820 30 1530 80 3300 100;
#X obj 169 336 unpack f f f f f f;
#X obj 82 471 line;
#X obj 74 641 bp~ 0 0;
#X obj 154 469 line;
#X floatatom 525 412 5 0 1 0 - - -;
#X obj 525 435 sig~;
#X obj 525 457 *~ 300;
#X obj 371 601 lop~ 4000;
#X obj 213 476 line;
#X obj 198 641 bp~ 0 0;
#X obj 285 474 line;
#X obj 321 465 line;
#X obj 268 647 bp~ 0 0;
#X obj 393 463 line;
#X obj 87 862 *~ 1;
#X obj 84 901 hip~ 50;
#X obj 650 311 osc~ 6;
#X obj 689 335 noise~;
#X obj 750 342 phasor~ 25;
#X obj 698 385 samphold~;
#X obj 652 414 +~;
#X obj 723 470 line;
#X msg 733 427 0 \, 2 100;
#X obj 647 496 s~ vibrato;
#X obj 392 327 r~ vibrato;
#X obj 447 397 +~;
#X obj 669 607 osc~;
#X obj 669 582 +~;
#X obj 701 551 r~ vibrato;
#X obj 669 628 s~ modulator;
#X obj 464 351 r~ modulator;
#X obj 447 459 +~;
#X obj 428 539 phasor~;
#X msg 102 427 \$1 300;
#X msg 161 436 \$1 500;
#X msg 218 421 \$1 300;
#X msg 277 430 \$1 500;
#X msg 316 404 \$1 300;
#X msg 375 413 \$1 500;
#X obj 716 264 hsl 128 15 0 6 0 0 empty empty empty -2 -8 0 10 -262144
-1 -1 0 1;
#X obj 648 454 *~ 2;
#X obj 196 15 inlet;
#X obj 689 71 inlet;
#X obj 106 160 select 0 1 2 3 4 5 6;
#X obj 30 48 tgl 30 0 empty empty empty 17 7 0 10 -262144 -1 -1 1 1
;
#X text 6 15 Modify the consonants;
#X obj 52 33 loadbang;
#X text 247 34 Vowel control from the sensor data..;
#X obj 529 1012 *~;
#X obj 444 946 *;
#X obj 444 915 t f f;
#X msg 511 936 1 \$1;
#X obj 511 964 -;
#X obj 492 1004 *~;
#X obj 529 1052 +~;
#X obj 528 1087 /~ 2;
#X obj 528 1124 freeverb~;
#X obj 501 1159 outlet~;
#X obj 435 879 hsl 128 15 0 1 0 0 empty empty empty -2 -6 0 8 -262144
-1 -1 3810 1;
#X obj 447 812 line;
#X msg 510 785 \$1 100;
#X msg 542 747 1;
#X msg 585 751 0.3;
#X obj 759 820 readsf~;
#X msg 845 736 open f.wav \, 1;
#X msg 743 736 open t2.wav \, 1;
#X obj 741 890 *~ 0.5;
#X msg 823 792 open h.wav \, 1;
#X msg 924 768 open l.wav \, 1;
#X msg 337 1039 roomsize \$1;
#X obj 388 1015 hsl 128 15 0 1 0 0 empty empty empty -2 -8 0 10 -262144
-1 -1 0 1;
#X obj 392 1061 hsl 128 15 0 1 0 0 empty empty empty -2 -8 0 10 -262144
-1 -1 0 1;
#X msg 337 1088 damping \$1;
#X obj 863 564 bng 15 250 50 0 empty empty empty 17 7 0 10 -262144
-1 -1;
#X floatatom 839 511 5 0 0 0 - - -;
#X obj 864 457 f;
#X obj 918 457 + 1;
#X obj 934 575 bng 15 250 50 0 empty empty empty 17 7 0 10 -262144
-1 -1;
#X obj 896 376 tgl 30 0 empty empty empty 17 7 0 10 -262144 -1 -1 1
1;
#X obj 888 575 bng 15 250 50 0 empty empty empty 17 7 0 10 -262144
-1 -1;
#X obj 914 575 bng 15 250 50 0 empty empty empty 17 7 0 10 -262144
-1 -1;
#X obj 864 430 metro 25;
#X obj 864 484 mod 40;
#X obj 864 537 select 0 2 5 20;
#X obj 907 341 loadbang;
#X msg 238 782 0;
#X msg 205 743 0.6;
#X text 257 743 Voice off;
#X text 258 687 Voice on;
#X obj 857 665 random 4;
#X obj 859 705 select 0 1 2 3;
#X obj 240 854 hsl 128 15 0 1 0 0 empty empty empty -2 -8 0 10 -262144
-1 -1 0 1;
#X obj 56 74 metro 500;
#X obj 56 128 mod 7;
#X obj 56 101 random 7;
#X obj 939 612 s voiceoff;
#X obj 281 763 r voiceoff;
#X obj 883 627 s voiceon;
#X obj 252 710 r voiceon;
#X text 471 842 Crossfader between vowel/consonant;
#X obj 254 153 i;
#X obj 258 63 route bang float;
#X obj 330 125 moses 0;
#X obj 369 149 + 0.5;
#X obj 330 149 - 0.5;
#X obj 303 92 t b f;
#X obj 192 63 * 5;
#X connect 0 0 14 0;
#X connect 3 0 14 0;
#X connect 5 0 14 0;
#X connect 7 0 14 0;
#X connect 8 0 14 0;
#X connect 12 0 14 0;
#X connect 13 0 14 0;
#X connect 14 0 47 0;
#X connect 14 1 48 0;
#X connect 14 2 49 0;
#X connect 14 3 50 0;
#X connect 14 4 51 0;
#X connect 14 5 52 0;
#X connect 15 0 16 1;
#X connect 16 0 28 0;
#X connect 17 0 16 2;
#X connect 18 0 19 0;
#X connect 19 0 20 0;
#X connect 20 0 41 0;
#X connect 20 0 45 1;
#X connect 21 0 16 0;
#X connect 21 0 23 0;
#X connect 21 0 26 0;
#X connect 22 0 23 1;
#X connect 23 0 28 0;
#X connect 24 0 23 2;
#X connect 25 0 26 1;
#X connect 26 0 28 0;
#X connect 27 0 26 2;
#X connect 28 0 29 0;
#X connect 29 0 67 0;
#X connect 30 0 34 0;
#X connect 31 0 33 0;
#X connect 32 0 33 1;
#X connect 33 0 34 1;
#X connect 34 0 54 0;
#X connect 35 0 54 1;
#X connect 36 0 35 0;
#X connect 38 0 39 0;
#X connect 39 0 45 0;
#X connect 40 0 43 0;
#X connect 41 0 40 0;
#X connect 42 0 41 1;
#X connect 44 0 39 1;
#X connect 45 0 46 0;
#X connect 46 0 21 0;
#X connect 47 0 15 0;
#X connect 48 0 17 0;
#X connect 49 0 22 0;
#X connect 50 0 24 0;
#X connect 51 0 25 0;
#X connect 52 0 27 0;
#X connect 53 0 30 0;
#X connect 54 0 37 0;
#X connect 55 0 120 0;
#X connect 56 0 18 0;
#X connect 57 0 0 0;
#X connect 57 1 3 0;
#X connect 57 2 7 0;
#X connect 57 3 8 0;
#X connect 57 4 12 0;
#X connect 57 5 5 0;
#X connect 57 6 13 0;
#X connect 58 0 106 0;
#X connect 60 0 58 0;
#X connect 62 0 68 1;
#X connect 63 0 62 1;
#X connect 63 0 65 0;
#X connect 64 0 63 0;
#X connect 64 1 63 1;
#X connect 65 0 66 0;
#X connect 66 0 67 1;
#X connect 67 0 68 0;
#X connect 68 0 69 0;
#X connect 69 0 70 0;
#X connect 70 0 71 0;
#X connect 72 0 64 0;
#X connect 73 0 72 0;
#X connect 74 0 73 0;
#X connect 75 0 74 0;
#X connect 76 0 74 0;
#X connect 77 0 80 0;
#X connect 78 0 77 0;
#X connect 79 0 77 0;
#X connect 80 0 62 0;
#X connect 81 0 77 0;
#X connect 82 0 77 0;
#X connect 83 0 70 0;
#X connect 83 0 70 1;
#X connect 84 0 83 0;
#X connect 85 0 86 0;
#X connect 86 0 70 0;
#X connect 86 0 70 1;
#X connect 87 0 103 0;
#X connect 87 0 75 0;
#X connect 89 0 90 0;
#X connect 89 0 96 0;
#X connect 90 0 89 1;
#X connect 91 0 109 0;
#X connect 92 0 95 0;
#X connect 93 0 111 0;
#X connect 94 0 76 0;
#X connect 95 0 89 0;
#X connect 96 0 88 0;
#X connect 96 0 97 0;
#X connect 97 0 87 0;
#X connect 97 1 93 0;
#X connect 97 2 94 0;
#X connect 97 3 91 0;
#X connect 98 0 92 0;
#X connect 99 0 105 0;
#X connect 100 0 105 0;
#X connect 103 0 104 0;
#X connect 104 0 79 0;
#X connect 104 1 78 0;
#X connect 104 2 81 0;
#X connect 104 3 82 0;
#X connect 105 0 28 1;
#X connect 106 0 108 0;
#X connect 108 0 107 0;
#X connect 110 0 99 0;
#X connect 112 0 100 0;
#X connect 114 0 57 0;
#X connect 115 0 114 0;
#X connect 115 1 119 0;
#X connect 116 0 118 0;
#X connect 116 1 117 0;
#X connect 117 0 114 1;
#X connect 118 0 114 1;
#X connect 119 0 114 0;
#X connect 119 1 116 0;
#X connect 120 0 115 0;
