#N canvas 25 23 1139 551 12;
#X msg 53 64 socket subscribe;
#X obj 7 38 t b b b;
#X obj 8 17 bng 15 250 50 0 empty empty empty 17 7 0 10 #fcfcfc #000000 #000000;
#X obj 75 162 zmq;
#X msg 9 110 subscribe sensors;
#X obj 35 11 loadbang;
#X msg 547 68 socket publish;
#X obj 516 40 t b b;
#X obj 516 15 bng 15 250 50 0 empty empty empty 17 7 0 10 #fcfcfc #000000 #000000;
#X obj 515 153 zmq;
#X obj 544 119 r sendZMQ;
#X obj 538 11 loadbang;
#X msg 31 87 connect tcp://192.168.0.10:5555;
#X msg 515 94 connect tcp://192.168.0.10:5556;
#X msg 443 111 close;
#X obj 243 16 t b b b b b;
#X obj 778 69 print;
#X msg 756 39 subscribe drummer;
#X msg 278 102 subscribe fabric1;
#X obj 250 214 route fabric1;
#X obj 250 225 unpack 0 0 0 0 0 0 0 0 0 0 0 0 0 0 0 0 0 0 0 0 0 0 0 0 0 0 0 0 0 0, f 74;
#X obj 251 304 vsl 10 100 0 1 0 0 empty empty empty 0 -9 0 12 #fcfcfc #000000 #000000 0 1;
#X obj 269 304 vsl 10 100 0 1 0 0 empty empty empty 0 -9 0 12 #fcfcfc #000000 #000000 0 1;
#X obj 288 304 vsl 10 100 0 1 0 0 empty empty empty 0 -9 0 12 #fcfcfc #000000 #000000 0 1;
#X obj 304 304 vsl 10 100 0 1 0 0 empty empty empty 0 -9 0 12 #fcfcfc #000000 #000000 0 1;
#X obj 319 304 vsl 10 100 0 1 0 0 empty empty empty 0 -9 0 12 #fcfcfc #000000 #000000 0 1;
#X obj 335 304 vsl 10 100 0 1 0 0 empty empty empty 0 -9 0 12 #fcfcfc #000000 #000000 0 1;
#X obj 357 304 vsl 10 100 0 1 0 0 empty empty empty 0 -9 0 12 #fcfcfc #000000 #000000 0 1;
#X obj 373 304 vsl 10 100 0 1 0 0 empty empty empty 0 -9 0 12 #fcfcfc #000000 #000000 0 1;
#X obj 391 304 vsl 10 100 0 1 0 0 empty empty empty 0 -9 0 12 #fcfcfc #000000 #000000 0 1;
#X obj 410 304 vsl 10 100 0 1 0 0 empty empty empty 0 -9 0 12 #fcfcfc #000000 #000000 0 1;
#X obj 427 304 vsl 10 100 0 1 0 0 empty empty empty 0 -9 0 12 #fcfcfc #000000 #000000 0 1;
#X obj 441 304 vsl 10 100 0 1 0 0 empty empty empty 0 -9 0 12 #fcfcfc #000000 #000000 0 1;
#X obj 459 304 vsl 10 100 0 1 0 0 empty empty empty 0 -9 0 12 #fcfcfc #000000 #000000 0 1;
#X obj 476 304 vsl 10 100 0 1 0 0 empty empty empty 0 -9 0 12 #fcfcfc #000000 #000000 0 1;
#X obj 495 304 vsl 10 100 0 1 0 0 empty empty empty 0 -9 0 12 #fcfcfc #000000 #000000 0 1;
#X obj 515 304 vsl 10 100 0 1 0 0 empty empty empty 0 -9 0 12 #fcfcfc #000000 #000000 0 1;
#X obj 530 304 vsl 10 100 0 1 0 0 empty empty empty 0 -9 0 12 #fcfcfc #000000 #000000 0 1;
#X obj 548 304 vsl 10 100 0 1 0 0 empty empty empty 0 -9 0 12 #fcfcfc #000000 #000000 0 1;
#X obj 568 304 vsl 10 100 0 1 0 0 empty empty empty 0 -9 0 12 #fcfcfc #000000 #000000 0 1;
#X obj 585 304 vsl 10 100 0 1 0 0 empty empty empty 0 -9 0 12 #fcfcfc #000000 #000000 0 1;
#X obj 602 304 vsl 10 100 0 1 0 0 empty empty empty 0 -9 0 12 #fcfcfc #000000 #000000 0 1;
#X obj 621 304 vsl 10 100 0 1 0 0 empty empty empty 0 -9 0 12 #fcfcfc #000000 #000000 0 1;
#X obj 640 304 vsl 10 100 0 1 0 0 empty empty empty 0 -9 0 12 #fcfcfc #000000 #000000 0 1;
#X obj 657 304 vsl 10 100 0 1 0 0 empty empty empty 0 -9 0 12 #fcfcfc #000000 #000000 0 1;
#X obj 675 304 vsl 10 100 0 1 0 0 empty empty empty 0 -9 0 12 #fcfcfc #000000 #000000 0 1;
#X obj 692 304 vsl 10 100 0 1 0 0 empty empty empty 0 -9 0 12 #fcfcfc #000000 #000000 0 1;
#X obj 729 304 vsl 10 100 0 1 0 0 empty empty empty 0 -9 0 12 #fcfcfc #000000 #000000 0 1;
#X obj 746 304 vsl 10 100 0 1 0 0 empty empty empty 0 -9 0 12 #fcfcfc #000000 #000000 0 1;
#X obj 764 304 vsl 10 100 0 1 0 0 empty empty empty 0 -9 0 12 #fcfcfc #000000 #000000 0 1;
#X obj 710 304 vsl 10 100 0 1 0 0 empty empty empty 0 -9 0 12 #fcfcfc #000000 #000000 0 1;
#X obj 888 439 drone-loop/drone-loop;
#X msg 37 37;
#X obj 419 434 zl sum;
#X obj 565 500 clip 0 1;
#X floatatom 507 423 5 0 0 0 - - - 0;
#X obj 559 465 scale 0 2 0 1;
#X obj 709 456 zl;
#X obj 908 288 t a a;
#X obj 909 313 -;
#X obj 909 335 > 0.01;
#X obj 973 288 t a a;
#X obj 974 313 -;
#X obj 974 335 > 0.01;
#X obj 852 288 t a a;
#X obj 853 313 -;
#X obj 853 335 > 0.01;
#X obj 802 287 t a a;
#X obj 803 312 -;
#X obj 803 334 > 0.01;
#X msg 803 407 0.2;
#X msg 870 470 0.2;
#X obj 803 359 change;
#X obj 804 382 sel 1;
#X obj 854 361 change;
#X obj 855 384 sel 1;
#X obj 909 358 change;
#X obj 910 381 sel 1;
#X obj 973 360 change;
#X obj 974 383 sel 1;
#X msg 854 409 0.4;
#X msg 909 406 0.6;
#X msg 973 408 0.8;
#X connect 0 0 3 0;
#X connect 1 0 4 0;
#X connect 1 0 15 0;
#X connect 1 0 17 0;
#X connect 1 1 12 0;
#X connect 1 2 0 0;
#X connect 2 0 1 0;
#X connect 3 0 19 0;
#X connect 4 0 3 0;
#X connect 5 0 1 0;
#X connect 6 0 9 0;
#X connect 7 0 13 0;
#X connect 7 1 6 0;
#X connect 8 0 7 0;
#X connect 10 0 9 0;
#X connect 11 0 7 0;
#X connect 12 0 3 0;
#X connect 13 0 9 0;
#X connect 14 0 3 0;
#X connect 14 0 9 0;
#X connect 15 0 18 0;
#X connect 17 0 3 0;
#X connect 18 0 3 0;
#X connect 19 0 20 0;
#X connect 19 0 53 0;
#X connect 20 0 21 0;
#X connect 20 1 22 0;
#X connect 20 2 23 0;
#X connect 20 3 24 0;
#X connect 20 4 25 0;
#X connect 20 5 26 0;
#X connect 20 6 27 0;
#X connect 20 7 28 0;
#X connect 20 8 29 0;
#X connect 20 9 30 0;
#X connect 20 10 31 0;
#X connect 20 11 32 0;
#X connect 20 12 33 0;
#X connect 20 13 34 0;
#X connect 20 14 35 0;
#X connect 20 15 36 0;
#X connect 20 16 37 0;
#X connect 20 17 38 0;
#X connect 20 18 39 0;
#X connect 20 18 67 0;
#X connect 20 19 40 0;
#X connect 20 20 41 0;
#X connect 20 20 64 0;
#X connect 20 21 42 0;
#X connect 20 22 43 0;
#X connect 20 23 44 0;
#X connect 20 24 45 0;
#X connect 20 25 46 0;
#X connect 20 25 58 0;
#X connect 20 26 50 0;
#X connect 20 26 61 0;
#X connect 20 27 47 0;
#X connect 20 28 48 0;
#X connect 20 29 49 0;
#X connect 53 0 55 0;
#X connect 53 0 56 0;
#X connect 56 0 54 0;
#X connect 58 0 59 1;
#X connect 58 1 59 0;
#X connect 59 0 60 0;
#X connect 60 0 76 0;
#X connect 61 0 62 1;
#X connect 61 1 62 0;
#X connect 62 0 63 0;
#X connect 63 0 78 0;
#X connect 64 0 65 1;
#X connect 64 1 65 0;
#X connect 65 0 66 0;
#X connect 66 0 74 0;
#X connect 67 0 68 1;
#X connect 67 1 68 0;
#X connect 68 0 69 0;
#X connect 69 0 72 0;
#X connect 70 0 51 0;
#X connect 72 0 73 0;
#X connect 73 0 70 0;
#X connect 74 0 75 0;
#X connect 75 0 80 0;
#X connect 76 0 77 0;
#X connect 77 0 81 0;
#X connect 78 0 79 0;
#X connect 79 0 82 0;
#X connect 80 0 51 0;
#X connect 81 0 51 0;
#X connect 82 0 51 0;
