#N canvas 106 25 1026 651 12;
#X obj 220 109 bng 15 250 50 0 empty empty empty 17 7 0 10 #fcfcfc #000000 #000000;
#X obj 216 135 openpanel;
#X msg 211 166 read -resize \$1 audioData1 audioData2;
#X text 245 84 <<Click here to open from documents, f 14;
#X text 666 135 <<Click here to start loop, f 12;
#X obj 336 628 dac~;
#X msg 331 136 read -resize kavari02.wav audioData1 audioData2;
#X msg 380 258 stop;
#N canvas 123 77 860 631 readfile1 0;
#X obj 138 118 soundfiler;
#X floatatom 136 149 15 0 0 0 - - - 0;
#X obj 136 334 phasor~;
#X obj 87 453 *~;
#X obj 139 189 expr 44100/$f1;
#N canvas 0 22 450 278 (subpatch) 0;
#X array audioData1 5.89414e+06 float 4;
#X coords 0 1 5.89414e+06 -1 200 140 1;
#X restore 414 102 graph;
#N canvas 0 22 450 278 (subpatch) 0;
#X array audioData2 5.89414e+06 float 4;
#X coords 0 1 5.89414e+06 -1 200 140 1;
#X restore 422 269 graph;
#X obj 111 546 *~ 0.5;
#X obj 82 494 tabread4~ audioData1;
#X floatatom 328 322 5 0 0 0 - - - 0;
#X obj 287 546 *~ 0.5;
#X obj 258 494 tabread4~ audioData2;
#X msg 234 369 0;
#X msg 266 95 stop;
#X text 311 81 <<Click here to stop loop, f 11;
#X obj 306 151 loadbang;
#X msg 309 193 10;
#X floatatom 352 208 5 0 0 0 - - - 0;
#X obj 143 60 inlet;
#X obj 236 600 outlet~;
#X obj 252 42 inlet;
#X obj 330 23 inlet;
#X obj 309 268 / 10;
#X obj 302 236 / 1200;
#X connect 0 0 1 0;
#X connect 1 0 4 0;
#X connect 1 0 3 1;
#X connect 2 0 3 0;
#X connect 3 0 8 0;
#X connect 3 0 11 0;
#X connect 4 0 2 0;
#X connect 7 0 19 0;
#X connect 8 0 7 0;
#X connect 10 0 19 0;
#X connect 11 0 10 0;
#X connect 12 0 3 1;
#X connect 13 0 12 0;
#X connect 15 0 16 0;
#X connect 16 0 23 0;
#X connect 17 0 23 0;
#X connect 18 0 0 0;
#X connect 20 0 17 0;
#X connect 21 0 13 0;
#X connect 22 0 2 0;
#X connect 22 0 9 0;
#X connect 23 0 22 0;
#X restore 212 396 pd readfile1;
#X text 419 255 <<Click here to stop loop, f 13;
#X obj 555 450 biquad~;
#X obj 382 441 sig~;
#X obj 340 472 vcf~ 1, f 10;
#X text 490 442 Q, f 3;
#X text 431 503 optional argument initializes Q;
#X obj 436 466 / 10;
#X obj 375 401 hsl 128 15 12 1200 1 0 empty empty empty -2 -8 0 10 #fcfcfc #000000 #000000 0 1;
#X obj 444 430 hsl 128 15 0.03 3 1 0 empty empty empty -2 -8 0 10 #fcfcfc #000000 #000000 0 1;
#X obj 354 364 granular3;
#X obj 470 328 hsl 162 19 0 1 0 0 empty empty empty -2 -10 0 12 #fcfcfc #000000 #000000 0 1;
#X obj 621 352 hsl 162 19 0 1 0 0 empty empty empty -2 -10 0 12 #fcfcfc #000000 #000000 0 1;
#X obj 347 302 hsl 162 19 0 1 0 0 empty empty empty -2 -10 0 12 #fcfcfc #000000 #000000 0 1;
#X obj 387 28 inlet;
#X obj 571 397 scale 0 1 2 0.02;
#X obj 440 371 scale 0 1 12 1200;
#X connect 0 0 1 0;
#X connect 1 0 2 0;
#X connect 2 0 8 0;
#X connect 6 0 8 0;
#X connect 7 0 8 2;
#X connect 11 0 12 1;
#X connect 12 0 5 1;
#X connect 12 0 5 0;
#X connect 15 0 12 2;
#X connect 16 0 11 0;
#X connect 17 0 15 0;
#X connect 18 0 12 0;
#X connect 19 0 18 1;
#X connect 20 0 18 2;
#X connect 21 0 18 0;
#X connect 22 0 18 0;
#X connect 22 0 23 0;
#X connect 22 0 24 0;
#X connect 23 0 15 0;
#X connect 24 0 11 0;
