#N canvas 216 23 1064 755 12;
#X obj 420 376 soundfiler;
#X floatatom 420 400 10 0 0 0 - - - 0;
#X obj 194 512 *~ 0.5;
#X msg 194 461 next \$1;
#X obj 138 145 phasor~;
#X obj 182 260 *~;
#X obj 194 406 snapshot~;
#X obj 16 249 tgl 15 0 empty empty empty 17 7 0 10 #fcfcfc #000000 #000000 0 1;
#X obj 294 68 samplerate~;
#X obj 247 69 t a b;
#X obj 250 92 expr $f2 / $f1;
#X floatatom 250 122 5 0 0 0 - - - 0;
#X floatatom 212 434 10 0 0 0 - - - 0;
#X obj 36 267 metro 125;
#X obj 250 156 * 1;
#X floatatom 297 135 5 0 0 0 - - - 0;
#X obj 297 157 t b f;
#X obj 389 122 hsl 128 15 0 1 0 0 empty empty empty -2 -8 0 10 #fcfcfc #000000 #000000 0 1;
#X obj 138 188 +~;
#X obj 543 215 hsl 128 15 0 1 0 0 empty empty empty -2 -8 0 10 #fcfcfc #000000 #000000 0 1;
#X obj 138 227 wrap~;
#X floatatom 250 185 5 0 0 0 - - - 0;
#X obj 136 91 t a b;
#X msg 223 229 0;
#X text 418 330 open sound file;
#X text 394 94 play speed 0-1;
#X text 36 345 grain size jitter;
#X obj 387 23 inlet;
#X obj 589 20 inlet;
#X obj 194 568 outlet~;
#X obj 37 242 loadbang;
#X obj 419 306 loadbang;
#X text 599 162 playhead start position 0-1;
#X obj 176 189 t a b;
#X msg 545 266 300;
#X obj 36 316 + 20;
#X obj 419 424 array define grainArray3;
#X obj 194 485 clone grain3 16;
#X obj 543 294 s grainduration3;
#X msg 420 353 read -resize kavari02.wav grainArray3;
#X obj 215 27 inlet;
#X obj 386 178 + 0.1;
#X obj 179 338 *~ 0.5;
#X obj 386 150 * 1.5;
#X obj 36 292 random 150;
#X msg 581 266 110;
#X connect 0 0 1 0;
#X connect 0 0 9 0;
#X connect 0 0 5 1;
#X connect 2 0 29 0;
#X connect 3 0 37 0;
#X connect 4 0 18 0;
#X connect 5 0 42 0;
#X connect 6 0 12 0;
#X connect 6 0 3 0;
#X connect 7 0 13 0;
#X connect 8 0 10 1;
#X connect 9 0 10 0;
#X connect 9 1 8 0;
#X connect 10 0 11 0;
#X connect 11 0 14 0;
#X connect 13 0 6 0;
#X connect 13 0 44 0;
#X connect 14 0 21 0;
#X connect 14 0 22 0;
#X connect 15 0 16 0;
#X connect 16 0 14 0;
#X connect 16 1 14 1;
#X connect 17 0 43 0;
#X connect 18 0 20 0;
#X connect 19 0 33 0;
#X connect 20 0 5 0;
#X connect 22 0 4 0;
#X connect 23 0 4 1;
#X connect 27 0 17 0;
#X connect 28 0 19 0;
#X connect 30 0 13 0;
#X connect 31 0 39 0;
#X connect 31 0 34 0;
#X connect 33 0 18 1;
#X connect 33 1 23 0;
#X connect 34 0 38 0;
#X connect 35 0 13 1;
#X connect 37 0 2 0;
#X connect 39 0 0 0;
#X connect 40 0 42 1;
#X connect 41 0 15 0;
#X connect 42 0 6 0;
#X connect 43 0 41 0;
#X connect 44 0 35 0;
#X connect 45 0 38 0;
