#N canvas 167 23 845 619 12;
#X obj 138 33 inlet;
#X obj 354 483 outlet;
#X obj 251 485 outlet;
#X text 336 23 calibration switch;
#X obj 296 40 inlet trigger;
#X obj 250 118 - 1;
#X obj 249 162 peak;
#X obj 249 140 abs;
#X obj 249 186 - 1;
#X floatatom 248 232 5 0 0 0 - - -;
#X obj 249 208 abs;
#X obj 199 163 peak;
#X msg 370 115 0;
#X floatatom 199 191 5 0 0 0 - - -;
#X obj 201 89 spigot;
#X text 289 234 min;
#X text 163 193 max;
#X text 402 114 reset;
#X obj 295 63 t a a;
#X obj 369 93 sel 1;
#X text 303 485 min;
#X text 408 483 max;
#X obj 138 61 t a a;
#X obj 250 442 clip 0 1;
#X obj 353 452 clip 0 1;
#X connect 0 0 22 0;
#X connect 4 0 18 0;
#X connect 5 0 7 0;
#X connect 6 0 8 0;
#X connect 7 0 6 0;
#X connect 8 0 10 0;
#X connect 10 0 9 0;
#X connect 10 0 23 0;
#X connect 11 0 13 0;
#X connect 11 0 24 0;
#X connect 12 0 6 1;
#X connect 12 0 11 1;
#X connect 14 0 5 0;
#X connect 14 0 11 0;
#X connect 18 0 14 1;
#X connect 18 1 19 0;
#X connect 19 0 12 0;
#X connect 22 1 14 0;
#X connect 23 0 2 0;
#X connect 24 0 1 0;
