#N canvas 0 23 746 532 12;
#X msg 252 339 \$1 \, \$2 \$3;
#X obj 235 249 t f f;
#X obj 287 272 +;
#X obj 337 253 * 44.1;
#X obj 252 306 pack f f f;
#X obj 245 412 tabread4~ grainArray;
#X obj 253 370 line~;
#X obj 184 221 scale 0 1 0 10000;
#X obj 240 501 outlet~;
#X obj 187 23 inlet;
#X text 234 24 dulation scaler 0-1;
#X obj 249 189 r fileduration;
#X obj 409 126 r grainduration;
#X obj 186 58 t f b;
#X obj 573 104 t b b;
#X msg 642 125 1;
#X msg 571 148 0;
#X obj 585 176 pack 0 50;
#X obj 572 126 delay 50;
#X obj 584 200 line~;
#X obj 243 458 *~, f 49;
#X obj 408 150 - 50;
#X connect 0 0 6 0;
#X connect 1 0 4 0;
#X connect 1 1 2 0;
#X connect 2 0 4 1;
#X connect 3 0 2 1;
#X connect 4 0 0 0;
#X connect 5 0 20 0;
#X connect 6 0 5 0;
#X connect 7 0 1 0;
#X connect 9 0 13 0;
#X connect 11 0 7 4;
#X connect 12 0 3 0;
#X connect 12 0 4 2;
#X connect 12 0 21 0;
#X connect 13 0 1 0;
#X connect 13 1 14 0;
#X connect 14 0 18 0;
#X connect 14 1 15 0;
#X connect 15 0 17 0;
#X connect 16 0 17 0;
#X connect 17 0 19 0;
#X connect 18 0 16 0;
#X connect 19 0 20 1;
#X connect 20 0 8 0;
#X connect 21 0 18 1;
