#N canvas 27 418 381 327 12;
#X msg 403 65 tempo \$1;
#X msg 217 65 resolution \$1;
#X msg 313 65 reset \$1 \$2;
#X obj 313 44 pack f f;
#X floatatom 247 191 5 0 0 1 beat_time - - 0;
#X floatatom 219 212 5 0 0 1 phase - - 0;
#X msg 88 165 \; pd dsp 1;
#X floatatom 192 240 5 0 0 1 step - - 0;
#X floatatom 275 169 5 0 0 1 tempo - - 0;
#X obj 74 45 tgl 15 0 empty empty empty 17 7 0 10 #fcfcfc #000000 #000000 0 1;
#X obj 192 128 abl_link~ 1 0 4 134;
#X floatatom 403 46 5 0 0 2 tempo - - 0;
#X floatatom 358 25 5 0 0 2 quantum - - 0;
#X floatatom 313 25 5 0 0 2 beat - - 0;
#X floatatom 217 45 5 0 0 2 resolution - - 0;
#X msg 74 66 connect \$1;
#X floatatom 300 259 5 0 0 0 - - - 0;
#X obj 300 237 r #abl_link_num_peers;
#X floatatom 303 150 5 0 0 1 is_playing - - 0;
#X obj 157 45 tgl 15 0 empty empty empty 17 7 0 10 #fcfcfc #000000 #000000 0 1;
#X msg 157 65 play \$1;
#X floatatom 473 46 5 0 0 0 - - - 0;
#X msg 473 65 offset \$1;
#X obj 165 318 osc~ 2000;
#X obj 174 370 *~;
#X obj 176 435 dac~;
#X msg 230 358 1;
#X msg 305 392 0;
#X obj 263 304 t b b;
#X obj 268 340 delay 10;
#X connect 0 0 10 0;
#X connect 1 0 10 0;
#X connect 2 0 10 0;
#X connect 3 0 2 0;
#X connect 9 0 15 0;
#X connect 10 0 7 0;
#X connect 10 0 28 0;
#X connect 10 1 5 0;
#X connect 10 2 4 0;
#X connect 10 3 8 0;
#X connect 11 0 0 0;
#X connect 12 0 3 1;
#X connect 13 0 3 0;
#X connect 14 0 1 0;
#X connect 15 0 10 0;
#X connect 17 0 16 0;
#X connect 19 0 20 0;
#X connect 20 0 10 0;
#X connect 21 0 22 0;
#X connect 22 0 10 0;
#X connect 23 0 24 0;
#X connect 24 0 25 0;
#X connect 24 0 25 1;
#X connect 26 0 24 1;
#X connect 27 0 24 1;
#X connect 28 0 26 0;
#X connect 28 1 29 0;
#X connect 29 0 27 0;
