#N canvas 181 23 1176 730 12;
#X msg 53 64 socket subscribe;
#X obj 7 38 t b b b;
#X obj 8 17 bng 15 250 50 0 empty empty empty 17 7 0 10 #fcfcfc #000000 #000000;
#X obj 8 137 zmq;
#X msg 9 110 subscribe sensors;
#X obj 35 11 loadbang;
#X msg 469 75 socket publish;
#X obj 438 47 t b b;
#X obj 438 22 bng 15 250 50 0 empty empty empty 17 7 0 10 #fcfcfc #000000 #000000;
#X obj 437 160 zmq;
#X obj 466 126 r sendZMQ;
#X obj 460 18 loadbang;
#X msg 31 87 connect tcp://192.168.0.10:5555;
#X msg 437 101 connect tcp://192.168.0.10:5556;
#X msg 148 111 subscribe ml;
#X obj 8 162 route sensors ml;
#N canvas 362 419 783 359 drummer_sel 0;
#X obj 103 126 hradio 19 1 0 5 empty empty empty 0 -10 0 12 #fcfcfc #000000 #000000 0;
#X obj 105 153 t a b;
#X msg 280 212 0;
#X obj 101 535 list trim;
#X obj 101 511 list prepend send;
#X obj 101 487 list prepend control;
#X obj 104 438 list prepend drummer;
#X msg 104 244 1;
#X msg 135 244 1;
#X msg 166 244 1;
#X msg 197 243 1;
#X obj 103 464 list prepend pm2;
#X obj 104 184 pipe 40;
#X obj 104 383 list trim;
#X obj 104 359 list prepend send;
#X obj 104 335 list prepend control;
#X obj 104 289 list prepend drummer;
#X msg 247 213 0;
#X msg 345 211 0;
#X msg 312 212 0;
#X obj 104 312 list prepend pm1;
#X obj 101 557 s sendZMQ;
#X obj 104 406 s sendZMQ;
#X obj 252 533 list trim;
#X obj 252 509 list prepend send;
#X obj 252 485 list prepend control;
#X obj 255 436 list prepend drummer;
#X obj 255 381 list trim;
#X obj 255 357 list prepend send;
#X obj 255 333 list prepend control;
#X obj 255 287 list prepend drummer;
#X obj 252 555 s sendZMQ;
#X obj 255 404 s sendZMQ;
#X obj 255 310 list prepend pm3;
#X obj 254 462 list prepend pm4;
#X obj 248 185 t b b b b b;
#X msg 380 212 0;
#X obj 425 530 list trim;
#X obj 425 506 list prepend send;
#X obj 425 482 list prepend control;
#X obj 428 433 list prepend drummer;
#X obj 425 552 s sendZMQ;
#X obj 427 459 list prepend pm5;
#X obj 104 215 sel 0 1 2 3 4;
#X msg 230 243 1;
#X connect 0 0 1 0;
#X connect 1 0 12 0;
#X connect 1 1 35 0;
#X connect 2 0 6 0;
#X connect 3 0 21 0;
#X connect 4 0 3 0;
#X connect 5 0 4 0;
#X connect 6 0 11 0;
#X connect 7 0 16 0;
#X connect 8 0 6 0;
#X connect 9 0 30 0;
#X connect 10 0 26 0;
#X connect 11 0 5 0;
#X connect 12 0 43 0;
#X connect 13 0 22 0;
#X connect 14 0 13 0;
#X connect 15 0 14 0;
#X connect 16 0 20 0;
#X connect 17 0 16 0;
#X connect 18 0 26 0;
#X connect 19 0 30 0;
#X connect 20 0 15 0;
#X connect 23 0 31 0;
#X connect 24 0 23 0;
#X connect 25 0 24 0;
#X connect 26 0 34 0;
#X connect 27 0 32 0;
#X connect 28 0 27 0;
#X connect 29 0 28 0;
#X connect 30 0 33 0;
#X connect 33 0 29 0;
#X connect 34 0 25 0;
#X connect 35 0 17 0;
#X connect 35 1 2 0;
#X connect 35 2 19 0;
#X connect 35 3 18 0;
#X connect 35 4 36 0;
#X connect 36 0 40 0;
#X connect 37 0 41 0;
#X connect 38 0 37 0;
#X connect 39 0 38 0;
#X connect 40 0 42 0;
#X connect 42 0 39 0;
#X connect 43 0 7 0;
#X connect 43 1 8 0;
#X connect 43 2 9 0;
#X connect 43 3 10 0;
#X connect 43 4 44 0;
#X connect 44 0 40 0;
#X coords 0 -1 1 1 100 50 1 100 100;
#X restore 916 184 pd drummer_sel;
#N canvas 43 97 1082 681 controller_pm2 0;
#X obj 36 467 list trim;
#X obj 36 443 list prepend send;
#X obj 36 419 list prepend control;
#X obj 37 368 list prepend calib;
#X obj 187 466 list trim;
#X obj 187 442 list prepend send;
#X obj 187 418 list prepend control;
#X obj 342 466 list trim;
#X obj 342 442 list prepend send;
#X obj 342 418 list prepend control;
#X obj 495 466 list trim;
#X obj 495 442 list prepend send;
#X obj 495 418 list prepend control;
#X obj 188 367 list prepend face_C;
#X obj 343 367 list prepend ml_mode;
#X obj 496 367 list prepend target;
#X obj 648 465 list trim;
#X obj 648 441 list prepend send;
#X obj 648 417 list prepend control;
#X obj 649 366 list prepend doTrain;
#X obj 801 465 list trim;
#X obj 801 441 list prepend send;
#X obj 801 417 list prepend control;
#X obj 802 366 list prepend annMessage;
#X obj 364 583 s sendZMQ;
#X obj 108 123 tgl 19 0 empty empty empty 0 -10 0 12 #fcfcfc #000000 #000000 0 1;
#X text 133 124 pants calibration;
#X obj 108 147 tgl 19 0 empty empty empty 0 -10 0 12 #fcfcfc #000000 #000000 0 1;
#X text 133 149 face calibration;
#X obj 108 171 tgl 19 0 empty empty empty 0 -10 0 12 #fcfcfc #000000 #000000 0 1;
#X obj 108 195 tgl 19 0 empty empty empty 0 -10 0 12 #fcfcfc #000000 #000000 0 1;
#X text 135 196 ML: training data;
#X obj 111 220 hsl 150 19 0 1 0 0 empty empty empty -2 -10 0 12 #fcfcfc #000000 #000000 0 1;
#X text 135 172 ML: map0|train1;
#X msg 802 315 train;
#X msg 851 315 clear;
#X msg 897 314 read;
#X msg 936 314 write;
#X obj 110 246 bng 19 250 50 0 empty empty empty 0 -10 0 12 #fcfcfc #000000 #000000;
#X obj 192 246 bng 19 250 50 0 empty empty empty 0 -10 0 12 #fcfcfc #000000 #000000;
#X obj 110 268 bng 19 250 50 0 empty empty empty 0 -10 0 12 #fcfcfc #000000 #000000;
#X obj 192 268 bng 19 250 50 0 empty empty empty 0 -10 0 12 #fcfcfc #000000 #000000;
#X text 132 247 train;
#X text 213 247 clear;
#X text 131 268 read;
#X text 215 267 write;
#X obj 36 394 list prepend pm2;
#X obj 187 393 list prepend pm2;
#X obj 342 393 list prepend pm2;
#X obj 495 393 list prepend pm2;
#X obj 648 392 list prepend pm2;
#X obj 801 392 list prepend pm2;
#X connect 0 0 24 0;
#X connect 1 0 0 0;
#X connect 2 0 1 0;
#X connect 3 0 46 0;
#X connect 4 0 24 0;
#X connect 5 0 4 0;
#X connect 6 0 5 0;
#X connect 7 0 24 0;
#X connect 8 0 7 0;
#X connect 9 0 8 0;
#X connect 10 0 24 0;
#X connect 11 0 10 0;
#X connect 12 0 11 0;
#X connect 13 0 47 0;
#X connect 14 0 48 0;
#X connect 15 0 49 0;
#X connect 16 0 24 0;
#X connect 17 0 16 0;
#X connect 18 0 17 0;
#X connect 19 0 50 0;
#X connect 20 0 24 0;
#X connect 21 0 20 0;
#X connect 22 0 21 0;
#X connect 23 0 51 0;
#X connect 25 0 3 0;
#X connect 27 0 13 0;
#X connect 29 0 14 0;
#X connect 30 0 19 0;
#X connect 32 0 15 0;
#X connect 34 0 23 0;
#X connect 35 0 23 0;
#X connect 36 0 23 0;
#X connect 37 0 23 0;
#X connect 38 0 34 0;
#X connect 39 0 35 0;
#X connect 40 0 36 0;
#X connect 41 0 37 0;
#X connect 46 0 2 0;
#X connect 47 0 6 0;
#X connect 48 0 9 0;
#X connect 49 0 12 0;
#X connect 50 0 18 0;
#X connect 51 0 22 0;
#X coords 0 -1 1 1 190 190 1 100 100;
#X restore 217 460 pd controller_pm2;
#N canvas 43 97 1082 681 controller_pm3 0;
#X obj 36 467 list trim;
#X obj 36 443 list prepend send;
#X obj 36 419 list prepend control;
#X obj 37 368 list prepend calib;
#X obj 187 466 list trim;
#X obj 187 442 list prepend send;
#X obj 187 418 list prepend control;
#X obj 342 466 list trim;
#X obj 342 442 list prepend send;
#X obj 342 418 list prepend control;
#X obj 495 466 list trim;
#X obj 495 442 list prepend send;
#X obj 495 418 list prepend control;
#X obj 188 367 list prepend face_C;
#X obj 343 367 list prepend ml_mode;
#X obj 496 367 list prepend target;
#X obj 648 465 list trim;
#X obj 648 441 list prepend send;
#X obj 648 417 list prepend control;
#X obj 649 366 list prepend doTrain;
#X obj 801 465 list trim;
#X obj 801 441 list prepend send;
#X obj 801 417 list prepend control;
#X obj 802 366 list prepend annMessage;
#X obj 364 583 s sendZMQ;
#X obj 108 123 tgl 19 0 empty empty empty 0 -10 0 12 #fcfcfc #000000 #000000 0 1;
#X text 133 124 pants calibration;
#X obj 108 147 tgl 19 0 empty empty empty 0 -10 0 12 #fcfcfc #000000 #000000 0 1;
#X text 133 149 face calibration;
#X obj 108 171 tgl 19 0 empty empty empty 0 -10 0 12 #fcfcfc #000000 #000000 0 1;
#X obj 108 195 tgl 19 0 empty empty empty 0 -10 0 12 #fcfcfc #000000 #000000 0 1;
#X text 135 196 ML: training data;
#X obj 111 220 hsl 150 19 0 1 0 0 empty empty empty -2 -10 0 12 #fcfcfc #000000 #000000 0 1;
#X text 135 172 ML: map0|train1;
#X msg 802 315 train;
#X msg 851 315 clear;
#X msg 897 314 read;
#X msg 936 314 write;
#X obj 110 246 bng 19 250 50 0 empty empty empty 0 -10 0 12 #fcfcfc #000000 #000000;
#X obj 192 246 bng 19 250 50 0 empty empty empty 0 -10 0 12 #fcfcfc #000000 #000000;
#X obj 110 268 bng 19 250 50 0 empty empty empty 0 -10 0 12 #fcfcfc #000000 #000000;
#X obj 192 268 bng 19 250 50 0 empty empty empty 0 -10 0 12 #fcfcfc #000000 #000000;
#X text 132 247 train;
#X text 213 247 clear;
#X text 131 268 read;
#X text 215 267 write;
#X obj 801 392 list prepend pm3;
#X obj 648 392 list prepend pm3;
#X obj 495 393 list prepend pm3;
#X obj 342 393 list prepend pm3;
#X obj 187 393 list prepend pm3;
#X obj 36 394 list prepend pm3;
#X connect 0 0 24 0;
#X connect 1 0 0 0;
#X connect 2 0 1 0;
#X connect 3 0 51 0;
#X connect 4 0 24 0;
#X connect 5 0 4 0;
#X connect 6 0 5 0;
#X connect 7 0 24 0;
#X connect 8 0 7 0;
#X connect 9 0 8 0;
#X connect 10 0 24 0;
#X connect 11 0 10 0;
#X connect 12 0 11 0;
#X connect 13 0 50 0;
#X connect 14 0 49 0;
#X connect 15 0 48 0;
#X connect 16 0 24 0;
#X connect 17 0 16 0;
#X connect 18 0 17 0;
#X connect 19 0 47 0;
#X connect 20 0 24 0;
#X connect 21 0 20 0;
#X connect 22 0 21 0;
#X connect 23 0 46 0;
#X connect 25 0 3 0;
#X connect 27 0 13 0;
#X connect 29 0 14 0;
#X connect 30 0 19 0;
#X connect 32 0 15 0;
#X connect 34 0 23 0;
#X connect 35 0 23 0;
#X connect 36 0 23 0;
#X connect 37 0 23 0;
#X connect 38 0 34 0;
#X connect 39 0 35 0;
#X connect 40 0 36 0;
#X connect 41 0 37 0;
#X connect 46 0 22 0;
#X connect 47 0 18 0;
#X connect 48 0 12 0;
#X connect 49 0 9 0;
#X connect 50 0 6 0;
#X connect 51 0 2 0;
#X coords 0 -1 1 1 190 190 1 100 100;
#X restore 425 461 pd controller_pm3;
#N canvas 43 97 1082 681 controller_pm1 0;
#X obj 36 467 list trim;
#X obj 36 443 list prepend send;
#X obj 36 419 list prepend control;
#X obj 36 394 list prepend pm1;
#X obj 37 368 list prepend calib;
#X obj 187 466 list trim;
#X obj 187 442 list prepend send;
#X obj 187 418 list prepend control;
#X obj 187 393 list prepend pm1;
#X obj 342 466 list trim;
#X obj 342 442 list prepend send;
#X obj 342 418 list prepend control;
#X obj 342 393 list prepend pm1;
#X obj 495 466 list trim;
#X obj 495 442 list prepend send;
#X obj 495 418 list prepend control;
#X obj 495 393 list prepend pm1;
#X obj 188 367 list prepend face_C;
#X obj 343 367 list prepend ml_mode;
#X obj 496 367 list prepend target;
#X obj 648 465 list trim;
#X obj 648 441 list prepend send;
#X obj 648 417 list prepend control;
#X obj 648 392 list prepend pm1;
#X obj 649 366 list prepend doTrain;
#X obj 801 465 list trim;
#X obj 801 441 list prepend send;
#X obj 801 417 list prepend control;
#X obj 801 392 list prepend pm1;
#X obj 802 366 list prepend annMessage;
#X obj 364 583 s sendZMQ;
#X obj 108 123 tgl 19 0 empty empty empty 0 -10 0 12 #fcfcfc #000000 #000000 0 1;
#X text 133 124 pants calibration;
#X obj 108 147 tgl 19 0 empty empty empty 0 -10 0 12 #fcfcfc #000000 #000000 0 1;
#X text 133 149 face calibration;
#X obj 108 171 tgl 19 0 empty empty empty 0 -10 0 12 #fcfcfc #000000 #000000 0 1;
#X obj 108 195 tgl 19 0 empty empty empty 0 -10 0 12 #fcfcfc #000000 #000000 0 1;
#X text 135 196 ML: training data;
#X obj 111 220 hsl 150 19 0 1 0 0 empty empty empty -2 -10 0 12 #fcfcfc #000000 #000000 0 1;
#X text 135 172 ML: map0|train1;
#X msg 802 315 train;
#X msg 851 315 clear;
#X msg 897 314 read;
#X msg 936 314 write;
#X obj 110 246 bng 19 250 50 0 empty empty empty 0 -10 0 12 #fcfcfc #000000 #000000;
#X obj 192 246 bng 19 250 50 0 empty empty empty 0 -10 0 12 #fcfcfc #000000 #000000;
#X obj 110 268 bng 19 250 50 0 empty empty empty 0 -10 0 12 #fcfcfc #000000 #000000;
#X obj 192 268 bng 19 250 50 0 empty empty empty 0 -10 0 12 #fcfcfc #000000 #000000;
#X text 132 247 train;
#X text 213 247 clear;
#X text 131 268 read;
#X text 215 267 write;
#X connect 0 0 30 0;
#X connect 1 0 0 0;
#X connect 2 0 1 0;
#X connect 3 0 2 0;
#X connect 4 0 3 0;
#X connect 5 0 30 0;
#X connect 6 0 5 0;
#X connect 7 0 6 0;
#X connect 8 0 7 0;
#X connect 9 0 30 0;
#X connect 10 0 9 0;
#X connect 11 0 10 0;
#X connect 12 0 11 0;
#X connect 13 0 30 0;
#X connect 14 0 13 0;
#X connect 15 0 14 0;
#X connect 16 0 15 0;
#X connect 17 0 8 0;
#X connect 18 0 12 0;
#X connect 19 0 16 0;
#X connect 20 0 30 0;
#X connect 21 0 20 0;
#X connect 22 0 21 0;
#X connect 23 0 22 0;
#X connect 24 0 23 0;
#X connect 25 0 30 0;
#X connect 26 0 25 0;
#X connect 27 0 26 0;
#X connect 28 0 27 0;
#X connect 29 0 28 0;
#X connect 31 0 4 0;
#X connect 33 0 17 0;
#X connect 35 0 18 0;
#X connect 36 0 24 0;
#X connect 38 0 19 0;
#X connect 40 0 29 0;
#X connect 41 0 29 0;
#X connect 42 0 29 0;
#X connect 43 0 29 0;
#X connect 44 0 40 0;
#X connect 45 0 41 0;
#X connect 46 0 42 0;
#X connect 47 0 43 0;
#X coords 0 -1 1 1 190 190 1 100 100;
#X restore 13 458 pd controller_pm1;
#N canvas 110 143 553 510 panel_pm1 0;
#X obj 109 122 hsl 128 15 0 1 0 0 empty empty empty -2 -8 0 10 #fcfcfc #000000 #000000 0 1;
#X obj 109 141 hsl 128 15 0 1 0 0 empty empty empty -2 -8 0 10 #fcfcfc #000000 #000000 0 1;
#X obj 109 160 hsl 128 15 0 1 0 0 empty empty empty -2 -8 0 10 #fcfcfc #000000 #000000 0 1;
#X obj 109 179 hsl 128 15 0 1 0 0 empty empty empty -2 -8 0 10 #fcfcfc #000000 #000000 0 1;
#X obj 109 198 hsl 128 15 0 1 0 0 empty empty empty -2 -8 0 10 #fcfcfc #000000 #000000 0 1;
#X obj 109 217 hsl 128 15 0 1 0 0 empty empty empty -2 -8 0 10 #fcfcfc #000000 #000000 0 1;
#X text 244 216 L_feet;
#X text 244 119 R_feet;
#X text 245 196 L_knee;
#X text 244 139 R_knee;
#X text 246 177 L_upper;
#X text 245 158 R_upper;
#X obj 104 76 unpack 0 0 0 0 0 0 0 0;
#X obj 104 9 inlet;
#X obj 109 237 hsl 128 15 0 1 0 0 empty empty empty -2 -8 0 10 #fcfcfc #000000 #000000 0 1;
#X obj 109 257 hsl 128 15 0 1 0 0 empty empty empty -2 -8 0 10 #fcfcfc #000000 #000000 0 1;
#X text 245 236 face1;
#X text 244 256 face2;
#X obj 279 11 inlet;
#X obj 109 282 hsl 128 15 0 1 0 0 empty empty empty -2 -8 0 10 #fcfcfc #000000 #000000 0 1;
#X text 244 281 ml;
#X obj 283 102 tgl 14 0 empty empty empty 0 -10 0 12 #fcfcfc #000000 #000000 0 1;
#X obj 104 43 spigot;
#X obj 292 354 outlet;
#X connect 12 0 0 0;
#X connect 12 1 1 0;
#X connect 12 2 2 0;
#X connect 12 3 3 0;
#X connect 12 4 4 0;
#X connect 12 5 5 0;
#X connect 12 6 14 0;
#X connect 12 6 23 0;
#X connect 12 7 15 0;
#X connect 13 0 22 0;
#X connect 18 0 19 0;
#X connect 21 0 22 1;
#X connect 22 0 12 0;
#X coords 0 -1 1 1 200 200 1 100 100;
#X restore 10 249 pd panel_pm1;
#N canvas 110 143 553 510 panel_pm2 0;
#X obj 109 122 hsl 128 15 0 1 0 0 empty empty empty -2 -8 0 10 #fcfcfc #000000 #000000 0 1;
#X obj 109 141 hsl 128 15 0 1 0 0 empty empty empty -2 -8 0 10 #fcfcfc #000000 #000000 0 1;
#X obj 109 160 hsl 128 15 0 1 0 0 empty empty empty -2 -8 0 10 #fcfcfc #000000 #000000 0 1;
#X obj 109 179 hsl 128 15 0 1 0 0 empty empty empty -2 -8 0 10 #fcfcfc #000000 #000000 0 1;
#X obj 109 198 hsl 128 15 0 1 0 0 empty empty empty -2 -8 0 10 #fcfcfc #000000 #000000 0 1;
#X obj 109 217 hsl 128 15 0 1 0 0 empty empty empty -2 -8 0 10 #fcfcfc #000000 #000000 0 1;
#X text 244 216 L_feet;
#X text 244 119 R_feet;
#X text 245 196 L_knee;
#X text 244 139 R_knee;
#X text 246 177 L_upper;
#X text 245 158 R_upper;
#X obj 104 76 unpack 0 0 0 0 0 0 0 0;
#X obj 104 9 inlet;
#X obj 109 237 hsl 128 15 0 1 0 0 empty empty empty -2 -8 0 10 #fcfcfc #000000 #000000 0 1;
#X obj 109 257 hsl 128 15 0 1 0 0 empty empty empty -2 -8 0 10 #fcfcfc #000000 #000000 0 1;
#X text 245 236 face1;
#X text 244 256 face2;
#X obj 279 11 inlet;
#X obj 109 282 hsl 128 15 0 1 0 0 empty empty empty -2 -8 0 10 #fcfcfc #000000 #000000 0 1;
#X text 244 281 ml;
#X obj 134 53 spigot;
#X obj 281 103 tgl 14 0 empty empty empty 0 -10 0 12 #fcfcfc #000000 #000000 0 1;
#X connect 12 0 0 0;
#X connect 12 1 1 0;
#X connect 12 2 2 0;
#X connect 12 3 3 0;
#X connect 12 4 4 0;
#X connect 12 5 5 0;
#X connect 12 6 14 0;
#X connect 12 7 15 0;
#X connect 13 0 21 0;
#X connect 18 0 19 0;
#X connect 21 0 12 0;
#X connect 22 0 21 1;
#X coords 0 -1 1 1 200 200 1 100 100;
#X restore 217 250 pd panel_pm2;
#N canvas 110 143 553 510 panel_pm3 0;
#X obj 109 122 hsl 128 15 0 1 0 0 empty empty empty -2 -8 0 10 #fcfcfc #000000 #000000 0 1;
#X obj 109 141 hsl 128 15 0 1 0 0 empty empty empty -2 -8 0 10 #fcfcfc #000000 #000000 0 1;
#X obj 109 160 hsl 128 15 0 1 0 0 empty empty empty -2 -8 0 10 #fcfcfc #000000 #000000 0 1;
#X obj 109 179 hsl 128 15 0 1 0 0 empty empty empty -2 -8 0 10 #fcfcfc #000000 #000000 0 1;
#X obj 109 198 hsl 128 15 0 1 0 0 empty empty empty -2 -8 0 10 #fcfcfc #000000 #000000 0 1;
#X obj 109 217 hsl 128 15 0 1 0 0 empty empty empty -2 -8 0 10 #fcfcfc #000000 #000000 0 1;
#X text 244 216 L_feet;
#X text 244 119 R_feet;
#X text 245 196 L_knee;
#X text 244 139 R_knee;
#X text 246 177 L_upper;
#X text 245 158 R_upper;
#X obj 104 76 unpack 0 0 0 0 0 0 0 0;
#X obj 104 9 inlet;
#X obj 109 237 hsl 128 15 0 1 0 0 empty empty empty -2 -8 0 10 #fcfcfc #000000 #000000 0 1;
#X obj 109 257 hsl 128 15 0 1 0 0 empty empty empty -2 -8 0 10 #fcfcfc #000000 #000000 0 1;
#X text 245 236 face1;
#X text 244 256 face2;
#X obj 279 11 inlet;
#X obj 109 282 hsl 128 15 0 1 0 0 empty empty empty -2 -8 0 10 #fcfcfc #000000 #000000 0 1;
#X text 244 281 ml;
#X obj 283 103 tgl 14 0 empty empty empty 0 -10 0 12 #fcfcfc #000000 #000000 0 1;
#X obj 104 43 spigot;
#X connect 12 0 0 0;
#X connect 12 1 1 0;
#X connect 12 2 2 0;
#X connect 12 3 3 0;
#X connect 12 4 4 0;
#X connect 12 5 5 0;
#X connect 12 6 14 0;
#X connect 12 7 15 0;
#X connect 13 0 22 0;
#X connect 18 0 19 0;
#X connect 21 0 22 1;
#X connect 22 0 12 0;
#X coords 0 -1 1 1 200 200 1 100 100;
#X restore 426 249 pd panel_pm3;
#N canvas 110 143 553 510 panel_pm4 0;
#X obj 109 122 hsl 128 15 0 1 0 0 empty empty empty -2 -8 0 10 #fcfcfc #000000 #000000 0 1;
#X obj 109 141 hsl 128 15 0 1 0 0 empty empty empty -2 -8 0 10 #fcfcfc #000000 #000000 0 1;
#X obj 109 160 hsl 128 15 0 1 0 0 empty empty empty -2 -8 0 10 #fcfcfc #000000 #000000 0 1;
#X obj 109 179 hsl 128 15 0 1 0 0 empty empty empty -2 -8 0 10 #fcfcfc #000000 #000000 0 1;
#X obj 109 198 hsl 128 15 0 1 0 0 empty empty empty -2 -8 0 10 #fcfcfc #000000 #000000 0 1;
#X obj 109 217 hsl 128 15 0 1 0 0 empty empty empty -2 -8 0 10 #fcfcfc #000000 #000000 0 1;
#X text 244 216 L_feet;
#X text 244 119 R_feet;
#X text 245 196 L_knee;
#X text 244 139 R_knee;
#X text 246 177 L_upper;
#X text 245 158 R_upper;
#X obj 104 76 unpack 0 0 0 0 0 0 0 0;
#X obj 104 9 inlet;
#X obj 109 237 hsl 128 15 0 1 0 0 empty empty empty -2 -8 0 10 #fcfcfc #000000 #000000 0 1;
#X obj 109 257 hsl 128 15 0 1 0 0 empty empty empty -2 -8 0 10 #fcfcfc #000000 #000000 0 1;
#X text 245 236 face1;
#X text 244 256 face2;
#X obj 279 11 inlet;
#X obj 109 282 hsl 128 15 0 1 0 0 empty empty empty -2 -8 0 10 #fcfcfc #000000 #000000 0 1;
#X text 244 281 ml;
#X obj 283 102 tgl 14 0 empty empty empty 0 -10 0 12 #fcfcfc #000000 #000000 0 1;
#X obj 104 43 spigot;
#X connect 12 0 0 0;
#X connect 12 1 1 0;
#X connect 12 2 2 0;
#X connect 12 3 3 0;
#X connect 12 4 4 0;
#X connect 12 5 5 0;
#X connect 12 6 14 0;
#X connect 12 7 15 0;
#X connect 13 0 22 0;
#X connect 18 0 19 0;
#X connect 21 0 22 1;
#X connect 22 0 12 0;
#X coords 0 -1 1 1 200 200 1 100 100;
#X restore 633 249 pd panel_pm4;
#N canvas 43 97 1082 681 controller_pm4 0;
#X obj 36 467 list trim;
#X obj 36 443 list prepend send;
#X obj 36 419 list prepend control;
#X obj 37 368 list prepend calib;
#X obj 187 466 list trim;
#X obj 187 442 list prepend send;
#X obj 187 418 list prepend control;
#X obj 342 466 list trim;
#X obj 342 442 list prepend send;
#X obj 342 418 list prepend control;
#X obj 495 466 list trim;
#X obj 495 442 list prepend send;
#X obj 495 418 list prepend control;
#X obj 188 367 list prepend face_C;
#X obj 343 367 list prepend ml_mode;
#X obj 496 367 list prepend target;
#X obj 648 465 list trim;
#X obj 648 441 list prepend send;
#X obj 648 417 list prepend control;
#X obj 649 366 list prepend doTrain;
#X obj 801 465 list trim;
#X obj 801 441 list prepend send;
#X obj 801 417 list prepend control;
#X obj 802 366 list prepend annMessage;
#X obj 364 583 s sendZMQ;
#X obj 108 123 tgl 19 0 empty empty empty 0 -10 0 12 #fcfcfc #000000 #000000 0 1;
#X text 133 124 pants calibration;
#X obj 108 147 tgl 19 0 empty empty empty 0 -10 0 12 #fcfcfc #000000 #000000 0 1;
#X text 133 149 face calibration;
#X obj 108 171 tgl 19 0 empty empty empty 0 -10 0 12 #fcfcfc #000000 #000000 0 1;
#X obj 108 195 tgl 19 0 empty empty empty 0 -10 0 12 #fcfcfc #000000 #000000 0 1;
#X text 135 196 ML: training data;
#X obj 111 220 hsl 150 19 0 1 0 0 empty empty empty -2 -10 0 12 #fcfcfc #000000 #000000 0 1;
#X text 135 172 ML: map0|train1;
#X msg 802 315 train;
#X msg 851 315 clear;
#X msg 897 314 read;
#X msg 936 314 write;
#X obj 110 246 bng 19 250 50 0 empty empty empty 0 -10 0 12 #fcfcfc #000000 #000000;
#X obj 192 246 bng 19 250 50 0 empty empty empty 0 -10 0 12 #fcfcfc #000000 #000000;
#X obj 110 268 bng 19 250 50 0 empty empty empty 0 -10 0 12 #fcfcfc #000000 #000000;
#X obj 192 268 bng 19 250 50 0 empty empty empty 0 -10 0 12 #fcfcfc #000000 #000000;
#X text 132 247 train;
#X text 213 247 clear;
#X text 131 268 read;
#X text 215 267 write;
#X obj 801 392 list prepend pm4;
#X obj 648 392 list prepend pm4;
#X obj 495 393 list prepend pm4;
#X obj 342 393 list prepend pm4;
#X obj 187 393 list prepend pm4;
#X obj 36 394 list prepend pm4;
#X connect 0 0 24 0;
#X connect 1 0 0 0;
#X connect 2 0 1 0;
#X connect 3 0 51 0;
#X connect 4 0 24 0;
#X connect 5 0 4 0;
#X connect 6 0 5 0;
#X connect 7 0 24 0;
#X connect 8 0 7 0;
#X connect 9 0 8 0;
#X connect 10 0 24 0;
#X connect 11 0 10 0;
#X connect 12 0 11 0;
#X connect 13 0 50 0;
#X connect 14 0 49 0;
#X connect 15 0 48 0;
#X connect 16 0 24 0;
#X connect 17 0 16 0;
#X connect 18 0 17 0;
#X connect 19 0 47 0;
#X connect 20 0 24 0;
#X connect 21 0 20 0;
#X connect 22 0 21 0;
#X connect 23 0 46 0;
#X connect 25 0 3 0;
#X connect 27 0 13 0;
#X connect 29 0 14 0;
#X connect 30 0 19 0;
#X connect 32 0 15 0;
#X connect 34 0 23 0;
#X connect 35 0 23 0;
#X connect 36 0 23 0;
#X connect 37 0 23 0;
#X connect 38 0 34 0;
#X connect 39 0 35 0;
#X connect 40 0 36 0;
#X connect 41 0 37 0;
#X connect 46 0 22 0;
#X connect 47 0 18 0;
#X connect 48 0 12 0;
#X connect 49 0 9 0;
#X connect 50 0 6 0;
#X connect 51 0 2 0;
#X coords 0 -1 1 1 190 190 1 100 100;
#X restore 633 461 pd controller_pm4;
#X msg 273 110 close;
#N canvas 110 143 553 510 panel_pm5 0;
#X obj 109 122 hsl 128 15 0 1 0 0 empty empty empty -2 -8 0 10 #fcfcfc #000000 #000000 0 1;
#X obj 109 141 hsl 128 15 0 1 0 0 empty empty empty -2 -8 0 10 #fcfcfc #000000 #000000 0 1;
#X obj 109 160 hsl 128 15 0 1 0 0 empty empty empty -2 -8 0 10 #fcfcfc #000000 #000000 0 1;
#X obj 109 179 hsl 128 15 0 1 0 0 empty empty empty -2 -8 0 10 #fcfcfc #000000 #000000 0 1;
#X obj 109 198 hsl 128 15 0 1 0 0 empty empty empty -2 -8 0 10 #fcfcfc #000000 #000000 0 1;
#X obj 109 217 hsl 128 15 0 1 0 0 empty empty empty -2 -8 0 10 #fcfcfc #000000 #000000 0 1;
#X text 244 216 L_feet;
#X text 244 119 R_feet;
#X text 245 196 L_knee;
#X text 244 139 R_knee;
#X text 246 177 L_upper;
#X text 245 158 R_upper;
#X obj 104 76 unpack 0 0 0 0 0 0 0 0;
#X obj 104 9 inlet;
#X obj 109 237 hsl 128 15 0 1 0 0 empty empty empty -2 -8 0 10 #fcfcfc #000000 #000000 0 1;
#X obj 109 257 hsl 128 15 0 1 0 0 empty empty empty -2 -8 0 10 #fcfcfc #000000 #000000 0 1;
#X text 245 236 face1;
#X text 244 256 face2;
#X obj 279 11 inlet;
#X obj 109 282 hsl 128 15 0 1 0 0 empty empty empty -2 -8 0 10 #fcfcfc #000000 #000000 0 1;
#X text 244 281 ml;
#X obj 283 102 tgl 14 0 empty empty empty 0 -10 0 12 #fcfcfc #000000 #000000 0 1;
#X obj 104 43 spigot;
#X connect 12 0 0 0;
#X connect 12 1 1 0;
#X connect 12 2 2 0;
#X connect 12 3 3 0;
#X connect 12 4 4 0;
#X connect 12 5 5 0;
#X connect 12 6 14 0;
#X connect 12 7 15 0;
#X connect 13 0 22 0;
#X connect 18 0 19 0;
#X connect 21 0 22 1;
#X connect 22 0 12 0;
#X coords 0 -1 1 1 200 200 1 100 100;
#X restore 839 250 pd panel_pm5;
#N canvas 43 97 1082 681 controller_pm5 0;
#X obj 36 467 list trim;
#X obj 36 443 list prepend send;
#X obj 36 419 list prepend control;
#X obj 37 368 list prepend calib;
#X obj 187 466 list trim;
#X obj 187 442 list prepend send;
#X obj 187 418 list prepend control;
#X obj 342 466 list trim;
#X obj 342 442 list prepend send;
#X obj 342 418 list prepend control;
#X obj 495 466 list trim;
#X obj 495 442 list prepend send;
#X obj 495 418 list prepend control;
#X obj 188 367 list prepend face_C;
#X obj 343 367 list prepend ml_mode;
#X obj 496 367 list prepend target;
#X obj 648 465 list trim;
#X obj 648 441 list prepend send;
#X obj 648 417 list prepend control;
#X obj 649 366 list prepend doTrain;
#X obj 801 465 list trim;
#X obj 801 441 list prepend send;
#X obj 801 417 list prepend control;
#X obj 802 366 list prepend annMessage;
#X obj 364 583 s sendZMQ;
#X obj 108 123 tgl 19 0 empty empty empty 0 -10 0 12 #fcfcfc #000000 #000000 0 1;
#X text 133 124 pants calibration;
#X obj 108 147 tgl 19 0 empty empty empty 0 -10 0 12 #fcfcfc #000000 #000000 0 1;
#X text 133 149 face calibration;
#X obj 108 171 tgl 19 0 empty empty empty 0 -10 0 12 #fcfcfc #000000 #000000 0 1;
#X obj 108 195 tgl 19 0 empty empty empty 0 -10 0 12 #fcfcfc #000000 #000000 0 1;
#X text 135 196 ML: training data;
#X obj 111 220 hsl 150 19 0 1 0 0 empty empty empty -2 -10 0 12 #fcfcfc #000000 #000000 0 1;
#X text 135 172 ML: map0|train1;
#X msg 802 315 train;
#X msg 851 315 clear;
#X msg 897 314 read;
#X msg 936 314 write;
#X obj 110 246 bng 19 250 50 0 empty empty empty 0 -10 0 12 #fcfcfc #000000 #000000;
#X obj 192 246 bng 19 250 50 0 empty empty empty 0 -10 0 12 #fcfcfc #000000 #000000;
#X obj 110 268 bng 19 250 50 0 empty empty empty 0 -10 0 12 #fcfcfc #000000 #000000;
#X obj 192 268 bng 19 250 50 0 empty empty empty 0 -10 0 12 #fcfcfc #000000 #000000;
#X text 132 247 train;
#X text 213 247 clear;
#X text 131 268 read;
#X text 215 267 write;
#X obj 36 394 list prepend pm5;
#X obj 187 393 list prepend pm5;
#X obj 342 393 list prepend pm5;
#X obj 495 393 list prepend pm5;
#X obj 648 392 list prepend pm5;
#X obj 801 392 list prepend pm5;
#X connect 0 0 24 0;
#X connect 1 0 0 0;
#X connect 2 0 1 0;
#X connect 3 0 46 0;
#X connect 4 0 24 0;
#X connect 5 0 4 0;
#X connect 6 0 5 0;
#X connect 7 0 24 0;
#X connect 8 0 7 0;
#X connect 9 0 8 0;
#X connect 10 0 24 0;
#X connect 11 0 10 0;
#X connect 12 0 11 0;
#X connect 13 0 47 0;
#X connect 14 0 48 0;
#X connect 15 0 49 0;
#X connect 16 0 24 0;
#X connect 17 0 16 0;
#X connect 18 0 17 0;
#X connect 19 0 50 0;
#X connect 20 0 24 0;
#X connect 21 0 20 0;
#X connect 22 0 21 0;
#X connect 23 0 51 0;
#X connect 25 0 3 0;
#X connect 27 0 13 0;
#X connect 29 0 14 0;
#X connect 30 0 19 0;
#X connect 32 0 15 0;
#X connect 34 0 23 0;
#X connect 35 0 23 0;
#X connect 36 0 23 0;
#X connect 37 0 23 0;
#X connect 38 0 34 0;
#X connect 39 0 35 0;
#X connect 40 0 36 0;
#X connect 41 0 37 0;
#X connect 46 0 2 0;
#X connect 47 0 6 0;
#X connect 48 0 9 0;
#X connect 49 0 12 0;
#X connect 50 0 18 0;
#X connect 51 0 22 0;
#X coords 0 -1 1 1 190 190 1 100 100;
#X restore 839 462 pd controller_pm5;
#X obj 8 189 route pm1 pm2 pm3 pm4 pm5;
#X obj 196 188 route pm1 pm2 pm3 pm4 pm5;
#X obj 716 101 readsf~;
#X msg 742 74 1;
#X obj 739 45 t b b;
#X obj 715 8 bng 19 250 50 0 empty empty empty 0 -10 0 12 #fcfcfc #000000 #000000;
#X obj 733 155 dac~;
#X msg 777 71 open au.wav;
#X obj 898 76 > 0.4;
#X obj 898 103 change;
#X obj 895 126 sel 1;
#X connect 0 0 3 0;
#X connect 1 0 4 0;
#X connect 1 0 14 0;
#X connect 1 1 12 0;
#X connect 1 2 0 0;
#X connect 2 0 1 0;
#X connect 3 0 15 0;
#X connect 4 0 3 0;
#X connect 5 0 1 0;
#X connect 6 0 9 0;
#X connect 7 0 13 0;
#X connect 7 1 6 0;
#X connect 8 0 7 0;
#X connect 10 0 9 0;
#X connect 11 0 7 0;
#X connect 12 0 3 0;
#X connect 13 0 9 0;
#X connect 14 0 3 0;
#X connect 15 0 28 0;
#X connect 15 1 29 0;
#X connect 20 0 36 0;
#X connect 25 0 3 0;
#X connect 25 0 9 0;
#X connect 28 0 20 0;
#X connect 28 1 21 0;
#X connect 28 2 22 0;
#X connect 28 3 23 0;
#X connect 28 4 26 0;
#X connect 29 0 20 1;
#X connect 29 1 21 1;
#X connect 29 2 22 1;
#X connect 29 3 23 1;
#X connect 29 4 26 1;
#X connect 30 0 34 0;
#X connect 30 0 34 1;
#X connect 31 0 30 0;
#X connect 32 0 31 0;
#X connect 32 1 35 0;
#X connect 33 0 32 0;
#X connect 35 0 30 0;
#X connect 36 0 37 0;
#X connect 37 0 38 0;
#X connect 38 0 33 0;
