#N canvas 497 23 734 723 12;
#X msg 53 64 socket subscribe;
#X obj 7 38 t b b b;
#X obj 8 17 bng 15 250 50 0 empty empty empty 17 7 0 10 -262144 -1
-1;
#X obj 8 137 zmq;
#X msg 9 110 subscribe sensors;
#X obj 35 11 loadbang;
#X obj 8 162 route sensors;
#X obj 9 188 route other;
#N canvas 389 23 891 651 sensor_panel 0;
#N canvas 236 23 1007 692 threshold 0;
#X obj 107 76 get_threshold;
#X obj 107 41 unpack 0 0 0 0 0 0 0 0 0 0 0 0 0 0, f 57;
#X obj 106 14 inlet;
#X obj 633 195 textfile;
#X obj 632 169 list trim;
#X obj 632 142 list prepend set;
#X obj 637 247 pack 0 0 0 0 0 0 0 0 0 0 0 0 0 0;
#X obj 633 91 pack 0 0 0 0 0 0 0 0 0 0 0 0 0 0;
#X obj 144 106 get_threshold;
#X obj 167 133 get_threshold;
#X obj 185 164 get_threshold;
#X obj 233 75 get_threshold;
#X obj 259 105 get_threshold;
#X obj 286 134 get_threshold;
#X obj 319 162 get_threshold;
#X obj 351 76 get_threshold;
#X obj 384 104 get_threshold;
#X obj 411 133 get_threshold;
#X obj 444 161 get_threshold;
#X obj 470 78 get_threshold;
#X obj 503 106 get_threshold;
#X text 871 249 max list;
#X obj 637 356 textfile;
#X obj 637 328 list trim;
#X obj 637 301 list prepend set;
#X obj 636 47 t a a a a a a a a a a a a a a;
#X obj 636 27 tgl 15 0 empty empty empty 17 7 0 10 -262144 -1 -1 0
1;
#X obj 898 151 change;
#X obj 898 174 sel 0;
#X obj 898 198 t b b;
#X obj 67 335 textfile;
#X obj 67 359 unpack 0 0 0 0 0 0 0 0 0 0 0 0 0 0;
#X msg 68 313 bang;
#X msg 114 316 clear;
#X msg 731 332 write sensormax.txt cr;
#X msg 718 174 write sensormin.txt cr;
#X msg 91 291 rewind;
#X obj 67 247 t b b b;
#X msg 114 270 read sensormin.txt cr;
#X obj 382 310 textfile;
#X obj 382 334 unpack 0 0 0 0 0 0 0 0 0 0 0 0 0 0;
#X msg 383 288 bang;
#X msg 429 291 clear;
#X msg 406 266 rewind;
#X obj 382 222 t b b b;
#X msg 426 245 read sensormax.txt cr;
#X text 870 89 min list;
#X obj 66 207 loadbang;
#X obj 134 207 bng 15 250 50 0 empty empty empty 17 7 0 10 -262144
-1 -1;
#X obj 633 119 list;
#X obj 637 273 list;
#X obj 234 655 pack 0 0 0 0 0 0 0 0 0 0 0 0 0 0;
#X obj 67 611 clip 0 1;
#X obj 101 636 clip 0 1;
#X obj 143 609 clip 0 1;
#X obj 177 634 clip 0 1;
#X obj 218 607 clip 0 1;
#X obj 264 626 clip 0 1;
#X obj 275 464 clip 0 1;
#X obj 356 624 clip 0 1;
#X obj 398 593 clip 0 1;
#X obj 422 558 clip 0 1;
#X obj 473 578 clip 0 1;
#X obj 533 606 clip 0 1;
#X obj 622 493 clip 0 1;
#X obj 662 561 clip 0 1;
#X obj 231 685 outlet;
#X obj 664 23 inlet;
#X obj 67 406 scale 0 1 0 100;
#X obj 86 431 scale 0 1 0 100;
#X obj 112 455 scale 0 1 0 100;
#X obj 139 484 scale 0 1 0 100;
#X obj 161 510 scale 0 1 0 100;
#X obj 214 528 scale 0 1 0 100;
#X obj 67 466 int;
#X obj 67 495 / 100;
#X obj 86 533 int;
#X obj 89 555 / 100;
#X obj 110 490 int;
#X obj 111 509 / 100;
#X obj 134 535 int;
#X obj 137 559 / 100;
#X obj 173 533 int;
#X obj 180 557 / 100;
#X obj 226 552 int;
#X obj 234 574 / 100;
#X obj 277 395 scale 0 1 0 100;
#X obj 333 424 scale 0 1 0 100;
#X obj 394 451 scale 0 1 0 100;
#X obj 438 474 scale 0 1 0 100;
#X obj 492 497 scale 0 1 0 100;
#X obj 545 527 scale 0 1 0 100;
#X obj 625 412 scale 0 1 0 100;
#X obj 668 449 scale 0 1 0 100;
#X obj 278 418 int;
#X obj 276 441 / 100;
#X obj 332 450 int;
#X obj 333 471 / 100;
#X obj 390 478 int;
#X obj 387 497 / 100;
#X obj 436 505 int;
#X obj 426 532 / 100;
#X obj 489 525 int;
#X obj 484 549 / 100;
#X obj 541 551 int;
#X obj 535 574 / 100;
#X obj 627 439 int;
#X obj 629 466 / 100;
#X obj 669 505 int;
#X obj 668 532 / 100;
#X connect 0 0 7 0;
#X connect 0 0 68 1;
#X connect 0 1 6 0;
#X connect 0 1 68 2;
#X connect 1 0 0 0;
#X connect 1 0 68 0;
#X connect 1 1 8 0;
#X connect 1 1 69 0;
#X connect 1 2 9 0;
#X connect 1 2 70 0;
#X connect 1 3 10 0;
#X connect 1 3 71 0;
#X connect 1 4 11 0;
#X connect 1 4 72 0;
#X connect 1 5 12 0;
#X connect 1 5 73 0;
#X connect 1 6 13 0;
#X connect 1 6 86 0;
#X connect 1 7 14 0;
#X connect 1 7 87 0;
#X connect 1 8 15 0;
#X connect 1 8 88 0;
#X connect 1 9 16 0;
#X connect 1 9 89 0;
#X connect 1 10 17 0;
#X connect 1 10 90 0;
#X connect 1 11 18 0;
#X connect 1 11 91 0;
#X connect 1 12 19 0;
#X connect 1 12 92 0;
#X connect 1 13 20 0;
#X connect 1 13 93 0;
#X connect 2 0 1 0;
#X connect 4 0 3 0;
#X connect 5 0 4 0;
#X connect 6 0 50 1;
#X connect 7 0 49 1;
#X connect 8 0 7 1;
#X connect 8 0 69 1;
#X connect 8 1 6 1;
#X connect 8 1 69 2;
#X connect 9 0 7 2;
#X connect 9 0 70 1;
#X connect 9 1 6 2;
#X connect 9 1 70 2;
#X connect 10 0 7 3;
#X connect 10 0 71 1;
#X connect 10 1 6 3;
#X connect 10 1 71 2;
#X connect 11 0 7 4;
#X connect 11 0 72 1;
#X connect 11 1 6 4;
#X connect 11 1 72 2;
#X connect 12 0 7 5;
#X connect 12 0 73 1;
#X connect 12 1 6 5;
#X connect 12 1 73 2;
#X connect 13 0 7 6;
#X connect 13 0 86 1;
#X connect 13 1 6 6;
#X connect 13 1 86 2;
#X connect 14 0 7 7;
#X connect 14 0 87 1;
#X connect 14 1 6 7;
#X connect 14 1 87 2;
#X connect 15 0 7 8;
#X connect 15 0 89 1;
#X connect 15 1 6 8;
#X connect 15 1 88 2;
#X connect 16 0 7 9;
#X connect 16 1 6 9;
#X connect 16 1 89 2;
#X connect 17 0 7 10;
#X connect 17 0 90 1;
#X connect 17 1 6 10;
#X connect 17 1 90 2;
#X connect 18 0 7 11;
#X connect 18 0 91 1;
#X connect 18 1 6 11;
#X connect 18 1 91 2;
#X connect 19 0 7 12;
#X connect 19 0 92 1;
#X connect 19 1 6 12;
#X connect 19 1 92 2;
#X connect 20 0 7 13;
#X connect 20 0 93 1;
#X connect 20 1 6 13;
#X connect 20 1 93 2;
#X connect 23 0 22 0;
#X connect 24 0 23 0;
#X connect 25 0 0 1;
#X connect 25 1 8 1;
#X connect 25 2 9 1;
#X connect 25 3 10 1;
#X connect 25 4 11 1;
#X connect 25 5 12 1;
#X connect 25 6 13 1;
#X connect 25 7 14 1;
#X connect 25 8 15 1;
#X connect 25 9 16 1;
#X connect 25 10 17 1;
#X connect 25 11 18 1;
#X connect 25 12 19 1;
#X connect 25 13 20 1;
#X connect 26 0 25 0;
#X connect 26 0 27 0;
#X connect 27 0 28 0;
#X connect 28 0 29 0;
#X connect 29 0 34 0;
#X connect 29 0 35 0;
#X connect 29 1 49 0;
#X connect 29 1 50 0;
#X connect 30 0 31 0;
#X connect 31 0 68 1;
#X connect 31 1 69 1;
#X connect 31 2 70 1;
#X connect 31 3 71 1;
#X connect 31 4 72 1;
#X connect 31 5 73 1;
#X connect 31 6 86 1;
#X connect 31 7 87 1;
#X connect 31 8 88 1;
#X connect 31 9 89 1;
#X connect 31 10 90 1;
#X connect 31 11 91 1;
#X connect 31 12 92 1;
#X connect 31 13 93 1;
#X connect 32 0 30 0;
#X connect 33 0 30 0;
#X connect 34 0 22 0;
#X connect 35 0 3 0;
#X connect 36 0 30 0;
#X connect 37 0 32 0;
#X connect 37 1 36 0;
#X connect 37 2 38 0;
#X connect 38 0 30 0;
#X connect 39 0 40 0;
#X connect 40 0 68 2;
#X connect 40 1 69 2;
#X connect 40 2 70 2;
#X connect 40 3 71 2;
#X connect 40 4 72 2;
#X connect 40 5 73 2;
#X connect 40 6 86 2;
#X connect 40 7 87 2;
#X connect 40 8 88 2;
#X connect 40 9 89 2;
#X connect 40 10 90 2;
#X connect 40 11 91 2;
#X connect 40 12 92 2;
#X connect 40 13 93 2;
#X connect 41 0 39 0;
#X connect 42 0 39 0;
#X connect 43 0 39 0;
#X connect 44 0 41 0;
#X connect 44 1 43 0;
#X connect 44 2 45 0;
#X connect 45 0 39 0;
#X connect 47 0 37 0;
#X connect 47 0 44 0;
#X connect 48 0 37 0;
#X connect 48 0 44 0;
#X connect 49 0 5 0;
#X connect 49 0 31 0;
#X connect 50 0 24 0;
#X connect 50 0 40 0;
#X connect 51 0 66 0;
#X connect 52 0 51 0;
#X connect 53 0 51 1;
#X connect 54 0 51 2;
#X connect 55 0 51 3;
#X connect 56 0 51 4;
#X connect 57 0 51 5;
#X connect 58 0 51 6;
#X connect 59 0 51 7;
#X connect 60 0 51 8;
#X connect 61 0 51 9;
#X connect 62 0 51 10;
#X connect 63 0 51 11;
#X connect 64 0 51 12;
#X connect 65 0 51 13;
#X connect 67 0 26 0;
#X connect 68 0 74 0;
#X connect 69 0 76 0;
#X connect 70 0 78 0;
#X connect 71 0 80 0;
#X connect 72 0 82 0;
#X connect 73 0 84 0;
#X connect 74 0 75 0;
#X connect 75 0 52 0;
#X connect 76 0 77 0;
#X connect 77 0 53 0;
#X connect 78 0 79 0;
#X connect 79 0 54 0;
#X connect 80 0 81 0;
#X connect 81 0 55 0;
#X connect 82 0 83 0;
#X connect 83 0 56 0;
#X connect 84 0 85 0;
#X connect 85 0 57 0;
#X connect 86 0 94 0;
#X connect 87 0 96 0;
#X connect 88 0 98 0;
#X connect 89 0 100 0;
#X connect 90 0 102 0;
#X connect 91 0 104 0;
#X connect 92 0 106 0;
#X connect 93 0 108 0;
#X connect 94 0 95 0;
#X connect 95 0 58 0;
#X connect 96 0 97 0;
#X connect 97 0 59 0;
#X connect 98 0 99 0;
#X connect 99 0 60 0;
#X connect 100 0 101 0;
#X connect 101 0 61 0;
#X connect 102 0 103 0;
#X connect 103 0 62 0;
#X connect 104 0 105 0;
#X connect 105 0 63 0;
#X connect 106 0 107 0;
#X connect 107 0 64 0;
#X connect 108 0 109 0;
#X connect 109 0 65 0;
#X restore 105 45 pd threshold;
#X obj 108 124 hsl 128 15 0 1 0 0 empty empty empty -2 -8 0 10 -262144
-1 -1 0 1;
#X obj 108 143 hsl 128 15 0 1 0 0 empty empty empty -2 -8 0 10 -262144
-1 -1 0 1;
#X obj 108 162 hsl 128 15 0 1 0 0 empty empty empty -2 -8 0 10 -262144
-1 -1 0 1;
#X obj 108 181 hsl 128 15 0 1 0 0 empty empty empty -2 -8 0 10 -262144
-1 -1 0 1;
#X obj 108 200 hsl 128 15 0 1 0 0 empty empty empty -2 -8 0 10 -262144
-1 -1 0 1;
#X obj 108 219 hsl 128 15 0 1 0 0 empty empty empty -2 -8 0 10 -262144
-1 -1 0 1;
#X obj 307 105 hsl 128 15 0 1 0 0 empty empty empty -2 -8 0 10 -262144
-1 -1 0 1;
#X obj 307 124 hsl 128 15 0 1 0 0 empty empty empty -2 -8 0 10 -262144
-1 -1 0 1;
#X obj 104 76 unpack 0 0 0 0 0 0 0 0 0 0 0 0 0 0;
#X obj 307 145 hsl 128 15 0 1 0 0 empty empty empty -2 -8 0 10 -262144
-1 -1 0 1;
#X obj 307 164 hsl 128 15 0 1 0 0 empty empty empty -2 -8 0 10 -262144
-1 -1 0 1;
#X obj 307 183 hsl 128 15 0 1 0 0 empty empty empty -2 -8 0 10 -262144
-1 -1 0 1;
#X obj 307 202 hsl 128 15 0 1 0 0 empty empty empty -2 -8 0 10 -262144
-1 -1 0 1;
#X obj 307 221 hsl 128 15 0 1 0 0 empty empty empty -2 -8 0 10 -262144
-1 -1 0 1;
#X obj 307 240 hsl 128 15 0 1 0 0 empty empty empty -2 -8 0 10 -262144
-1 -1 0 1;
#X obj 185 19 tgl 15 0 empty empty empty 17 7 0 10 -262144 -1 -1 0
1;
#N canvas 0 23 905 549 smooth 0;
#X obj 37 21 inlet;
#X obj 37 50 unpack 0 0 0 0 0 0 0 0 0 0 0 0 0 0, f 94;
#X obj 37 111 line;
#X obj 39 156 pack 0 0 0 0 0 0 0 0 0 0 0 0 0 0, f 93;
#X obj 86 113 line;
#X obj 138 114 line;
#X obj 187 114 line;
#X obj 238 113 line;
#X obj 287 113 line;
#X obj 341 113 line;
#X obj 390 114 line;
#X obj 440 114 line;
#X obj 489 114 line;
#X obj 543 115 line;
#X obj 592 114 line;
#X obj 641 113 line;
#X obj 690 113 line;
#X obj 38 191 outlet;
#X msg 37 86 \$1 50;
#X msg 86 89 \$1 50;
#X msg 138 88 \$1 50;
#X msg 187 89 \$1 50;
#X msg 238 87 \$1 50;
#X msg 288 90 \$1 50;
#X msg 341 91 \$1 50;
#X msg 390 89 \$1 50;
#X msg 440 91 \$1 50;
#X msg 489 89 \$1 50;
#X msg 543 90 \$1 50;
#X msg 592 89 \$1 50;
#X msg 640 88 \$1 50;
#X msg 691 89 \$1 50;
#X connect 0 0 1 0;
#X connect 1 0 18 0;
#X connect 1 1 19 0;
#X connect 1 2 20 0;
#X connect 1 3 21 0;
#X connect 1 4 22 0;
#X connect 1 5 23 0;
#X connect 1 6 24 0;
#X connect 1 7 25 0;
#X connect 1 8 26 0;
#X connect 1 9 27 0;
#X connect 1 10 28 0;
#X connect 1 11 29 0;
#X connect 1 12 30 0;
#X connect 1 13 31 0;
#X connect 2 0 3 0;
#X connect 3 0 17 0;
#X connect 4 0 3 1;
#X connect 5 0 3 2;
#X connect 6 0 3 3;
#X connect 7 0 3 4;
#X connect 8 0 3 5;
#X connect 9 0 3 6;
#X connect 10 0 3 7;
#X connect 11 0 3 8;
#X connect 12 0 3 9;
#X connect 13 0 3 10;
#X connect 14 0 3 11;
#X connect 15 0 3 12;
#X connect 16 0 3 13;
#X connect 18 0 2 0;
#X connect 19 0 4 0;
#X connect 20 0 5 0;
#X connect 21 0 6 0;
#X connect 22 0 7 0;
#X connect 23 0 8 0;
#X connect 24 0 9 0;
#X connect 25 0 10 0;
#X connect 26 0 11 0;
#X connect 27 0 12 0;
#X connect 28 0 13 0;
#X connect 29 0 14 0;
#X connect 30 0 15 0;
#X connect 31 0 16 0;
#X restore 106 20 pd smooth;
#N canvas 236 23 1007 692 threshold 0;
#X obj 107 76 get_threshold;
#X obj 107 41 unpack 0 0 0 0 0 0 0 0 0 0 0 0 0 0, f 57;
#X obj 106 14 inlet;
#X obj 633 195 textfile;
#X obj 632 169 list trim;
#X obj 632 142 list prepend set;
#X obj 637 247 pack 0 0 0 0 0 0 0 0 0 0 0 0 0 0;
#X obj 633 91 pack 0 0 0 0 0 0 0 0 0 0 0 0 0 0;
#X obj 144 106 get_threshold;
#X obj 167 133 get_threshold;
#X obj 185 164 get_threshold;
#X obj 233 75 get_threshold;
#X obj 259 105 get_threshold;
#X obj 286 134 get_threshold;
#X obj 319 162 get_threshold;
#X obj 348 78 get_threshold;
#X obj 384 104 get_threshold;
#X obj 411 132 get_threshold;
#X obj 438 160 get_threshold;
#X obj 485 78 get_threshold;
#X obj 501 102 get_threshold;
#X text 871 249 max list;
#X obj 637 356 textfile;
#X obj 637 328 list trim;
#X obj 637 301 list prepend set;
#X obj 636 47 t a a a a a a a a a a a a a a;
#X obj 636 27 tgl 15 0 empty empty empty 17 7 0 10 -262144 -1 -1 0
1;
#X obj 898 151 change;
#X obj 898 174 sel 0;
#X obj 898 198 t b b;
#X obj 67 335 textfile;
#X obj 67 359 unpack 0 0 0 0 0 0 0 0 0 0 0 0 0 0;
#X msg 68 313 bang;
#X msg 114 316 clear;
#X msg 731 332 write sensormax.txt cr;
#X msg 718 174 write sensormin.txt cr;
#X msg 91 291 rewind;
#X obj 67 247 t b b b;
#X msg 114 270 read sensormin.txt cr;
#X obj 326 335 textfile;
#X obj 326 359 unpack 0 0 0 0 0 0 0 0 0 0 0 0 0 0;
#X msg 327 313 bang;
#X msg 373 316 clear;
#X msg 350 291 rewind;
#X obj 326 247 t b b b;
#X msg 370 270 read sensormax.txt cr;
#X text 870 89 min list;
#X obj 66 207 loadbang;
#X obj 134 207 bng 15 250 50 0 empty empty empty 17 7 0 10 -262144
-1 -1;
#X obj 67 406 scale 0 1 0 1;
#X obj 86 431 scale 0 1 0 1;
#X obj 633 119 list;
#X obj 637 273 list;
#X obj 112 455 scale 0 1 0 1;
#X obj 139 484 scale 0 1 0 1;
#X obj 161 510 scale 0 1 0 1;
#X obj 196 539 scale 0 1 0 1;
#X obj 237 404 scale 0 1 0 1;
#X obj 253 432 scale 0 1 0 1;
#X obj 276 461 scale 0 1 0 1;
#X obj 301 486 scale 0 1 0 1;
#X obj 323 515 scale 0 1 0 1;
#X obj 342 540 scale 0 1 0 1;
#X obj 415 405 scale 0 1 0 1;
#X obj 434 430 scale 0 1 0 1;
#X obj 235 628 pack 0 0 0 0 0 0 0 0 0 0 0 0 0 0;
#X obj 68 584 clip 0 1;
#X obj 102 609 clip 0 1;
#X obj 144 582 clip 0 1;
#X obj 178 607 clip 0 1;
#X obj 219 580 clip 0 1;
#X obj 253 605 clip 0 1;
#X obj 295 578 clip 0 1;
#X obj 329 603 clip 0 1;
#X obj 370 577 clip 0 1;
#X obj 404 602 clip 0 1;
#X obj 446 575 clip 0 1;
#X obj 480 600 clip 0 1;
#X obj 517 574 clip 0 1;
#X obj 551 599 clip 0 1;
#X obj 232 658 outlet;
#X obj 664 23 inlet;
#X connect 0 0 7 0;
#X connect 0 1 6 0;
#X connect 1 0 0 0;
#X connect 1 0 49 0;
#X connect 1 1 8 0;
#X connect 1 1 50 0;
#X connect 1 2 9 0;
#X connect 1 2 53 0;
#X connect 1 3 10 0;
#X connect 1 3 54 0;
#X connect 1 4 11 0;
#X connect 1 4 55 0;
#X connect 1 5 12 0;
#X connect 1 5 56 0;
#X connect 1 6 13 0;
#X connect 1 6 57 0;
#X connect 1 7 14 0;
#X connect 1 7 58 0;
#X connect 1 8 15 0;
#X connect 1 8 59 0;
#X connect 1 9 16 0;
#X connect 1 9 60 0;
#X connect 1 10 17 0;
#X connect 1 10 61 0;
#X connect 1 11 18 0;
#X connect 1 11 62 0;
#X connect 1 12 19 0;
#X connect 1 12 63 0;
#X connect 1 13 20 0;
#X connect 1 13 64 0;
#X connect 2 0 1 0;
#X connect 4 0 3 0;
#X connect 5 0 4 0;
#X connect 6 0 52 1;
#X connect 7 0 51 1;
#X connect 8 0 7 1;
#X connect 8 1 6 1;
#X connect 9 0 7 2;
#X connect 9 1 6 2;
#X connect 10 0 7 3;
#X connect 10 1 6 3;
#X connect 11 0 7 4;
#X connect 11 1 6 4;
#X connect 12 0 7 5;
#X connect 12 1 6 5;
#X connect 13 0 7 6;
#X connect 13 1 6 6;
#X connect 14 0 7 7;
#X connect 14 1 6 7;
#X connect 15 0 7 8;
#X connect 15 1 6 8;
#X connect 16 0 7 9;
#X connect 16 1 6 9;
#X connect 17 0 7 10;
#X connect 17 1 6 10;
#X connect 18 0 7 11;
#X connect 18 1 6 11;
#X connect 19 0 7 12;
#X connect 19 1 6 12;
#X connect 20 0 7 13;
#X connect 20 1 6 13;
#X connect 23 0 22 0;
#X connect 24 0 23 0;
#X connect 25 0 0 1;
#X connect 25 1 8 1;
#X connect 25 2 9 1;
#X connect 25 3 10 1;
#X connect 25 4 11 1;
#X connect 25 5 12 1;
#X connect 25 6 13 1;
#X connect 25 7 14 1;
#X connect 25 8 15 1;
#X connect 25 9 16 1;
#X connect 25 10 17 1;
#X connect 25 11 18 1;
#X connect 25 12 19 1;
#X connect 25 13 20 1;
#X connect 26 0 25 0;
#X connect 26 0 27 0;
#X connect 27 0 28 0;
#X connect 28 0 29 0;
#X connect 29 0 34 0;
#X connect 29 0 35 0;
#X connect 29 1 51 0;
#X connect 29 1 52 0;
#X connect 30 0 31 0;
#X connect 31 0 49 1;
#X connect 31 1 50 1;
#X connect 31 2 53 1;
#X connect 31 3 54 1;
#X connect 31 4 55 1;
#X connect 31 5 56 1;
#X connect 31 6 57 1;
#X connect 31 7 58 1;
#X connect 31 8 59 1;
#X connect 31 9 60 1;
#X connect 31 10 61 1;
#X connect 31 11 62 1;
#X connect 31 12 63 1;
#X connect 31 13 64 1;
#X connect 32 0 30 0;
#X connect 33 0 30 0;
#X connect 34 0 22 0;
#X connect 35 0 3 0;
#X connect 36 0 30 0;
#X connect 37 0 32 0;
#X connect 37 1 36 0;
#X connect 37 2 38 0;
#X connect 38 0 30 0;
#X connect 39 0 40 0;
#X connect 40 0 49 2;
#X connect 40 1 50 2;
#X connect 40 2 53 2;
#X connect 40 3 54 2;
#X connect 40 4 55 2;
#X connect 40 5 56 2;
#X connect 40 6 57 2;
#X connect 40 7 58 2;
#X connect 40 8 59 2;
#X connect 40 9 60 2;
#X connect 40 10 61 2;
#X connect 40 11 62 2;
#X connect 40 12 63 2;
#X connect 40 13 64 2;
#X connect 41 0 39 0;
#X connect 42 0 39 0;
#X connect 43 0 39 0;
#X connect 44 0 41 0;
#X connect 44 1 43 0;
#X connect 44 2 45 0;
#X connect 45 0 39 0;
#X connect 47 0 37 0;
#X connect 47 0 44 0;
#X connect 48 0 37 0;
#X connect 48 0 44 0;
#X connect 49 0 66 0;
#X connect 50 0 67 0;
#X connect 51 0 5 0;
#X connect 51 0 31 0;
#X connect 52 0 24 0;
#X connect 52 0 40 0;
#X connect 53 0 68 0;
#X connect 54 0 69 0;
#X connect 55 0 70 0;
#X connect 56 0 71 0;
#X connect 57 0 72 0;
#X connect 58 0 73 0;
#X connect 59 0 74 0;
#X connect 60 0 75 0;
#X connect 61 0 76 0;
#X connect 62 0 77 0;
#X connect 63 0 78 0;
#X connect 64 0 79 0;
#X connect 65 0 80 0;
#X connect 66 0 65 0;
#X connect 67 0 65 1;
#X connect 68 0 65 2;
#X connect 69 0 65 3;
#X connect 70 0 65 4;
#X connect 71 0 65 5;
#X connect 72 0 65 6;
#X connect 73 0 65 7;
#X connect 74 0 65 8;
#X connect 75 0 65 9;
#X connect 76 0 65 10;
#X connect 77 0 65 11;
#X connect 78 0 65 12;
#X connect 79 0 65 13;
#X connect 81 0 26 0;
#X restore 260 32 pd threshold;
#X obj 106 -21 inlet;
#X text 243 218 L_feet;
#X text 243 140 R_feet;
#X text 244 198 L_knee;
#X text 243 160 R_knee;
#X text 243 179 L_upper;
#X text 243 120 R_upper;
#X text 442 219 L_wrist;
#X text 443 203 L_elbow;
#X text 446 238 L_arm;
#X text 445 145 R_wrist;
#X text 445 164 R_elbow;
#X text 445 124 R_arm;
#X text 448 181 front;
#X text 450 104 back;
#X obj 100 284 outlet;
#X obj 374 -7 inlet;
#X connect 0 0 9 0;
#X connect 0 0 34 0;
#X connect 9 0 1 0;
#X connect 9 1 2 0;
#X connect 9 2 3 0;
#X connect 9 3 4 0;
#X connect 9 4 5 0;
#X connect 9 5 6 0;
#X connect 9 6 7 0;
#X connect 9 7 8 0;
#X connect 9 8 10 0;
#X connect 9 9 11 0;
#X connect 9 10 12 0;
#X connect 9 11 13 0;
#X connect 9 12 14 0;
#X connect 9 13 15 0;
#X connect 16 0 0 1;
#X connect 17 0 0 0;
#X connect 19 0 17 0;
#X connect 35 0 0 1;
#X coords 0 -1 1 1 400 160 1 100 100;
#X restore 315 205 pd sensor_panel;
#N canvas 0 23 624 619 lawdata 0;
#X obj 107 118 hsl 128 15 0 1 0 0 empty empty empty -2 -8 0 10 -262144
-1 -1 0 1;
#X obj 107 137 hsl 128 15 0 1 0 0 empty empty empty -2 -8 0 10 -262144
-1 -1 0 1;
#X obj 107 156 hsl 128 15 0 1 0 0 empty empty empty -2 -8 0 10 -262144
-1 -1 0 1;
#X obj 107 175 hsl 128 15 0 1 0 0 empty empty empty -2 -8 0 10 -262144
-1 -1 0 1;
#X obj 107 194 hsl 128 15 0 1 0 0 empty empty empty -2 -8 0 10 -262144
-1 -1 0 1;
#X obj 107 213 hsl 128 15 0 1 0 0 empty empty empty -2 -8 0 10 -262144
-1 -1 0 1;
#X obj 250 106 hsl 128 15 0 1 0 0 empty empty empty -2 -8 0 10 -262144
-1 -1 0 1;
#X obj 250 125 hsl 128 15 0 1 0 0 empty empty empty -2 -8 0 10 -262144
-1 -1 0 1;
#X obj 32 41 unpack 0 0 0 0 0 0 0 0 0 0 0 0 0 0;
#X obj 250 146 hsl 128 15 0 1 0 0 empty empty empty -2 -8 0 10 -262144
-1 -1 0 1;
#X obj 250 165 hsl 128 15 0 1 0 0 empty empty empty -2 -8 0 10 -262144
-1 -1 0 1;
#X obj 250 184 hsl 128 15 0 1 0 0 empty empty empty -2 -8 0 10 -262144
-1 -1 0 1;
#X obj 250 203 hsl 128 15 0 1 0 0 empty empty empty -2 -8 0 10 -262144
-1 -1 0 1;
#X obj 250 222 hsl 128 15 0 1 0 0 empty empty empty -2 -8 0 10 -262144
-1 -1 0 1;
#X obj 250 241 hsl 128 15 0 1 0 0 empty empty empty -2 -8 0 10 -262144
-1 -1 0 1;
#X obj 33 14 inlet;
#X connect 8 0 0 0;
#X connect 8 1 1 0;
#X connect 8 2 2 0;
#X connect 8 3 3 0;
#X connect 8 4 4 0;
#X connect 8 5 5 0;
#X connect 8 6 6 0;
#X connect 8 7 7 0;
#X connect 8 8 9 0;
#X connect 8 9 10 0;
#X connect 8 10 11 0;
#X connect 8 11 12 0;
#X connect 8 12 13 0;
#X connect 8 13 14 0;
#X connect 15 0 8 0;
#X coords 0 -1 1 1 290 165 1 100 100;
#X restore 11 236 pd lawdata;
#N canvas 99 127 1166 651 machineLearning 0;
#X msg 890 294 help;
#X msg 498 174 mode 1;
#X msg 889 317 train;
#X obj 233 344 list trim;
#X obj 11 316 list prepend add;
#X obj 11 342 list trim;
#X obj 233 322 list prepend map;
#X obj 390 379 ml.ann;
#X obj 11 287 list prepend;
#X obj 93 220 loadbang;
#X msg 888 342 clear;
#X obj 398 112 t b b b b b b;
#X msg 498 294 input_activation_function 1;
#X msg 498 269 hidden_activation_function 1;
#X msg 499 318 training_rate 0.2;
#X msg 497 197 scaling 1;
#X text 341 12 mode switch;
#X obj 388 589 outlet;
#X msg 498 243 num_hidden 3;
#X obj 11 261 spigot;
#X obj 12 179 spigot;
#X obj 225 58 sel 1;
#X obj 293 60 sel 0;
#X msg 225 84 1;
#X msg 259 84 0;
#X msg 294 84 1;
#X msg 328 84 0;
#X obj 233 246 spigot;
#X obj 213 248 bng 15 250 50 0 empty empty empty 17 7 0 10 -262144
-1 -1;
#X obj 20 202 bng 15 250 50 0 empty empty empty 17 7 0 10 -262144 -1
-1;
#X obj 233 297 spigot;
#X obj 61 263 bng 15 250 50 0 empty empty empty 17 7 0 10 -262144 -1
-1;
#X obj 400 86 loadbang;
#X obj 467 89 bng 15 250 50 0 empty empty empty 17 7 0 10 -262144 -1
-1;
#X obj 50 243 tgl 15 0 empty empty empty 17 7 0 10 -262144 -1 -1 0
1;
#X obj 432 418 route train;
#X obj 271 278 tgl 15 0 empty empty empty 17 7 0 10 -262144 -1 -1 0
1;
#X obj 11 18 inlet sensor;
#X obj 258 14 inlet mode;
#X text 38 38 sensor data as a list;
#X obj 456 16 inlet doTrain;
#X text 340 30 1: training;
#X text 341 45 0: map;
#X text 448 39 letting the trainingdata;
#X obj 661 18 inlet targetData;
#X text 672 40 target data for training;
#X obj 908 20 inlet annMessage;
#X text 606 219 number of output needs to be defined;
#X text 91 171 make sure to give a list that matches number of output
;
#X obj 51 156 tgl 15 0 empty empty empty 17 7 0 10 -262144 -1 -1 0
1;
#X obj 272 221 tgl 15 0 empty empty empty 17 7 0 10 -262144 -1 -1 0
1;
#X obj 212 298 bng 15 250 50 0 empty empty empty 17 7 0 10 -262144
-1 -1;
#X obj 909 44 route write read;
#X obj 908 67 t b;
#X obj 963 67 t b;
#X msg 496 219 num_outputs 2;
#X msg 93 244 0 0;
#X obj 552 414 print ann;
#X obj 433 444 sel 1;
#X msg 434 467 1;
#X obj 987 313 route clear;
#X msg 987 341 0;
#X msg 819 93 write /Users/mikst/Documents/_APPLICATION/LINK/LINK_prototype/PD/training_hand_j2
;
#X msg 820 146 read /Users/mikst/Documents/_APPLICATION/LINK/LINK_prototype/PD/training_hand.data
;
#X connect 0 0 7 0;
#X connect 1 0 7 0;
#X connect 2 0 7 0;
#X connect 3 0 7 0;
#X connect 4 0 5 0;
#X connect 5 0 7 0;
#X connect 6 0 3 0;
#X connect 7 0 17 0;
#X connect 7 1 35 0;
#X connect 7 1 57 0;
#X connect 8 0 4 0;
#X connect 9 0 56 0;
#X connect 10 0 7 0;
#X connect 11 1 13 0;
#X connect 11 1 12 0;
#X connect 11 1 14 0;
#X connect 11 2 18 0;
#X connect 11 3 55 0;
#X connect 11 4 15 0;
#X connect 11 5 1 0;
#X connect 12 0 7 0;
#X connect 13 0 7 0;
#X connect 14 0 7 0;
#X connect 15 0 7 0;
#X connect 18 0 7 0;
#X connect 19 0 8 0;
#X connect 19 0 31 0;
#X connect 20 0 19 0;
#X connect 20 0 29 0;
#X connect 21 0 23 0;
#X connect 21 0 24 0;
#X connect 22 0 25 0;
#X connect 22 0 26 0;
#X connect 23 0 49 0;
#X connect 24 0 50 0;
#X connect 25 0 50 0;
#X connect 26 0 49 0;
#X connect 27 0 28 0;
#X connect 27 0 30 0;
#X connect 30 0 6 0;
#X connect 30 0 51 0;
#X connect 32 0 11 0;
#X connect 33 0 11 0;
#X connect 34 0 19 1;
#X connect 35 0 58 0;
#X connect 36 0 30 1;
#X connect 37 0 27 0;
#X connect 37 0 20 0;
#X connect 38 0 21 0;
#X connect 38 0 22 0;
#X connect 40 0 34 0;
#X connect 44 0 8 1;
#X connect 46 0 52 0;
#X connect 49 0 20 1;
#X connect 50 0 27 1;
#X connect 52 0 53 0;
#X connect 52 1 54 0;
#X connect 52 2 7 0;
#X connect 52 2 60 0;
#X connect 53 0 62 0;
#X connect 54 0 63 0;
#X connect 55 0 7 0;
#X connect 56 0 8 1;
#X connect 58 0 59 0;
#X connect 59 0 36 0;
#X connect 60 0 61 0;
#X connect 61 0 36 0;
#X connect 62 0 7 0;
#X connect 63 0 7 0;
#X restore 352 485 pd machineLearning;
#X obj 386 428 tgl 15 0 empty empty empty 17 7 0 10 -262144 -1 -1 0
1;
#X obj 413 460 tgl 15 0 empty empty empty 17 7 0 10 -262144 -1 -1 0
1;
#X text 403 440 trainig;
#X msg 588 408 train;
#X msg 587 433 clear;
#X obj 488 498 hsl 128 15 0 1 0 0 empty empty empty -2 -8 0 10 -262144
-1 -1 0 1;
#X floatatom 475 517 5 0 0 0 - - -;
#X text 388 372 mode switch;
#X text 387 390 1: training;
#X text 388 405 0: map;
#X obj 628 498 hsl 128 15 0 1 0 0 empty empty empty -2 -8 0 10 -262144
-1 -1 0 1;
#X floatatom 615 517 5 0 0 0 - - -;
#X obj 488 541 hsl 128 15 0 1 0 0 empty empty empty -2 -8 0 10 -262144
-1 -1 0 1;
#X floatatom 487 560 5 0 0 0 - - -;
#X obj 627 541 hsl 128 15 0 1 0 0 empty empty empty -2 -8 0 10 -262144
-1 -1 0 1;
#X floatatom 626 560 5 0 0 0 - - -;
#X msg 536 408 write;
#X msg 536 431 read;
#X msg 62 477 socket publish;
#X obj 31 449 t b b;
#X obj 31 424 bng 15 250 50 0 empty empty empty 17 7 0 10 -262144 -1
-1;
#X obj 30 562 zmq;
#X obj 59 528 r sendZMQ;
#X obj 53 420 loadbang;
#X obj 466 717 s sendZMQ;
#X obj 466 694 list trim;
#X obj 466 672 list prepend send;
#X obj 763 466 s sendZMQ;
#X obj 763 443 list trim;
#X obj 762 420 list prepend send;
#X msg 31 87 connect tcp://192.168.0.10:5555;
#X msg 30 503 connect tcp://192.168.0.10:5556;
#X obj 763 395 prepend performer1;
#X obj 271 421 list;
#X obj 307 395 tgl 15 0 empty empty empty 17 7 0 10 -262144 -1 -1 1
1;
#X obj 306 372 loadbang;
#X obj 308 417 metro 40;
#X obj 268 449 zl slice 6;
#X obj 257 545 scale 0.2 1 0 1;
#X obj 257 567 clip 0 1;
#X obj 468 603 pack 0 0 0 0;
#X obj 466 649 prepend ml;
#X obj 253 617 line;
#X msg 255 591 \$1 40;
#X obj 706 183 tgl 15 0 empty empty empty 17 7 0 10 -262144 -1 -1 0
1;
#X text 705 161 calibration;
#X obj 447 464 pak 0 0;
#X obj 372 543 scale 0.2 1 0 1;
#X obj 372 565 clip 0 1;
#X obj 368 615 line;
#X msg 370 589 \$1 40;
#X obj 340 517 unpack 0 0;
#X msg 839 58 record;
#X msg 894 58 stop;
#N canvas 389 23 891 651 playback 0;
#X obj 108 124 hsl 128 15 0 1 0 0 empty empty empty -2 -8 0 10 -262144
-1 -1 4064 1;
#X obj 108 143 hsl 128 15 0 1 0 0 empty empty empty -2 -8 0 10 -262144
-1 -1 0 1;
#X obj 108 162 hsl 128 15 0 1 0 0 empty empty empty -2 -8 0 10 -262144
-1 -1 0 1;
#X obj 108 181 hsl 128 15 0 1 0 0 empty empty empty -2 -8 0 10 -262144
-1 -1 6477 1;
#X obj 108 200 hsl 128 15 0 1 0 0 empty empty empty -2 -8 0 10 -262144
-1 -1 0 1;
#X obj 108 219 hsl 128 15 0 1 0 0 empty empty empty -2 -8 0 10 -262144
-1 -1 10287 1;
#X obj 307 105 hsl 128 15 0 1 0 0 empty empty empty -2 -8 0 10 -262144
-1 -1 4953 1;
#X obj 307 124 hsl 128 15 0 1 0 0 empty empty empty -2 -8 0 10 -262144
-1 -1 8509 1;
#X obj 104 76 unpack 0 0 0 0 0 0 0 0 0 0 0 0 0 0;
#X obj 307 145 hsl 128 15 0 1 0 0 empty empty empty -2 -8 0 10 -262144
-1 -1 11176 1;
#X obj 307 164 hsl 128 15 0 1 0 0 empty empty empty -2 -8 0 10 -262144
-1 -1 9017 1;
#X obj 307 183 hsl 128 15 0 1 0 0 empty empty empty -2 -8 0 10 -262144
-1 -1 9525 1;
#X obj 307 202 hsl 128 15 0 1 0 0 empty empty empty -2 -8 0 10 -262144
-1 -1 2921 1;
#X obj 307 221 hsl 128 15 0 1 0 0 empty empty empty -2 -8 0 10 -262144
-1 -1 8890 1;
#X obj 307 240 hsl 128 15 0 1 0 0 empty empty empty -2 -8 0 10 -262144
-1 -1 12700 1;
#X obj 106 -21 inlet;
#X text 243 218 L_feet;
#X text 243 140 R_feet;
#X text 244 198 L_knee;
#X text 243 160 R_knee;
#X text 243 179 L_upper;
#X text 243 120 R_upper;
#X text 442 219 L_wrist;
#X text 443 203 L_elbow;
#X text 446 238 L_arm;
#X text 445 145 R_wrist;
#X text 445 164 R_elbow;
#X text 445 124 R_arm;
#X text 448 181 front;
#X text 450 104 back;
#X connect 8 0 0 0;
#X connect 8 1 1 0;
#X connect 8 2 2 0;
#X connect 8 3 3 0;
#X connect 8 4 4 0;
#X connect 8 5 5 0;
#X connect 8 6 6 0;
#X connect 8 7 7 0;
#X connect 8 8 9 0;
#X connect 8 9 10 0;
#X connect 8 10 11 0;
#X connect 8 11 12 0;
#X connect 8 12 13 0;
#X connect 8 13 14 0;
#X connect 15 0 8 0;
#X coords 0 -1 1 1 400 160 1 100 100;
#X restore 765 512 pd playback;
#X obj 836 282 cyclone/switch 2 1;
#X obj 836 239 hradio 15 1 0 2 empty empty empty 0 -8 0 10 -262144
-1 -1 0;
#X obj 838 258 + 1;
#X msg 945 59 write;
#X msg 1026 303 read;
#X obj 1067 210 timer;
#X floatatom 1068 232 10 0 0 0 - - -;
#N canvas 0 23 1186 754 beep 0;
#X obj 111 39 t b;
#X obj 112 91 vline~;
#X obj 106 134 *~;
#X obj 88 173 dac~;
#X msg 113 65 1 5 \, 0 100 100;
#X obj 110 15 inlet;
#X obj 40 42 osc~ 1200;
#X connect 0 0 4 0;
#X connect 1 0 2 1;
#X connect 2 0 3 0;
#X connect 2 0 3 1;
#X connect 4 0 1 0;
#X connect 5 0 0 0;
#X connect 6 0 2 0;
#X restore 850 81 pd beep;
#X text 867 265 1:live;
#X text 868 281 2:record;
#X msg 1025 280 play;
#X obj 1070 279 spigot;
#X obj 1122 280 tgl 15 0 empty empty empty 17 7 0 10 -262144 -1 -1
0 1;
#X text 1106 302 loop;
#X obj 983 205 t b a;
#X obj 1072 304 bng 15 250 50 0 empty empty empty 17 7 0 10 -262144
-1 -1;
#X text 955 11 testrecord3.txt > 354600;
#X obj 840 104 cyclone/mtr 2;
#X obj 953 134 t b;
#X obj 996 134 t b;
#X obj 988 347 unpack 0 0;
#X obj 955 400 hsl 128 15 0 1 0 0 empty empty empty -2 -8 0 10 -262144
-1 -1 0 1;
#X floatatom 954 419 5 0 0 0 - - -;
#X obj 1094 400 hsl 128 15 0 1 0 0 empty empty empty -2 -8 0 10 -262144
-1 -1 3 1;
#X floatatom 1093 419 5 0 0 0 - - -;
#X obj 768 315 list;
#X text 1015 38 joanna3 88798;
#X text 1012 57 joanna4 286983;
#X text 1015 85 joanna5 108431;
#X text 1015 107 joanna6 121866;
#X text 1028 146 joanna8 168996;
#X obj 560 616 cyclone/switch 2 1;
#X text 1038 129 joanna7 26033 bad;
#X msg 1025 325 stop;
#X obj 163 558 zl sum;
#X obj 163 606 -;
#X obj 163 632 abs;
#X obj 98 654 print;
#X obj 163 581 t a a;
#X obj 163 709 hsl 128 15 0 1 0 0 empty empty empty -2 -8 0 10 -262144
-1 -1 0 1;
#X obj 276 676 clip 0 1;
#X obj 279 654 scale 0.07 0.5 0 1;
#X obj 797 329 unpack 0 0 0 0 0 0;
#X obj 789 357 pack 0 0 0 0 0 0 0 0 0 0 0 0 0 0 0 0;
#X text 96 411 comment;
#X text 96 411 comment;
#X text 816 6 joanna1 207760;
#X obj 1025 255 delay 207760;
#X text 826 26 joanna2 199920;
#X obj 486 83 oscparse;
#X obj 485 51 udpreceive 6666;
#X obj 485 108 list trim;
#X obj 485 132 route sensors ml;
#X connect 0 0 3 0;
#X connect 1 0 4 0;
#X connect 1 1 41 0;
#X connect 1 2 0 0;
#X connect 2 0 1 0;
#X connect 3 0 6 0;
#X connect 4 0 3 0;
#X connect 5 0 1 0;
#X connect 6 0 7 0;
#X connect 7 0 8 0;
#X connect 8 0 44 1;
#X connect 10 0 62 0;
#X connect 11 0 10 1;
#X connect 12 0 10 2;
#X connect 14 0 10 4;
#X connect 15 0 10 4;
#X connect 16 0 17 0;
#X connect 16 0 57 0;
#X connect 21 0 22 0;
#X connect 21 0 57 1;
#X connect 23 0 24 0;
#X connect 25 0 26 0;
#X connect 27 0 10 4;
#X connect 28 0 10 4;
#X connect 29 0 32 0;
#X connect 30 0 42 0;
#X connect 30 1 29 0;
#X connect 31 0 30 0;
#X connect 33 0 32 0;
#X connect 34 0 30 0;
#X connect 36 0 35 0;
#X connect 37 0 36 0;
#X connect 39 0 38 0;
#X connect 40 0 39 0;
#X connect 41 0 3 0;
#X connect 42 0 32 0;
#X connect 43 0 40 0;
#X connect 44 0 83 1;
#X connect 44 0 66 1;
#X connect 45 0 47 0;
#X connect 46 0 45 0;
#X connect 47 0 44 0;
#X connect 47 0 91 0;
#X connect 48 0 108 0;
#X connect 48 1 10 0;
#X connect 48 1 100 0;
#X connect 49 0 50 0;
#X connect 50 0 54 0;
#X connect 51 0 91 1;
#X connect 51 0 97 1;
#X connect 52 0 37 0;
#X connect 53 0 51 0;
#X connect 53 0 23 0;
#X connect 54 0 53 0;
#X connect 55 0 8 1;
#X connect 57 0 10 3;
#X connect 58 0 59 0;
#X connect 59 0 61 0;
#X connect 60 0 25 0;
#X connect 60 0 51 1;
#X connect 61 0 60 0;
#X connect 62 0 49 0;
#X connect 62 1 58 0;
#X connect 63 0 73 0;
#X connect 63 0 83 0;
#X connect 63 0 84 0;
#X connect 64 0 73 0;
#X connect 64 0 83 0;
#X connect 64 0 85 0;
#X connect 66 0 48 0;
#X connect 67 0 68 0;
#X connect 68 0 66 0;
#X connect 68 0 97 0;
#X connect 69 0 83 0;
#X connect 70 0 83 0;
#X connect 71 0 72 0;
#X connect 76 0 80 0;
#X connect 77 0 76 0;
#X connect 77 0 81 0;
#X connect 78 0 77 1;
#X connect 80 0 113 0;
#X connect 80 1 83 0;
#X connect 83 1 65 0;
#X connect 83 2 86 0;
#X connect 83 2 97 2;
#X connect 83 2 52 0;
#X connect 84 0 71 0;
#X connect 85 0 71 1;
#X connect 86 0 87 0;
#X connect 86 1 89 0;
#X connect 87 0 88 0;
#X connect 89 0 90 0;
#X connect 91 0 83 2;
#X connect 99 0 83 0;
#X connect 100 0 104 0;
#X connect 101 0 102 0;
#X connect 102 0 107 0;
#X connect 104 0 101 1;
#X connect 104 1 101 0;
#X connect 106 0 105 0;
#X connect 107 0 106 0;
#X connect 108 0 109 0;
#X connect 108 1 109 1;
#X connect 108 2 109 2;
#X connect 108 3 109 3;
#X connect 108 4 109 4;
#X connect 108 5 109 5;
#X connect 109 0 43 0;
#X connect 113 0 77 0;
#X connect 115 0 117 0;
#X connect 116 0 115 0;
#X connect 117 0 118 0;
