#N canvas 1 23 1387 855 12;
#X obj 46 55 zmq;
#X msg 59 -39 socket subscribe;
#X obj 161 11 print SUB;
#X obj 13 -65 t b b b;
#X obj 12 -85 bng 15 250 50 0 empty empty empty 17 7 0 10 -262144 -1
-1;
#X msg 88 38 close;
#X msg 14 8 subscribe sensors;
#X obj 470 32 route sensors;
#X obj 5 128 unpack 0 0 0 0 0 0 0 0, f 37;
#X floatatom 823 158 5 0 0 0 - - -;
#X floatatom 961 155 5 0 0 0 - - -;
#X obj 21 57 bng 15 250 50 0 empty empty empty 17 7 0 10 -262144 -1
-1;
#X obj 146 690 hsl 128 15 0 1 0 0 empty empty empty -2 -8 0 10 -262144
-1 -1 0 1;
#X obj 609 805 dac~;
#X floatatom 5 156 5 0 0 0 - - -;
#X floatatom 154 155 5 0 0 0 - - -;
#X floatatom 297 155 5 0 0 0 - - -;
#X floatatom 411 155 5 0 0 0 - - -;
#X floatatom 551 156 5 0 0 0 - - -;
#X floatatom 686 154 5 0 0 0 - - -;
#X msg 135 717 \$1 100;
#X obj 136 739 line;
#X obj 87 678 *~ 1;
#X msg 301 -56 connect tcp://87.230.25.115:5555;
#X obj 8 207 pack 0 0 0 0 0 0 0 0;
#N canvas 371 23 986 684 training 0;
#X msg 559 301 help;
#X msg 602 301 train;
#X obj 273 235 list trim;
#X obj 34 236 list prepend add;
#X obj 34 258 list trim;
#X obj 273 213 list prepend map;
#X obj 338 16 inlet;
#X obj 429 304 ml.ann;
#X obj 34 207 list prepend;
#X obj 108 39 loadbang;
#X text 386 17 sensor data in pack of 8;
#X msg 650 84 num_hidden 5;
#X obj 420 111 t b b b b b b;
#X msg 652 131 input_activation_function 1;
#X msg 652 107 hidden_activation_function 1;
#X msg 652 154 training_rate 0.2;
#X msg 652 176 max_epochs 4000;
#X msg 648 41 scaling 1;
#X msg 652 200 min_epochs 500;
#X obj 419 70 loadbang;
#X msg 654 302 read;
#X msg 697 302 write;
#X obj 462 364 print ann;
#X obj 248 92 cyclone/gate 2;
#X msg 245 56 1;
#X msg 289 56 2;
#X obj 34 174 cyclone/gate;
#X obj 34 143 tgl 15 0 empty empty empty 17 7 0 10 -262144 -1 -1 0
1;
#X msg 648 63 num_outputs 3;
#X msg 110 70 0 0 0;
#X text 288 37 map;
#X obj 52 421 hsl 128 15 0 1 0 0 empty empty empty -2 -8 0 10 -262144
-1 -1 0 1;
#X obj 196 421 hsl 128 15 0 1 0 0 empty empty empty -2 -8 0 10 -262144
-1 -1 0 1;
#X obj 334 421 hsl 128 15 0 1 0 0 empty empty empty -2 -8 0 10 -262144
-1 -1 0 1;
#X obj 23 446 pak 0 0 0;
#X obj 52 552 hsl 128 15 0 1 0 0 empty empty empty -2 -8 0 10 -262144
-1 -1 0 1;
#X obj 191 551 hsl 128 15 0 1 0 0 empty empty empty -2 -8 0 10 -262144
-1 -1 0 1;
#X obj 329 551 hsl 128 15 0 1 0 0 empty empty empty -2 -8 0 10 -262144
-1 -1 0 1;
#X obj 25 484 unpack 0 0 0;
#X obj 505 54 bng 15 250 50 0 empty empty empty 17 7 0 10 -262144 -1
-1;
#X msg 611 350 clear;
#X msg 166 315 0.1 0.7 0.2;
#X msg 168 342 0.5 0.2 0.8;
#X obj 128 371 unpack 0 0 0;
#X obj 535 525 outlet;
#X msg 648 17 mode 1;
#X msg 614 513 240 30 2400 80 2870 100;
#X msg 611 402 850 1220 2810;
#X msg 613 429 430 2480 3070;
#X msg 614 458 590 920 2710;
#X msg 614 483 370 950 2670;
#X connect 0 0 7 0;
#X connect 1 0 7 0;
#X connect 2 0 7 0;
#X connect 3 0 4 0;
#X connect 4 0 7 0;
#X connect 5 0 2 0;
#X connect 6 0 23 1;
#X connect 7 0 38 0;
#X connect 7 0 44 0;
#X connect 7 1 22 0;
#X connect 8 0 3 0;
#X connect 9 0 29 0;
#X connect 11 0 7 0;
#X connect 12 0 16 0;
#X connect 12 0 18 0;
#X connect 12 1 14 0;
#X connect 12 1 13 0;
#X connect 12 1 15 0;
#X connect 12 2 11 0;
#X connect 12 3 28 0;
#X connect 12 4 17 0;
#X connect 12 5 45 0;
#X connect 13 0 7 0;
#X connect 14 0 7 0;
#X connect 15 0 7 0;
#X connect 16 0 7 0;
#X connect 17 0 7 0;
#X connect 18 0 7 0;
#X connect 19 0 12 0;
#X connect 20 0 7 0;
#X connect 21 0 7 0;
#X connect 23 0 26 1;
#X connect 23 1 5 0;
#X connect 24 0 23 0;
#X connect 25 0 23 0;
#X connect 26 0 8 0;
#X connect 27 0 26 0;
#X connect 28 0 7 0;
#X connect 29 0 8 1;
#X connect 31 0 34 0;
#X connect 32 0 34 1;
#X connect 33 0 34 2;
#X connect 34 0 8 1;
#X connect 38 0 35 0;
#X connect 38 1 36 0;
#X connect 38 2 37 0;
#X connect 39 0 12 0;
#X connect 40 0 7 0;
#X connect 41 0 43 0;
#X connect 42 0 43 0;
#X connect 43 0 31 0;
#X connect 43 1 32 0;
#X connect 43 2 33 0;
#X connect 45 0 7 0;
#X restore 1063 294 pd training;
#X obj 45 77 route adjusted;
#X msg 283 -10 subscribe adjusted;
#X msg 463 -4 subscribe trained;
#X obj 585 34 route trained;
#N canvas 262 23 1092 807 classifier 0;
#X msg 559 301 help;
#X msg 602 301 train;
#X obj 273 235 list trim;
#X obj 34 236 list prepend add;
#X obj 34 258 list trim;
#X obj 273 213 list prepend map;
#X obj 338 16 inlet;
#X obj 34 207 list prepend;
#X obj 108 39 loadbang;
#X text 386 17 sensor data in pack of 8;
#X obj 420 111 t b b b b b b;
#X obj 419 70 loadbang;
#X msg 654 302 read;
#X msg 697 302 write;
#X obj 462 364 print ann;
#X obj 248 92 cyclone/gate 2;
#X msg 245 56 1;
#X msg 289 56 2;
#X obj 34 174 cyclone/gate;
#X obj 34 143 tgl 15 0 empty empty empty 17 7 0 10 -262144 -1 -1 0
1;
#X text 288 37 map;
#X obj 505 54 bng 15 250 50 0 empty empty empty 17 7 0 10 -262144 -1
-1;
#X msg 611 350 clear;
#X obj 535 525 outlet;
#X obj 429 304 ml.svm;
#X msg 110 70 1;
#X msg 83 421 2;
#X msg 115 422 3;
#X msg 152 422 4;
#X msg 184 423 5;
#X obj 390 448 change;
#X floatatom 390 477 5 0 0 0 - - -;
#X connect 0 0 24 0;
#X connect 1 0 24 0;
#X connect 2 0 24 0;
#X connect 3 0 4 0;
#X connect 4 0 24 0;
#X connect 5 0 2 0;
#X connect 6 0 15 1;
#X connect 7 0 3 0;
#X connect 8 0 25 0;
#X connect 11 0 10 0;
#X connect 12 0 24 0;
#X connect 13 0 24 0;
#X connect 15 0 18 1;
#X connect 15 1 5 0;
#X connect 16 0 15 0;
#X connect 17 0 15 0;
#X connect 18 0 7 0;
#X connect 19 0 18 0;
#X connect 21 0 10 0;
#X connect 22 0 24 0;
#X connect 24 0 30 0;
#X connect 24 1 14 0;
#X connect 25 0 7 1;
#X connect 26 0 18 1;
#X connect 27 0 18 1;
#X connect 28 0 18 1;
#X connect 29 0 18 1;
#X connect 30 0 31 0;
#X restore 367 789 pd classifier;
#N canvas 118 132 1322 746 trainingVoder 0;
#X msg 559 301 help;
#X msg 602 301 train;
#X obj 273 235 list trim;
#X obj 34 236 list prepend add;
#X obj 34 258 list trim;
#X obj 273 213 list prepend map;
#X obj 338 16 inlet;
#X obj 429 304 ml.ann;
#X obj 34 207 list prepend;
#X obj 108 39 loadbang;
#X text 386 17 sensor data in pack of 8;
#X msg 650 84 num_hidden 5;
#X obj 420 111 t b b b b b b;
#X msg 652 131 input_activation_function 1;
#X msg 652 107 hidden_activation_function 1;
#X msg 652 154 training_rate 0.2;
#X msg 652 176 max_epochs 4000;
#X msg 648 41 scaling 1;
#X msg 652 200 min_epochs 500;
#X obj 419 70 loadbang;
#X msg 654 302 read;
#X obj 468 366 print ann;
#X obj 248 92 cyclone/gate 2;
#X msg 245 56 1;
#X msg 289 56 2;
#X obj 34 174 cyclone/gate;
#X obj 34 143 tgl 15 0 empty empty empty 17 7 0 10 -262144 -1 -1 0
1;
#X msg 648 63 num_outputs 3;
#X msg 110 70 0 0 0;
#X text 288 37 map;
#X obj 505 54 bng 15 250 50 0 empty empty empty 17 7 0 10 -262144 -1
-1;
#X msg 559 326 clear;
#X obj 427 545 outlet;
#X msg 648 17 mode 1;
#X text 33 313 a;
#X text 40 488 e;
#X text 43 576 u;
#X text 32 359 i;
#X text 42 532 y;
#X text 29 399 oe;
#X text 36 442 ɶ;
#X obj 428 512 pack 0 30 0 80 0 100;
#X msg 35 338 850 1220 2810;
#X msg 37 378 240 2400 2870;
#X msg 39 421 585 1710 2710;
#X msg 39 465 820 1530 3300;
#X msg 41 509 430 2480 3070;
#X msg 41 554 235 2100 2870;
#X msg 41 595 370 950 2670;
#X obj 428 426 unpack 0 0 0;
#X obj 402 457 max 100;
#X obj 475 460 max 800;
#X obj 550 468 max 2000;
#X obj 478 486 min 3000;
#X obj 543 490 min 3500;
#X obj 398 484 min 1000;
#X msg 724 270 write /Users/mikst/Documents/_APPLICATION/LINK/LINK_prototype/PD/testD.data
;
#X msg 736 367 read /Users/mikst/Documents/_APPLICATION/LINK/LINK_prototype/PD/testD.data
;
#X connect 0 0 7 0;
#X connect 1 0 7 0;
#X connect 2 0 7 0;
#X connect 3 0 4 0;
#X connect 4 0 7 0;
#X connect 5 0 2 0;
#X connect 6 0 22 1;
#X connect 7 0 49 0;
#X connect 7 1 21 0;
#X connect 8 0 3 0;
#X connect 9 0 28 0;
#X connect 11 0 7 0;
#X connect 12 0 16 0;
#X connect 12 0 18 0;
#X connect 12 1 14 0;
#X connect 12 1 13 0;
#X connect 12 1 15 0;
#X connect 12 2 11 0;
#X connect 12 3 27 0;
#X connect 12 4 17 0;
#X connect 12 5 33 0;
#X connect 13 0 7 0;
#X connect 14 0 7 0;
#X connect 15 0 7 0;
#X connect 16 0 7 0;
#X connect 17 0 7 0;
#X connect 18 0 7 0;
#X connect 19 0 12 0;
#X connect 20 0 7 0;
#X connect 22 0 25 1;
#X connect 22 1 5 0;
#X connect 23 0 22 0;
#X connect 24 0 22 0;
#X connect 25 0 8 0;
#X connect 26 0 25 0;
#X connect 27 0 7 0;
#X connect 28 0 8 1;
#X connect 30 0 12 0;
#X connect 31 0 7 0;
#X connect 33 0 7 0;
#X connect 41 0 32 0;
#X connect 42 0 8 1;
#X connect 43 0 8 1;
#X connect 44 0 8 1;
#X connect 45 0 8 1;
#X connect 46 0 8 1;
#X connect 47 0 8 1;
#X connect 48 0 8 1;
#X connect 49 0 50 0;
#X connect 49 1 51 0;
#X connect 49 2 52 0;
#X connect 50 0 55 0;
#X connect 51 0 53 0;
#X connect 52 0 54 0;
#X connect 53 0 41 2;
#X connect 54 0 41 4;
#X connect 55 0 41 0;
#X connect 56 0 7 0;
#X connect 57 0 7 0;
#X restore 10 473 pd trainingVoder;
#N canvas 0 23 958 665 voder_lizzie 0;
#X msg 39 121 850 30 1220 80 2810 100;
#X text 37 96 a;
#X text 167 158 e;
#X msg 147 180 430 30 2480 80 3070 100;
#X text 491 147 u;
#X msg 489 166 370 30 950 80 2670 100;
#X text 220 101 i;
#X msg 203 120 240 30 2400 80 2870 100;
#X msg 311 165 235 30 2100 80 2870 100;
#X text 323 144 y;
#X text 396 94 oe;
#X text 559 95 ɶ;
#X msg 381 117 585 30 1710 80 2710 100;
#X msg 538 118 820 30 1530 80 3300 100;
#X obj 160 238 unpack f f f f f f;
#X obj 73 373 line;
#X obj 72 523 bp~ 0 0;
#X obj 145 371 line;
#X floatatom 516 314 5 0 1 0 - - -;
#X obj 516 337 sig~;
#X obj 516 359 *~ 300;
#X obj 369 483 lop~ 4000;
#X obj 204 378 line;
#X obj 196 523 bp~ 0 0;
#X obj 276 376 line;
#X obj 312 367 line;
#X obj 266 529 bp~ 0 0;
#X obj 384 365 line;
#X obj 641 213 osc~ 6;
#X obj 680 237 noise~;
#X obj 741 244 phasor~ 25;
#X obj 689 287 samphold~;
#X obj 643 316 +~;
#X obj 714 372 line;
#X msg 724 329 0 \, 2 100;
#X obj 638 398 s~ vibrato;
#X obj 383 229 r~ vibrato;
#X obj 438 299 +~;
#X obj 678 567 osc~;
#X obj 679 544 +~;
#X obj 692 453 r~ vibrato;
#X obj 678 588 s~ modulator;
#X obj 455 253 r~ modulator;
#X obj 438 361 +~;
#X obj 460 446 phasor~;
#X msg 152 338 \$1 500;
#X msg 268 332 \$1 500;
#X msg 366 315 \$1 500;
#X obj 707 166 hsl 128 15 0 6 0 0 empty empty empty -2 -8 0 10 -262144
-1 -1 0 1;
#X obj 553 222 adc~ 3 4 5;
#X obj 639 356 *~ 2;
#X obj 172 -12 inlet;
#X obj 691 -4 inlet;
#X obj 77 693 outlet~;
#X msg 93 329 \$1 500;
#X msg 209 323 \$1 500;
#X msg 307 306 \$1 500;
#X floatatom 58 419 5 0 0 0 - - -;
#X floatatom 157 425 5 0 0 0 - - -;
#X obj 83 629 hip~ 50;
#X obj 86 590 *~ 1;
#X floatatom 233 424 5 0 0 0 - - -;
#X floatatom 337 408 5 0 0 0 - - -;
#X connect 0 0 14 0;
#X connect 3 0 14 0;
#X connect 5 0 14 0;
#X connect 7 0 14 0;
#X connect 8 0 14 0;
#X connect 12 0 14 0;
#X connect 13 0 14 0;
#X connect 14 0 54 0;
#X connect 14 1 45 0;
#X connect 14 2 55 0;
#X connect 14 3 46 0;
#X connect 14 4 56 0;
#X connect 14 5 47 0;
#X connect 15 0 16 1;
#X connect 15 0 57 0;
#X connect 16 0 60 0;
#X connect 17 0 16 2;
#X connect 17 0 58 0;
#X connect 18 0 19 0;
#X connect 19 0 20 0;
#X connect 20 0 39 0;
#X connect 20 0 43 1;
#X connect 21 0 16 0;
#X connect 21 0 23 0;
#X connect 21 0 26 0;
#X connect 22 0 23 1;
#X connect 22 0 61 0;
#X connect 23 0 60 0;
#X connect 24 0 23 2;
#X connect 25 0 26 1;
#X connect 25 0 62 0;
#X connect 26 0 60 0;
#X connect 27 0 26 2;
#X connect 28 0 32 0;
#X connect 29 0 31 0;
#X connect 30 0 31 1;
#X connect 31 0 32 1;
#X connect 32 0 50 0;
#X connect 33 0 50 1;
#X connect 34 0 33 0;
#X connect 36 0 37 0;
#X connect 37 0 43 0;
#X connect 38 0 41 0;
#X connect 39 0 38 0;
#X connect 40 0 39 1;
#X connect 42 0 37 1;
#X connect 43 0 44 0;
#X connect 44 0 21 0;
#X connect 45 0 17 0;
#X connect 46 0 24 0;
#X connect 47 0 27 0;
#X connect 48 0 28 0;
#X connect 50 0 35 0;
#X connect 51 0 14 0;
#X connect 52 0 18 0;
#X connect 54 0 15 0;
#X connect 55 0 22 0;
#X connect 56 0 25 0;
#X connect 59 0 53 0;
#X connect 60 0 59 0;
#X restore 159 573 pd voder_lizzie;
#X obj 263 552 hsl 128 15 0 1 0 0 empty empty empty -2 -8 0 10 -262144
-1 -1 4100 1;
#N canvas 329 23 1042 697 volumeTrain 0;
#X msg 559 301 help;
#X msg 602 301 train;
#X obj 273 235 list trim;
#X obj 34 236 list prepend add;
#X obj 34 258 list trim;
#X obj 273 213 list prepend map;
#X obj 338 16 inlet;
#X obj 429 304 ml.ann;
#X obj 34 207 list prepend;
#X obj 108 39 loadbang;
#X text 386 17 sensor data in pack of 8;
#X obj 420 111 t b b b b b b;
#X msg 652 131 input_activation_function 1;
#X msg 652 107 hidden_activation_function 1;
#X msg 652 154 training_rate 0.2;
#X msg 652 176 max_epochs 4000;
#X msg 648 41 scaling 1;
#X msg 652 200 min_epochs 500;
#X obj 419 70 loadbang;
#X msg 654 302 read;
#X obj 468 366 print ann;
#X obj 248 92 cyclone/gate 2;
#X msg 245 56 1;
#X msg 289 56 2;
#X obj 34 174 cyclone/gate;
#X obj 34 143 tgl 15 0 empty empty empty 17 7 0 10 -262144 -1 -1 0
1;
#X text 288 37 map;
#X obj 505 54 bng 15 250 50 0 empty empty empty 17 7 0 10 -262144 -1
-1;
#X msg 559 326 clear;
#X obj 427 545 outlet;
#X msg 648 17 mode 1;
#X msg 648 63 num_outputs 1;
#X msg 650 84 num_hidden 3;
#X msg 110 70 0;
#X msg 72 73 1;
#X obj 402 457 max 0;
#X obj 398 484 min 1;
#X floatatom 315 411 5 0 0 0 - - -;
#X floatatom 325 526 5 0 0 0 - - -;
#X obj 403 424 scale 0.3 1 0 1;
#X msg 697 302 write testVol;
#X connect 0 0 7 0;
#X connect 1 0 7 0;
#X connect 2 0 7 0;
#X connect 3 0 4 0;
#X connect 4 0 7 0;
#X connect 5 0 2 0;
#X connect 6 0 21 1;
#X connect 7 0 37 0;
#X connect 7 0 39 0;
#X connect 7 1 20 0;
#X connect 8 0 3 0;
#X connect 9 0 33 0;
#X connect 11 0 15 0;
#X connect 11 0 17 0;
#X connect 11 1 13 0;
#X connect 11 1 12 0;
#X connect 11 1 14 0;
#X connect 11 2 32 0;
#X connect 11 3 31 0;
#X connect 11 4 16 0;
#X connect 11 5 30 0;
#X connect 12 0 7 0;
#X connect 13 0 7 0;
#X connect 14 0 7 0;
#X connect 15 0 7 0;
#X connect 16 0 7 0;
#X connect 17 0 7 0;
#X connect 18 0 11 0;
#X connect 19 0 7 0;
#X connect 21 0 24 1;
#X connect 21 1 5 0;
#X connect 22 0 21 0;
#X connect 23 0 21 0;
#X connect 24 0 8 0;
#X connect 25 0 24 0;
#X connect 27 0 11 0;
#X connect 28 0 7 0;
#X connect 30 0 7 0;
#X connect 31 0 7 0;
#X connect 32 0 7 0;
#X connect 33 0 8 1;
#X connect 34 0 8 1;
#X connect 35 0 36 0;
#X connect 36 0 29 0;
#X connect 36 0 38 0;
#X connect 39 0 35 0;
#X connect 40 0 7 0;
#X restore 367 816 pd volumeTrain;
#N canvas 0 23 958 665 voder_lizzie2 0;
#X msg 39 121 850 30 1220 80 2810 100;
#X text 37 96 a;
#X text 167 158 e;
#X msg 147 180 430 30 2480 80 3070 100;
#X text 491 147 u;
#X msg 489 166 370 30 950 80 2670 100;
#X text 220 101 i;
#X msg 203 120 240 30 2400 80 2870 100;
#X msg 311 165 235 30 2100 80 2870 100;
#X text 323 144 y;
#X text 396 94 oe;
#X text 559 95 ɶ;
#X msg 381 117 585 30 1710 80 2710 100;
#X msg 538 118 820 30 1530 80 3300 100;
#X obj 160 238 unpack f f f f f f;
#X obj 73 373 line;
#X obj 72 523 bp~ 0 0;
#X obj 145 371 line;
#X floatatom 516 314 5 0 1 0 - - -;
#X obj 516 337 sig~;
#X obj 516 359 *~ 300;
#X obj 369 483 lop~ 4000;
#X obj 204 378 line;
#X obj 196 523 bp~ 0 0;
#X obj 276 376 line;
#X obj 312 367 line;
#X obj 266 529 bp~ 0 0;
#X obj 384 365 line;
#X obj 641 213 osc~ 6;
#X obj 680 237 noise~;
#X obj 741 244 phasor~ 25;
#X obj 689 287 samphold~;
#X obj 643 316 +~;
#X obj 714 372 line;
#X msg 724 329 0 \, 2 100;
#X obj 638 398 s~ vibrato;
#X obj 383 229 r~ vibrato;
#X obj 438 299 +~;
#X obj 678 567 osc~;
#X obj 679 544 +~;
#X obj 692 453 r~ vibrato;
#X obj 678 588 s~ modulator;
#X obj 455 253 r~ modulator;
#X obj 438 361 +~;
#X obj 460 446 phasor~;
#X obj 707 166 hsl 128 15 0 6 0 0 empty empty empty -2 -8 0 10 -262144
-1 -1 0 1;
#X obj 553 222 adc~ 3 4 5;
#X obj 639 356 *~ 2;
#X obj 172 -12 inlet;
#X obj 691 -4 inlet;
#X obj 77 693 outlet~;
#X floatatom 58 419 5 0 0 0 - - -;
#X floatatom 157 425 5 0 0 0 - - -;
#X obj 83 629 hip~ 50;
#X obj 86 590 *~ 1;
#X floatatom 233 424 5 0 0 0 - - -;
#X floatatom 337 408 5 0 0 0 - - -;
#X msg 94 329 \$1 500;
#X msg 152 338 \$1 500;
#X msg 209 323 \$1 500;
#X msg 268 331 \$1 500;
#X msg 307 306 \$1 500;
#X msg 366 315 \$1 500;
#X connect 0 0 14 0;
#X connect 3 0 14 0;
#X connect 5 0 14 0;
#X connect 7 0 14 0;
#X connect 8 0 14 0;
#X connect 12 0 14 0;
#X connect 13 0 14 0;
#X connect 14 0 57 0;
#X connect 14 1 58 0;
#X connect 14 2 59 0;
#X connect 14 3 60 0;
#X connect 14 4 61 0;
#X connect 14 5 62 0;
#X connect 15 0 16 1;
#X connect 15 0 51 0;
#X connect 16 0 54 0;
#X connect 17 0 16 2;
#X connect 17 0 52 0;
#X connect 18 0 19 0;
#X connect 19 0 20 0;
#X connect 20 0 39 0;
#X connect 20 0 43 1;
#X connect 21 0 16 0;
#X connect 21 0 23 0;
#X connect 21 0 26 0;
#X connect 22 0 23 1;
#X connect 22 0 55 0;
#X connect 23 0 54 0;
#X connect 24 0 23 2;
#X connect 25 0 26 1;
#X connect 25 0 56 0;
#X connect 26 0 54 0;
#X connect 27 0 26 2;
#X connect 28 0 32 0;
#X connect 29 0 31 0;
#X connect 30 0 31 1;
#X connect 31 0 32 1;
#X connect 32 0 47 0;
#X connect 33 0 47 1;
#X connect 34 0 33 0;
#X connect 36 0 37 0;
#X connect 37 0 43 0;
#X connect 38 0 41 0;
#X connect 39 0 38 0;
#X connect 40 0 39 1;
#X connect 42 0 37 1;
#X connect 43 0 44 0;
#X connect 44 0 21 0;
#X connect 45 0 28 0;
#X connect 47 0 35 0;
#X connect 48 0 14 0;
#X connect 49 0 18 0;
#X connect 53 0 50 0;
#X connect 54 0 53 0;
#X connect 57 0 15 0;
#X connect 58 0 17 0;
#X connect 59 0 22 0;
#X connect 60 0 24 0;
#X connect 61 0 25 0;
#X connect 62 0 27 0;
#X restore 7 572 pd voder_lizzie2;
#X obj 117 552 hsl 128 15 0 1 0 0 empty empty empty -2 -8 0 10 -262144
-1 -1 5400 1;
#X obj 16 610 *~ 0.4;
#X obj 141 615 *~ 0.4;
#X floatatom 414 497 5 0 0 0 - - -;
#X obj 411 546 max 0;
#X floatatom 585 496 5 0 0 0 - - -;
#X obj 582 560 max 0;
#X obj 88 601 hsl 128 15 0 1 0 0 empty empty empty -2 -8 0 10 -262144
-1 -1 0 1;
#X msg 77 628 \$1 100;
#X obj 78 650 line;
#X obj 244 607 hsl 128 15 0 1 0 0 empty empty empty -2 -8 0 10 -262144
-1 -1 0 1;
#X msg 233 634 \$1 100;
#X obj 234 656 line;
#X msg 37 -16 connect tcp://192.168.212.142:5555;
#X obj 9 180 hsl 128 15 0 1 0 0 empty empty empty -2 -8 0 10 -262144
-1 -1 10053 1;
#X obj 44 99 route deva;
#X obj 145 179 hsl 128 15 0 1 0 0 empty empty empty -2 -8 0 10 -262144
-1 -1 7771 1;
#X obj 279 179 hsl 128 15 0 1 0 0 empty empty empty -2 -8 0 10 -262144
-1 -1 0 1;
#X obj 416 179 hsl 128 15 0 1 0 0 empty empty empty -2 -8 0 10 -262144
-1 -1 6431 1;
#X obj 552 179 hsl 128 15 0 1 0 0 empty empty empty -2 -8 0 10 -262144
-1 -1 2938 1;
#X obj 689 179 hsl 128 15 0 1 0 0 empty empty empty -2 -8 0 10 -262144
-1 -1 5561 1;
#X obj 827 180 hsl 128 15 0 1 0 0 empty empty empty -2 -8 0 10 -262144
-1 -1 3731 1;
#X obj 964 180 hsl 128 15 0 1 0 0 empty empty empty -2 -8 0 10 -262144
-1 -1 8731 1;
#X obj 5 236 s devaSensor;
#X obj 10 442 r devaSensor;
#X obj 8 291 unpack 0 0 0 0 0 0 0 0, f 37;
#X floatatom 826 321 5 0 0 0 - - -;
#X floatatom 964 318 5 0 0 0 - - -;
#X floatatom 8 319 5 0 0 0 - - -;
#X floatatom 157 318 5 0 0 0 - - -;
#X floatatom 294 319 5 0 0 0 - - -;
#X floatatom 414 318 5 0 0 0 - - -;
#X floatatom 554 319 5 0 0 0 - - -;
#X floatatom 689 317 5 0 0 0 - - -;
#X obj 11 370 pack 0 0 0 0 0 0 0 0;
#X obj 12 343 hsl 128 15 0 1 0 0 empty empty empty -2 -8 0 10 -262144
-1 -1 9692 1;
#X obj 148 343 hsl 128 15 0 1 0 0 empty empty empty -2 -8 0 10 -262144
-1 -1 9698 1;
#X obj 282 342 hsl 128 15 0 1 0 0 empty empty empty -2 -8 0 10 -262144
-1 -1 1067 1;
#X obj 419 342 hsl 128 15 0 1 0 0 empty empty empty -2 -8 0 10 -262144
-1 -1 10085 1;
#X obj 555 342 hsl 128 15 0 1 0 0 empty empty empty -2 -8 0 10 -262144
-1 -1 6139 1;
#X obj 692 342 hsl 128 15 0 1 0 0 empty empty empty -2 -8 0 10 -262144
-1 -1 3137 1;
#X obj 830 343 hsl 128 15 0 1 0 0 empty empty empty -2 -8 0 10 -262144
-1 -1 9174 1;
#X obj 967 343 hsl 128 15 0 1 0 0 empty empty empty -2 -8 0 10 -262144
-1 -1 12227 1;
#X obj 9 263 route juan;
#X obj 8 399 s juanSensor;
#N canvas 0 23 821 670 networkrelated 0;
#X msg 508 158 socket publish;
#X obj 476 125 t b b;
#X msg 490 189 connect tcp://87.230.25.115:5556;
#X msg 556 114 connect tcp://192.168.0.16:5556;
#X obj 479 97 bng 15 250 50 0 empty empty empty 17 7 0 10 -262144 -1
-1;
#X obj 549 271 zmq;
#X obj 112 247 list trim;
#X obj 111 224 list prepend send;
#X obj 112 166 r devaTrained;
#X obj 240 116 list trim;
#X obj 239 93 list prepend send;
#X obj 240 35 r juanTrained;
#X obj 110 196 list prepend trained deva;
#X obj 238 65 list prepend trained juan;
#X obj 474 425 list trim;
#X obj 478 397 list prepend send;
#X obj 477 369 list prepend acc juan;
#X obj 479 339 r juanAcc;
#X obj 273 426 list trim;
#X obj 277 398 list prepend send;
#X obj 278 340 r devaAcc;
#X obj 276 370 list prepend acc deva;
#X connect 0 0 5 0;
#X connect 1 0 2 0;
#X connect 1 1 0 0;
#X connect 2 0 5 0;
#X connect 4 0 1 0;
#X connect 6 0 5 0;
#X connect 7 0 6 0;
#X connect 8 0 12 0;
#X connect 9 0 5 0;
#X connect 10 0 9 0;
#X connect 11 0 13 0;
#X connect 12 0 7 0;
#X connect 13 0 10 0;
#X connect 14 0 5 0;
#X connect 15 0 14 0;
#X connect 16 0 15 0;
#X connect 17 0 16 0;
#X connect 18 0 5 0;
#X connect 19 0 18 0;
#X connect 20 0 21 0;
#X connect 21 0 19 0;
#X restore 368 848 pd networkrelated;
#X obj 158 507 s devaTrained;
#N canvas 0 23 1125 779 accaddL 0;
#X obj 139 33 inlet;
#X obj 194 320 outlet;
#X obj 136 119 acc;
#X obj 139 83 unpack 0 0 0 0 0 0 0 0, f 43;
#X obj 172 126 acc;
#X obj 209 128 acc;
#X obj 244 136 acc;
#X obj 286 130 acc;
#X obj 321 138 acc;
#X obj 359 134 acc;
#X obj 394 142 acc;
#X obj 140 167 +;
#X obj 240 179 +;
#X obj 286 178 +;
#X obj 347 180 +;
#X obj 173 203 +;
#X obj 276 216 +;
#X connect 0 0 3 0;
#X connect 2 0 11 0;
#X connect 3 0 2 0;
#X connect 3 1 4 0;
#X connect 3 2 5 0;
#X connect 3 3 6 0;
#X connect 3 4 7 0;
#X connect 3 5 8 0;
#X connect 3 7 10 0;
#X connect 4 0 11 1;
#X connect 5 0 12 0;
#X connect 6 0 12 1;
#X connect 7 0 13 0;
#X connect 8 0 13 1;
#X connect 9 0 14 0;
#X connect 10 0 14 1;
#X connect 11 0 15 0;
#X connect 12 0 1 0;
#X connect 13 0 16 0;
#X connect 14 0 16 1;
#X restore 412 473 pd accaddL;
#N canvas 0 23 1125 779 accaddR 0;
#X obj 139 33 inlet;
#X obj 194 320 outlet;
#X obj 136 119 acc;
#X obj 139 83 unpack 0 0 0 0 0 0 0 0, f 43;
#X obj 172 126 acc;
#X obj 209 128 acc;
#X obj 244 136 acc;
#X obj 286 130 acc;
#X obj 321 138 acc;
#X obj 359 134 acc;
#X obj 394 142 acc;
#X obj 140 167 +;
#X obj 240 179 +;
#X obj 286 178 +;
#X obj 347 180 +;
#X obj 173 203 +;
#X obj 276 216 +;
#X connect 0 0 3 0;
#X connect 2 0 11 0;
#X connect 3 0 2 0;
#X connect 3 1 4 0;
#X connect 3 2 5 0;
#X connect 3 3 6 0;
#X connect 3 4 7 0;
#X connect 3 5 8 0;
#X connect 3 6 9 0;
#X connect 3 7 10 0;
#X connect 4 0 11 1;
#X connect 5 0 15 1;
#X connect 7 0 13 0;
#X connect 8 0 13 1;
#X connect 9 0 14 0;
#X connect 10 0 14 1;
#X connect 11 0 15 0;
#X connect 12 0 15 1;
#X connect 13 0 1 0;
#X restore 586 469 pd accaddR;
#X obj 907 705 hsl 128 15 0 1 0 0 empty empty empty -2 -8 0 10 -262144
-1 -1 0 1;
#X msg 896 732 \$1 100;
#X obj 897 754 line;
#X obj 836 691 *~ 1;
#N canvas 281 23 1322 746 trainingVoder 0;
#X msg 559 301 help;
#X msg 602 301 train;
#X obj 273 235 list trim;
#X obj 34 236 list prepend add;
#X obj 34 258 list trim;
#X obj 273 213 list prepend map;
#X obj 338 16 inlet;
#X obj 429 304 ml.ann;
#X obj 34 207 list prepend;
#X obj 108 39 loadbang;
#X text 386 17 sensor data in pack of 8;
#X msg 650 84 num_hidden 5;
#X obj 420 111 t b b b b b b;
#X msg 652 131 input_activation_function 1;
#X msg 652 107 hidden_activation_function 1;
#X msg 652 154 training_rate 0.2;
#X msg 652 176 max_epochs 4000;
#X msg 648 41 scaling 1;
#X msg 652 200 min_epochs 500;
#X obj 419 70 loadbang;
#X msg 654 302 read;
#X obj 468 366 print ann;
#X obj 248 92 cyclone/gate 2;
#X msg 245 56 1;
#X msg 289 56 2;
#X obj 34 174 cyclone/gate;
#X obj 34 143 tgl 15 0 empty empty empty 17 7 0 10 -262144 -1 -1 0
1;
#X msg 648 63 num_outputs 3;
#X msg 110 70 0 0 0;
#X text 288 37 map;
#X obj 505 54 bng 15 250 50 0 empty empty empty 17 7 0 10 -262144 -1
-1;
#X msg 559 326 clear;
#X obj 427 545 outlet;
#X msg 648 17 mode 1;
#X text 33 313 a;
#X text 40 488 e;
#X text 43 576 u;
#X text 32 359 i;
#X text 42 532 y;
#X text 29 399 oe;
#X text 36 442 ɶ;
#X obj 428 512 pack 0 30 0 80 0 100;
#X msg 35 338 850 1220 2810;
#X msg 37 378 240 2400 2870;
#X msg 39 421 585 1710 2710;
#X msg 39 465 820 1530 3300;
#X msg 41 509 430 2480 3070;
#X msg 41 554 235 2100 2870;
#X msg 41 595 370 950 2670;
#X obj 428 426 unpack 0 0 0;
#X obj 402 457 max 100;
#X obj 475 460 max 800;
#X obj 550 468 max 2000;
#X obj 478 486 min 3000;
#X obj 543 490 min 3500;
#X obj 398 484 min 1000;
#X msg 724 270 write /Users/mikst/Documents/_APPLICATION/LINK/LINK_prototype/PD/testJ.data
;
#X msg 736 367 read /Users/mikst/Documents/_APPLICATION/LINK/LINK_prototype/PD/testJ.data
;
#X connect 0 0 7 0;
#X connect 1 0 7 0;
#X connect 2 0 7 0;
#X connect 3 0 4 0;
#X connect 4 0 7 0;
#X connect 5 0 2 0;
#X connect 6 0 22 1;
#X connect 7 0 49 0;
#X connect 7 1 21 0;
#X connect 8 0 3 0;
#X connect 9 0 28 0;
#X connect 11 0 7 0;
#X connect 12 0 16 0;
#X connect 12 0 18 0;
#X connect 12 1 14 0;
#X connect 12 1 13 0;
#X connect 12 1 15 0;
#X connect 12 2 11 0;
#X connect 12 3 27 0;
#X connect 12 4 17 0;
#X connect 12 5 33 0;
#X connect 13 0 7 0;
#X connect 14 0 7 0;
#X connect 15 0 7 0;
#X connect 16 0 7 0;
#X connect 17 0 7 0;
#X connect 18 0 7 0;
#X connect 19 0 12 0;
#X connect 20 0 7 0;
#X connect 22 0 25 1;
#X connect 22 1 5 0;
#X connect 23 0 22 0;
#X connect 24 0 22 0;
#X connect 25 0 8 0;
#X connect 26 0 25 0;
#X connect 27 0 7 0;
#X connect 28 0 8 1;
#X connect 30 0 12 0;
#X connect 31 0 7 0;
#X connect 33 0 7 0;
#X connect 41 0 32 0;
#X connect 42 0 8 1;
#X connect 43 0 8 1;
#X connect 44 0 8 1;
#X connect 45 0 8 1;
#X connect 46 0 8 1;
#X connect 47 0 8 1;
#X connect 48 0 8 1;
#X connect 49 0 50 0;
#X connect 49 1 51 0;
#X connect 49 2 52 0;
#X connect 50 0 55 0;
#X connect 51 0 53 0;
#X connect 52 0 54 0;
#X connect 53 0 41 2;
#X connect 54 0 41 4;
#X connect 55 0 41 0;
#X connect 56 0 7 0;
#X connect 57 0 7 0;
#X restore 758 488 pd trainingVoder;
#N canvas 0 23 958 665 voder_lizzie 0;
#X msg 39 121 850 30 1220 80 2810 100;
#X text 37 96 a;
#X text 167 158 e;
#X msg 147 180 430 30 2480 80 3070 100;
#X text 491 147 u;
#X msg 489 166 370 30 950 80 2670 100;
#X text 220 101 i;
#X msg 203 120 240 30 2400 80 2870 100;
#X msg 311 165 235 30 2100 80 2870 100;
#X text 323 144 y;
#X text 396 94 oe;
#X text 559 95 ɶ;
#X msg 381 117 585 30 1710 80 2710 100;
#X msg 538 118 820 30 1530 80 3300 100;
#X obj 160 238 unpack f f f f f f;
#X obj 73 373 line;
#X obj 72 523 bp~ 0 0;
#X obj 145 371 line;
#X floatatom 516 314 5 0 1 0 - - -;
#X obj 516 337 sig~;
#X obj 516 359 *~ 300;
#X obj 369 483 lop~ 4000;
#X obj 204 378 line;
#X obj 196 523 bp~ 0 0;
#X obj 276 376 line;
#X obj 312 367 line;
#X obj 266 529 bp~ 0 0;
#X obj 384 365 line;
#X obj 641 213 osc~ 6;
#X obj 680 237 noise~;
#X obj 741 244 phasor~ 25;
#X obj 689 287 samphold~;
#X obj 643 316 +~;
#X obj 714 372 line;
#X msg 724 329 0 \, 2 100;
#X obj 638 398 s~ vibrato;
#X obj 383 229 r~ vibrato;
#X obj 438 299 +~;
#X obj 678 567 osc~;
#X obj 679 544 +~;
#X obj 692 453 r~ vibrato;
#X obj 678 588 s~ modulator;
#X obj 455 253 r~ modulator;
#X obj 438 361 +~;
#X obj 460 446 phasor~;
#X msg 152 338 \$1 500;
#X msg 268 332 \$1 500;
#X msg 366 315 \$1 500;
#X obj 707 166 hsl 128 15 0 6 0 0 empty empty empty -2 -8 0 10 -262144
-1 -1 0 1;
#X obj 553 222 adc~ 3 4 5;
#X obj 639 356 *~ 2;
#X obj 172 -12 inlet;
#X obj 691 -4 inlet;
#X obj 77 693 outlet~;
#X msg 93 329 \$1 500;
#X msg 209 323 \$1 500;
#X msg 307 306 \$1 500;
#X floatatom 58 419 5 0 0 0 - - -;
#X floatatom 157 425 5 0 0 0 - - -;
#X obj 83 629 hip~ 50;
#X obj 86 590 *~ 1;
#X floatatom 233 424 5 0 0 0 - - -;
#X floatatom 337 408 5 0 0 0 - - -;
#X connect 0 0 14 0;
#X connect 3 0 14 0;
#X connect 5 0 14 0;
#X connect 7 0 14 0;
#X connect 8 0 14 0;
#X connect 12 0 14 0;
#X connect 13 0 14 0;
#X connect 14 0 54 0;
#X connect 14 1 45 0;
#X connect 14 2 55 0;
#X connect 14 3 46 0;
#X connect 14 4 56 0;
#X connect 14 5 47 0;
#X connect 15 0 16 1;
#X connect 15 0 57 0;
#X connect 16 0 60 0;
#X connect 17 0 16 2;
#X connect 17 0 58 0;
#X connect 18 0 19 0;
#X connect 19 0 20 0;
#X connect 20 0 39 0;
#X connect 20 0 43 1;
#X connect 21 0 16 0;
#X connect 21 0 23 0;
#X connect 21 0 26 0;
#X connect 22 0 23 1;
#X connect 22 0 61 0;
#X connect 23 0 60 0;
#X connect 24 0 23 2;
#X connect 25 0 26 1;
#X connect 25 0 62 0;
#X connect 26 0 60 0;
#X connect 27 0 26 2;
#X connect 28 0 32 0;
#X connect 29 0 31 0;
#X connect 30 0 31 1;
#X connect 31 0 32 1;
#X connect 32 0 50 0;
#X connect 33 0 50 1;
#X connect 34 0 33 0;
#X connect 36 0 37 0;
#X connect 37 0 43 0;
#X connect 38 0 41 0;
#X connect 39 0 38 0;
#X connect 40 0 39 1;
#X connect 42 0 37 1;
#X connect 43 0 44 0;
#X connect 44 0 21 0;
#X connect 45 0 17 0;
#X connect 46 0 24 0;
#X connect 47 0 27 0;
#X connect 48 0 28 0;
#X connect 50 0 35 0;
#X connect 51 0 14 0;
#X connect 52 0 18 0;
#X connect 54 0 15 0;
#X connect 55 0 22 0;
#X connect 56 0 25 0;
#X connect 59 0 53 0;
#X connect 60 0 59 0;
#X restore 908 586 pd voder_lizzie;
#X obj 1012 565 hsl 128 15 0 1 0 0 empty empty empty -2 -8 0 10 -262144
-1 -1 2400 1;
#N canvas 0 23 958 665 voder_lizzie2 0;
#X msg 39 121 850 30 1220 80 2810 100;
#X text 37 96 a;
#X text 167 158 e;
#X msg 147 180 430 30 2480 80 3070 100;
#X text 491 147 u;
#X msg 489 166 370 30 950 80 2670 100;
#X text 220 101 i;
#X msg 203 120 240 30 2400 80 2870 100;
#X msg 311 165 235 30 2100 80 2870 100;
#X text 323 144 y;
#X text 396 94 oe;
#X text 559 95 ɶ;
#X msg 381 117 585 30 1710 80 2710 100;
#X msg 538 118 820 30 1530 80 3300 100;
#X obj 160 238 unpack f f f f f f;
#X obj 73 373 line;
#X obj 72 523 bp~ 0 0;
#X obj 145 371 line;
#X floatatom 516 314 5 0 1 0 - - -;
#X obj 516 337 sig~;
#X obj 516 359 *~ 300;
#X obj 369 483 lop~ 4000;
#X obj 204 378 line;
#X obj 196 523 bp~ 0 0;
#X obj 276 376 line;
#X obj 312 367 line;
#X obj 266 529 bp~ 0 0;
#X obj 384 365 line;
#X obj 641 213 osc~ 6;
#X obj 680 237 noise~;
#X obj 741 244 phasor~ 25;
#X obj 689 287 samphold~;
#X obj 643 316 +~;
#X obj 714 372 line;
#X msg 724 329 0 \, 2 100;
#X obj 638 398 s~ vibrato;
#X obj 383 229 r~ vibrato;
#X obj 438 299 +~;
#X obj 678 567 osc~;
#X obj 679 544 +~;
#X obj 692 453 r~ vibrato;
#X obj 678 588 s~ modulator;
#X obj 455 253 r~ modulator;
#X obj 438 361 +~;
#X obj 460 446 phasor~;
#X obj 707 166 hsl 128 15 0 6 0 0 empty empty empty -2 -8 0 10 -262144
-1 -1 0 1;
#X obj 553 222 adc~ 3 4 5;
#X obj 639 356 *~ 2;
#X obj 172 -12 inlet;
#X obj 691 -4 inlet;
#X obj 77 693 outlet~;
#X floatatom 58 419 5 0 0 0 - - -;
#X floatatom 157 425 5 0 0 0 - - -;
#X obj 83 629 hip~ 50;
#X obj 86 590 *~ 1;
#X floatatom 233 424 5 0 0 0 - - -;
#X floatatom 337 408 5 0 0 0 - - -;
#X msg 94 329 \$1 500;
#X msg 152 338 \$1 500;
#X msg 209 323 \$1 500;
#X msg 268 331 \$1 500;
#X msg 307 306 \$1 500;
#X msg 366 315 \$1 500;
#X connect 0 0 14 0;
#X connect 3 0 14 0;
#X connect 5 0 14 0;
#X connect 7 0 14 0;
#X connect 8 0 14 0;
#X connect 12 0 14 0;
#X connect 13 0 14 0;
#X connect 14 0 57 0;
#X connect 14 1 58 0;
#X connect 14 2 59 0;
#X connect 14 3 60 0;
#X connect 14 4 61 0;
#X connect 14 5 62 0;
#X connect 15 0 16 1;
#X connect 15 0 51 0;
#X connect 16 0 54 0;
#X connect 17 0 16 2;
#X connect 17 0 52 0;
#X connect 18 0 19 0;
#X connect 19 0 20 0;
#X connect 20 0 39 0;
#X connect 20 0 43 1;
#X connect 21 0 16 0;
#X connect 21 0 23 0;
#X connect 21 0 26 0;
#X connect 22 0 23 1;
#X connect 22 0 55 0;
#X connect 23 0 54 0;
#X connect 24 0 23 2;
#X connect 25 0 26 1;
#X connect 25 0 56 0;
#X connect 26 0 54 0;
#X connect 27 0 26 2;
#X connect 28 0 32 0;
#X connect 29 0 31 0;
#X connect 30 0 31 1;
#X connect 31 0 32 1;
#X connect 32 0 47 0;
#X connect 33 0 47 1;
#X connect 34 0 33 0;
#X connect 36 0 37 0;
#X connect 37 0 43 0;
#X connect 38 0 41 0;
#X connect 39 0 38 0;
#X connect 40 0 39 1;
#X connect 42 0 37 1;
#X connect 43 0 44 0;
#X connect 44 0 21 0;
#X connect 45 0 28 0;
#X connect 47 0 35 0;
#X connect 48 0 14 0;
#X connect 49 0 18 0;
#X connect 53 0 50 0;
#X connect 54 0 53 0;
#X connect 57 0 15 0;
#X connect 58 0 17 0;
#X connect 59 0 22 0;
#X connect 60 0 24 0;
#X connect 61 0 25 0;
#X connect 62 0 27 0;
#X restore 756 585 pd voder_lizzie2;
#X obj 866 565 hsl 128 15 0 1 0 0 empty empty empty -2 -8 0 10 -262144
-1 -1 2400 1;
#X obj 765 623 *~ 0.4;
#X obj 890 628 *~ 0.4;
#X floatatom 1157 509 5 0 0 0 - - -;
#X obj 1160 559 max 0;
#X floatatom 1334 509 5 0 0 0 - - -;
#X obj 1331 573 max 0;
#X obj 837 614 hsl 128 15 0 1 0 0 empty empty empty -2 -8 0 10 -262144
-1 -1 0 1;
#X msg 826 641 \$1 100;
#X obj 827 663 line;
#X obj 993 620 hsl 128 15 0 1 0 0 empty empty empty -2 -8 0 10 -262144
-1 -1 484 1;
#X msg 982 647 \$1 100;
#X obj 983 669 line;
#N canvas 0 23 1125 779 accaddL 0;
#X obj 139 33 inlet;
#X obj 194 320 outlet;
#X obj 136 119 acc;
#X obj 139 83 unpack 0 0 0 0 0 0 0 0, f 43;
#X obj 172 126 acc;
#X obj 209 128 acc;
#X obj 244 136 acc;
#X obj 286 130 acc;
#X obj 321 138 acc;
#X obj 359 134 acc;
#X obj 394 142 acc;
#X obj 140 167 +;
#X obj 240 179 +;
#X obj 286 178 +;
#X obj 347 180 +;
#X obj 173 203 +;
#X obj 276 216 +;
#X connect 0 0 3 0;
#X connect 2 0 11 0;
#X connect 3 0 2 0;
#X connect 3 1 4 0;
#X connect 3 2 5 0;
#X connect 3 3 6 0;
#X connect 3 4 7 0;
#X connect 3 5 8 0;
#X connect 3 7 10 0;
#X connect 4 0 11 1;
#X connect 5 0 12 0;
#X connect 6 0 12 1;
#X connect 7 0 13 0;
#X connect 8 0 13 1;
#X connect 9 0 14 0;
#X connect 10 0 14 1;
#X connect 11 0 15 0;
#X connect 12 0 15 1;
#X connect 13 0 16 0;
#X connect 14 0 16 1;
#X connect 15 0 1 0;
#X restore 1161 486 pd accaddL;
#N canvas 0 23 1125 779 accaddR 0;
#X obj 139 33 inlet;
#X obj 194 320 outlet;
#X obj 136 119 acc;
#X obj 139 83 unpack 0 0 0 0 0 0 0 0, f 43;
#X obj 172 126 acc;
#X obj 209 128 acc;
#X obj 244 136 acc;
#X obj 286 130 acc;
#X obj 321 138 acc;
#X obj 359 134 acc;
#X obj 394 142 acc;
#X obj 140 167 +;
#X obj 240 179 +;
#X obj 286 178 +;
#X obj 347 180 +;
#X obj 173 203 +;
#X obj 276 216 +;
#X connect 0 0 3 0;
#X connect 2 0 11 0;
#X connect 3 0 2 0;
#X connect 3 1 4 0;
#X connect 3 2 5 0;
#X connect 3 3 6 0;
#X connect 3 4 7 0;
#X connect 3 5 8 0;
#X connect 3 6 9 0;
#X connect 3 7 10 0;
#X connect 4 0 11 1;
#X connect 5 0 15 1;
#X connect 7 0 13 0;
#X connect 8 0 13 1;
#X connect 9 0 14 0;
#X connect 10 0 14 1;
#X connect 11 0 15 0;
#X connect 12 0 15 1;
#X connect 13 0 16 0;
#X connect 14 0 16 1;
#X connect 16 0 1 0;
#X restore 1335 482 pd accaddR;
#X obj 759 455 r juanSensor;
#X obj 906 520 s juanTrained;
#X obj 489 684 hsl 128 15 0 1 0 0 empty empty empty -2 -8 0 10 -262144
-1 -1 12700 1;
#X floatatom 448 614 5 0 0 0 - - -;
#X floatatom 627 623 5 0 0 0 - - -;
#X obj 290 93 bng 15 250 50 0 empty empty empty 17 7 0 10 -262144 -1
-1;
#X obj 154 257 bng 15 250 50 0 empty empty empty 17 7 0 10 -262144
-1 -1;
#X obj 1160 585 min 1;
#X obj 1332 600 min 1;
#X obj 1196 704 s juanAcc;
#X obj 1172 668 pack 0 0;
#X obj 366 644 pack 0 0;
#X obj 390 680 s devaAcc;
#N canvas 0 23 1211 614 voiceTrigger 0;
#X obj 319 251 ml.svm;
#X obj 43 251 list prepend;
#X obj 43 279 list prepend add;
#X obj 43 305 list trim;
#X obj 318 218 list trim;
#X obj 318 192 list prepend map;
#X obj 176 82 + 1;
#X obj 317 111 bng 15 250 50 0 empty empty empty 17 7 0 10 -262144
-1 -1;
#X obj 156 112 bng 15 250 50 0 empty empty empty 17 7 0 10 -262144
-1 -1;
#X obj 156 52 hradio 15 1 0 2 empty empty train/map 0 -8 0 10 -262144
-1 -1 1;
#X obj 125 208 hradio 15 1 0 8 empty empty guesture 0 -8 0 10 -262144
-1 -1 0;
#X obj 125 226 + 1;
#X floatatom 318 299 5 0 0 0 - - -;
#X msg 498 219 clear;
#X msg 500 246 train;
#X msg 501 274 help;
#X msg 630 141 null_rejection 1;
#X msg 631 167 null_rejection_coeff 0.5;
#X text 16 178 4: set which gesture you are trainig;
#X text 41 150 6: repeat 4-5 to add all the guestures;
#X obj 632 68 loadbang;
#X obj 633 90 delay 500;
#X obj 632 114 t b b;
#X obj 318 329 change;
#X floatatom 147 249 5 0 0 0 - - -;
#X obj 58 208 loadbang;
#X obj 425 24 inlet;
#X obj 316 379 outlet;
#X obj 176 106 cyclone/gate 2 1;
#X msg 723 270 write /Users/mikst/Documents/_APPLICATION/LINK/LINK_prototype/PD/voiceD.data
;
#X msg 736 367 read /Users/mikst/Documents/_APPLICATION/LINK/LINK_prototype/PD/voiceD.data
;
#X connect 0 0 12 0;
#X connect 1 0 2 0;
#X connect 2 0 3 0;
#X connect 3 0 0 0;
#X connect 4 0 0 0;
#X connect 5 0 4 0;
#X connect 6 0 28 0;
#X connect 9 0 6 0;
#X connect 10 0 11 0;
#X connect 11 0 1 1;
#X connect 11 0 24 0;
#X connect 12 0 23 0;
#X connect 13 0 0 0;
#X connect 14 0 0 0;
#X connect 15 0 0 0;
#X connect 16 0 0 0;
#X connect 17 0 0 0;
#X connect 20 0 21 0;
#X connect 21 0 22 0;
#X connect 22 0 16 0;
#X connect 22 1 17 0;
#X connect 23 0 27 0;
#X connect 25 0 10 0;
#X connect 26 0 28 1;
#X connect 28 0 8 0;
#X connect 28 0 1 0;
#X connect 28 1 7 0;
#X connect 28 1 5 0;
#X connect 29 0 0 0;
#X connect 30 0 0 0;
#X restore 238 433 pd voiceTrigger;
#N canvas 0 23 1335 716 triggerSoundfile 0;
#X obj 68 449 soundfiler;
#X floatatom 68 473 10 0 0 0 - - -;
#X text 66 403 open sound file;
#X obj 67 379 loadbang;
#X obj 67 497 array define sample1;
#X obj 363 447 soundfiler;
#X floatatom 363 471 10 0 0 0 - - -;
#X text 361 401 open sound file;
#X obj 362 495 array define sample2;
#X obj 655 443 soundfiler;
#X floatatom 655 467 10 0 0 0 - - -;
#X text 653 397 open sound file;
#X obj 654 491 array define sample3;
#X obj 213 237 tabplay~ sample1;
#X obj 230 209 bng 15 250 50 0 empty empty empty 17 7 0 10 -262144
-1 -1;
#X obj 345 238 tabplay~ sample2;
#X obj 475 238 tabplay~ sample3;
#X obj 360 211 bng 15 250 50 0 empty empty empty 17 7 0 10 -262144
-1 -1;
#X obj 489 205 bng 15 250 50 0 empty empty empty 17 7 0 10 -262144
-1 -1;
#X obj 346 279 outlet~;
#X obj 407 47 inlet;
#X msg 68 425 read -resize voice/askMe.wav sample1;
#X msg 363 423 read -resize voice/askYou.wav sample2;
#X msg 655 419 read -resize voice/artificialMe.wav sample3;
#X obj 1014 443 soundfiler;
#X floatatom 1014 467 10 0 0 0 - - -;
#X text 1012 397 open sound file;
#X obj 1013 491 array define sample4;
#X msg 1014 420 read -resize voice/artigicialYou.wav sample4;
#X obj 637 204 bng 15 250 50 0 empty empty empty 17 7 0 10 -262144
-1 -1;
#X obj 623 237 tabplay~ sample4;
#X obj 391 128 sel 2 3 4 5;
#X obj 409 88 spigot;
#X msg 619 72 1;
#X msg 568 61 0;
#X obj 319 150 t b b;
#X obj 387 160 t b b;
#X obj 454 161 t b b;
#X obj 522 171 t b b;
#X msg 470 66 1;
#X obj 485 26 loadbang;
#X connect 0 0 1 0;
#X connect 3 0 21 0;
#X connect 3 0 22 0;
#X connect 3 0 23 0;
#X connect 5 0 6 0;
#X connect 9 0 10 0;
#X connect 13 0 19 0;
#X connect 13 1 33 0;
#X connect 14 0 13 0;
#X connect 15 0 19 0;
#X connect 15 1 33 0;
#X connect 16 0 19 0;
#X connect 16 1 33 0;
#X connect 17 0 15 0;
#X connect 18 0 16 0;
#X connect 20 0 32 0;
#X connect 21 0 0 0;
#X connect 22 0 5 0;
#X connect 23 0 9 0;
#X connect 24 0 25 0;
#X connect 28 0 24 0;
#X connect 29 0 30 0;
#X connect 30 0 19 0;
#X connect 30 1 33 0;
#X connect 31 0 35 0;
#X connect 31 1 36 0;
#X connect 31 2 37 0;
#X connect 31 3 38 0;
#X connect 32 0 31 0;
#X connect 33 0 32 1;
#X connect 34 0 32 1;
#X connect 35 0 14 0;
#X connect 35 1 34 0;
#X connect 36 0 17 0;
#X connect 36 1 34 0;
#X connect 37 0 18 0;
#X connect 37 1 34 0;
#X connect 38 0 29 0;
#X connect 38 1 34 0;
#X connect 39 0 32 1;
#X connect 40 0 39 0;
#X restore 522 740 pd triggerSoundfile;
#N canvas 0 23 1211 614 voiceTrigger2 0;
#X obj 319 251 ml.svm;
#X obj 43 251 list prepend;
#X obj 43 279 list prepend add;
#X obj 43 305 list trim;
#X obj 318 218 list trim;
#X obj 318 192 list prepend map;
#X obj 176 82 + 1;
#X obj 317 111 bng 15 250 50 0 empty empty empty 17 7 0 10 -262144
-1 -1;
#X obj 156 112 bng 15 250 50 0 empty empty empty 17 7 0 10 -262144
-1 -1;
#X obj 156 52 hradio 15 1 0 2 empty empty train/map 0 -8 0 10 -262144
-1 -1 1;
#X obj 125 208 hradio 15 1 0 8 empty empty guesture 0 -8 0 10 -262144
-1 -1 0;
#X obj 125 226 + 1;
#X floatatom 318 299 5 0 0 0 - - -;
#X msg 498 219 clear;
#X msg 500 246 train;
#X msg 501 274 help;
#X msg 630 141 null_rejection 1;
#X msg 631 167 null_rejection_coeff 0.5;
#X text 16 178 4: set which gesture you are trainig;
#X text 41 150 6: repeat 4-5 to add all the guestures;
#X obj 632 68 loadbang;
#X obj 633 90 delay 500;
#X obj 632 114 t b b;
#X obj 318 329 change;
#X floatatom 147 249 5 0 0 0 - - -;
#X obj 58 208 loadbang;
#X obj 425 24 inlet;
#X obj 316 379 outlet;
#X obj 176 106 cyclone/gate 2 1;
#X msg 736 367 read /Users/mikst/Documents/_APPLICATION/LINK/LINK_prototype/PD/voiceJ.data
;
#X msg 723 270 write /Users/mikst/Documents/_APPLICATION/LINK/LINK_prototype/PD/voiceJ.data
;
#X connect 0 0 12 0;
#X connect 1 0 2 0;
#X connect 2 0 3 0;
#X connect 3 0 0 0;
#X connect 4 0 0 0;
#X connect 5 0 4 0;
#X connect 6 0 28 0;
#X connect 9 0 6 0;
#X connect 10 0 11 0;
#X connect 11 0 1 1;
#X connect 11 0 24 0;
#X connect 12 0 23 0;
#X connect 13 0 0 0;
#X connect 14 0 0 0;
#X connect 15 0 0 0;
#X connect 16 0 0 0;
#X connect 17 0 0 0;
#X connect 20 0 21 0;
#X connect 21 0 22 0;
#X connect 22 0 16 0;
#X connect 22 1 17 0;
#X connect 23 0 27 0;
#X connect 25 0 10 0;
#X connect 26 0 28 1;
#X connect 28 0 8 0;
#X connect 28 0 1 0;
#X connect 28 1 7 0;
#X connect 28 1 5 0;
#X connect 29 0 0 0;
#X connect 30 0 0 0;
#X restore 919 419 pd voiceTrigger2;
#N canvas 0 23 1335 716 triggerSoundfile2 0;
#X obj 68 449 soundfiler;
#X floatatom 68 473 10 0 0 0 - - -;
#X text 66 403 open sound file;
#X obj 67 379 loadbang;
#X obj 363 447 soundfiler;
#X floatatom 363 471 10 0 0 0 - - -;
#X text 361 401 open sound file;
#X obj 655 443 soundfiler;
#X floatatom 655 467 10 0 0 0 - - -;
#X text 653 397 open sound file;
#X obj 346 279 outlet~;
#X obj 1014 443 soundfiler;
#X floatatom 1014 467 10 0 0 0 - - -;
#X text 1012 397 open sound file;
#X obj 67 497 array define sample5;
#X obj 362 495 array define sample6;
#X obj 654 491 array define sample7;
#X obj 1013 491 array define sample8;
#X obj 213 237 tabplay~ sample5;
#X obj 345 238 tabplay~ sample6;
#X obj 475 238 tabplay~ sample7;
#X obj 623 237 tabplay~ sample8;
#X msg 68 425 read -resize voice/machineLearning.wav sample5;
#X msg 363 423 read -resize voice/itisLearning.wav sample6;
#X msg 655 419 read -resize voice/whatisIntelligence.wav sample7;
#X msg 1014 420 read -resize voice/whatisitLearning.wav sample8;
#X obj 224 203 bng 15 250 50 0 empty empty empty 17 7 0 10 -262144
-1 -1;
#X obj 354 205 bng 15 250 50 0 empty empty empty 17 7 0 10 -262144
-1 -1;
#X obj 483 199 bng 15 250 50 0 empty empty empty 17 7 0 10 -262144
-1 -1;
#X obj 418 57 inlet;
#X obj 627 202 bng 15 250 50 0 empty empty empty 17 7 0 10 -262144
-1 -1;
#X obj 401 133 sel 2 3 4 5;
#X obj 419 93 spigot;
#X msg 629 77 1;
#X msg 578 66 0;
#X obj 329 155 t b b;
#X obj 397 165 t b b;
#X obj 464 166 t b b;
#X obj 532 176 t b b;
#X msg 509 63 1;
#X obj 507 34 loadbang;
#X connect 0 0 1 0;
#X connect 3 0 22 0;
#X connect 3 0 23 0;
#X connect 3 0 24 0;
#X connect 4 0 5 0;
#X connect 7 0 8 0;
#X connect 11 0 12 0;
#X connect 18 0 10 0;
#X connect 18 1 33 0;
#X connect 19 0 10 0;
#X connect 19 1 33 0;
#X connect 20 0 10 0;
#X connect 20 1 33 0;
#X connect 21 0 10 0;
#X connect 21 1 33 0;
#X connect 22 0 0 0;
#X connect 23 0 4 0;
#X connect 24 0 7 0;
#X connect 25 0 11 0;
#X connect 26 0 18 0;
#X connect 27 0 19 0;
#X connect 28 0 20 0;
#X connect 29 0 32 0;
#X connect 30 0 21 0;
#X connect 31 0 35 0;
#X connect 31 1 36 0;
#X connect 31 2 37 0;
#X connect 31 3 38 0;
#X connect 32 0 31 0;
#X connect 33 0 32 1;
#X connect 34 0 32 1;
#X connect 35 0 26 0;
#X connect 35 1 34 0;
#X connect 36 0 27 0;
#X connect 36 1 34 0;
#X connect 37 0 28 0;
#X connect 37 1 34 0;
#X connect 38 0 30 0;
#X connect 38 1 34 0;
#X connect 39 0 32 1;
#X connect 40 0 39 0;
#X restore 713 735 pd triggerSoundfile2;
#X obj 714 704 change;
#X obj 909 452 s juanVoice;
#X obj 703 638 r juanVoice;
#X obj 274 480 s devaVoice;
#X obj 369 721 r devaVoice;
#X obj 469 722 change;
#X text 735 373 belly;
#X text 318 364 belly;
#X obj 1122 784 sel 1;
#X floatatom 1190 625 5 0 0 0 - - -;
#X obj 933 833 + 1;
#X obj 981 801 random 4;
#X obj 194 814 sel 1;
#X obj 256 823 sel 1;
#X obj 264 784 < 0.3;
#X obj 122 836 + 1;
#X obj 120 810 random 4;
#X obj 190 766 > 0.2;
#X obj 411 572 min 1;
#X obj 584 583 min 1;
#X obj 413 520 scale 0.05 0.1 0 1;
#X obj 586 535 scale 0.05 0.1 0 1;
#X obj 1161 533 scale 0.02 0.3 0 1;
#X obj 1335 548 scale 0.02 0.3 0 1;
#X obj 1131 826 bng 15 250 50 0 empty empty empty 17 7 0 10 -262144
-1 -1;
#X obj 1118 736 > 0.1;
#X connect 0 0 7 0;
#X connect 0 0 11 0;
#X connect 0 0 26 0;
#X connect 0 0 29 0;
#X connect 1 0 0 0;
#X connect 3 0 6 0;
#X connect 3 0 27 0;
#X connect 3 1 23 0;
#X connect 3 2 1 0;
#X connect 4 0 3 0;
#X connect 5 0 0 0;
#X connect 6 0 0 0;
#X connect 8 0 14 0;
#X connect 8 1 15 0;
#X connect 8 2 16 0;
#X connect 8 3 17 0;
#X connect 8 4 18 0;
#X connect 8 5 19 0;
#X connect 8 6 9 0;
#X connect 8 7 10 0;
#X connect 9 0 24 6;
#X connect 9 0 57 0;
#X connect 10 0 24 7;
#X connect 10 0 58 0;
#X connect 12 0 20 0;
#X connect 14 0 24 0;
#X connect 14 0 50 0;
#X connect 15 0 24 1;
#X connect 15 0 52 0;
#X connect 16 0 24 2;
#X connect 17 0 24 3;
#X connect 17 0 54 0;
#X connect 18 0 24 4;
#X connect 18 0 55 0;
#X connect 19 0 24 5;
#X connect 19 0 56 0;
#X connect 20 0 21 0;
#X connect 21 0 22 1;
#X connect 22 0 13 0;
#X connect 22 0 13 1;
#X connect 23 0 0 0;
#X connect 24 0 59 0;
#X connect 26 0 51 0;
#X connect 26 0 79 0;
#X connect 27 0 0 0;
#X connect 28 0 0 0;
#X connect 31 0 32 0;
#X connect 31 0 35 0;
#X connect 31 0 82 0;
#X connect 32 0 38 0;
#X connect 33 0 32 1;
#X connect 35 0 37 0;
#X connect 36 0 35 1;
#X connect 37 0 22 0;
#X connect 38 0 22 0;
#X connect 39 0 119 0;
#X connect 40 0 143 0;
#X connect 41 0 119 1;
#X connect 41 0 146 0;
#X connect 42 0 144 0;
#X connect 43 0 44 0;
#X connect 44 0 45 0;
#X connect 45 0 37 1;
#X connect 46 0 47 0;
#X connect 47 0 48 0;
#X connect 48 0 38 1;
#X connect 49 0 0 0;
#X connect 51 0 8 0;
#X connect 51 0 113 0;
#X connect 60 0 31 0;
#X connect 60 0 83 0;
#X connect 60 0 84 0;
#X connect 60 0 121 0;
#X connect 61 0 64 0;
#X connect 61 1 65 0;
#X connect 61 2 66 0;
#X connect 61 3 67 0;
#X connect 61 4 68 0;
#X connect 61 5 69 0;
#X connect 61 6 62 0;
#X connect 61 7 63 0;
#X connect 62 0 70 6;
#X connect 62 0 77 0;
#X connect 63 0 70 7;
#X connect 63 0 78 0;
#X connect 64 0 70 0;
#X connect 64 0 71 0;
#X connect 65 0 70 1;
#X connect 65 0 72 0;
#X connect 66 0 70 2;
#X connect 66 0 73 0;
#X connect 67 0 70 3;
#X connect 67 0 74 0;
#X connect 68 0 70 4;
#X connect 68 0 75 0;
#X connect 69 0 70 5;
#X connect 69 0 76 0;
#X connect 70 0 80 0;
#X connect 79 0 61 0;
#X connect 79 0 114 0;
#X connect 83 0 39 0;
#X connect 83 0 145 0;
#X connect 84 0 41 0;
#X connect 85 0 86 0;
#X connect 86 0 87 0;
#X connect 87 0 88 1;
#X connect 88 0 13 0;
#X connect 88 0 13 1;
#X connect 89 0 90 0;
#X connect 89 0 92 0;
#X connect 89 0 109 0;
#X connect 90 0 95 0;
#X connect 91 0 90 1;
#X connect 92 0 94 0;
#X connect 93 0 92 1;
#X connect 94 0 88 0;
#X connect 95 0 88 0;
#X connect 96 0 118 0;
#X connect 97 0 115 0;
#X connect 98 0 118 1;
#X connect 98 0 148 0;
#X connect 98 0 150 0;
#X connect 99 0 116 0;
#X connect 100 0 101 0;
#X connect 101 0 102 0;
#X connect 102 0 94 1;
#X connect 103 0 104 0;
#X connect 104 0 105 0;
#X connect 105 0 95 1;
#X connect 106 0 96 0;
#X connect 106 0 147 0;
#X connect 107 0 98 0;
#X connect 108 0 89 0;
#X connect 108 0 106 0;
#X connect 108 0 107 0;
#X connect 108 0 123 0;
#X connect 110 0 85 0;
#X connect 110 0 12 0;
#X connect 115 0 100 0;
#X connect 116 0 134 0;
#X connect 116 0 103 0;
#X connect 118 0 117 0;
#X connect 119 0 120 0;
#X connect 121 0 128 0;
#X connect 122 0 13 0;
#X connect 122 0 13 1;
#X connect 123 0 126 0;
#X connect 124 0 13 0;
#X connect 124 0 13 1;
#X connect 125 0 124 0;
#X connect 127 0 125 0;
#X connect 129 0 130 0;
#X connect 130 0 122 0;
#X connect 133 0 136 0;
#X connect 133 0 149 0;
#X connect 136 0 135 0;
#X connect 137 0 141 0;
#X connect 139 0 138 0;
#X connect 141 0 140 0;
#X connect 142 0 137 0;
#X connect 143 0 111 0;
#X connect 143 0 43 0;
#X connect 143 0 142 0;
#X connect 144 0 112 0;
#X connect 144 0 46 0;
#X connect 145 0 40 0;
#X connect 146 0 42 0;
#X connect 147 0 97 0;
#X connect 148 0 99 0;
#X connect 150 0 133 0;
