#N canvas 26 23 1160 851 12;
#X obj 46 55 zmq;
#X msg 59 -39 socket subscribe;
#X obj 161 11 print SUB;
#X obj 13 -65 t b b b;
#X obj 12 -85 bng 15 250 50 0 empty empty empty 17 7 0 10 -262144 -1
-1;
#X msg 88 38 close;
#X msg 14 8 subscribe sensors;
#X obj 74 67 route sensors;
#X obj 46 110 unpack 0 0 0 0 0 0 0 0, f 37;
#X floatatom 1036 152 5 0 0 0 - - -;
#X floatatom 1207 153 5 0 0 0 - - -;
#X obj 21 57 bng 15 250 50 0 empty empty empty 17 7 0 10 -262144 -1
-1;
#N canvas 231 23 1209 783 voder 0;
#X obj 75 515 bp~ 0 0;
#X obj 188 515 bp~ 0 0;
#X obj 190 573 hip~ 50;
#X obj 304 515 bp~ 0 0;
#X obj 70 480 line;
#X obj 127 480 line;
#X obj 188 480 line;
#X obj 246 480 line;
#X obj 303 480 line;
#X obj 360 480 line;
#X text 49 164 a;
#X text 79 209 e;
#X text 119 258 o;
#X text 152 313 u, f 2;
#X msg 43 184 850 30 1220 80 2810 100;
#X msg 80 230 430 30 2480 80 3070 100;
#X msg 122 278 590 30 920 80 2710 100;
#X msg 153 334 370 30 950 80 2670 100;
#X obj 190 548 *~ 1;
#X obj 515 472 phasor~;
#X obj 514 498 lop~ 5000;
#X floatatom 515 404 5 0 1 0 - - -;
#X obj 515 426 sig~;
#X obj 515 449 *~ 300;
#X obj 234 610 hsl 128 15 0 1 0 0 empty empty empty -2 -8 0 10 -262144
-1 -1 0 1;
#X floatatom 231 635 5 0 0 0 - - -;
#X obj 518 383 hsl 128 15 0 1 0 0 empty empty empty -2 -8 0 10 -262144
-1 -1 0 1;
#X msg 127 453 \$1 500;
#X msg 246 453 \$1 500;
#X msg 303 453 \$1 200;
#X msg 360 453 \$1 500;
#X msg 188 453 \$1 300;
#X msg 70 453 \$1 300;
#X text 510 362 tone of voice;
#X obj 189 674 outlet~;
#X obj 190 623 *~ 1;
#X obj 63 63 inlet;
#X text 180 361 i, f 2;
#X msg 185 384 240 30 2400 80 2870 100;
#X obj 63 99 sel 1 2 3 4 5;
#X obj 101 418 unpack 240 30 2400 80 2870 100;
#X obj 506 81 inlet;
#X connect 0 0 18 0;
#X connect 1 0 18 0;
#X connect 2 0 35 0;
#X connect 3 0 18 0;
#X connect 4 0 0 1;
#X connect 5 0 0 2;
#X connect 6 0 1 1;
#X connect 7 0 1 2;
#X connect 8 0 3 1;
#X connect 9 0 3 2;
#X connect 14 0 40 0;
#X connect 15 0 40 0;
#X connect 16 0 40 0;
#X connect 17 0 40 0;
#X connect 18 0 2 0;
#X connect 19 0 20 0;
#X connect 20 0 3 0;
#X connect 20 0 1 0;
#X connect 20 0 0 0;
#X connect 21 0 22 0;
#X connect 22 0 23 0;
#X connect 23 0 19 0;
#X connect 24 0 25 0;
#X connect 24 0 35 1;
#X connect 26 0 21 0;
#X connect 27 0 5 0;
#X connect 28 0 7 0;
#X connect 29 0 8 0;
#X connect 30 0 9 0;
#X connect 31 0 6 0;
#X connect 32 0 4 0;
#X connect 35 0 34 0;
#X connect 36 0 39 0;
#X connect 38 0 40 0;
#X connect 39 0 14 0;
#X connect 39 1 15 0;
#X connect 39 2 16 0;
#X connect 39 3 17 0;
#X connect 39 4 38 0;
#X connect 40 0 32 0;
#X connect 40 1 27 0;
#X connect 40 2 31 0;
#X connect 40 3 28 0;
#X connect 40 4 29 0;
#X connect 40 5 30 0;
#X connect 41 0 40 0;
#X restore 576 555 pd voder;
#X obj 358 633 hsl 128 15 0 1 0 0 empty empty empty -2 -8 0 10 -262144
-1 -1 900 1;
#X obj 295 714 dac~;
#N canvas 18 23 1310 641 simpleSynth 0;
#X obj 43 325 osc~ 232;
#X obj 178 321 osc~ 356;
#X obj 442 313 osc~ 621;
#X obj 585 317 osc~ 732;
#X obj 855 309 osc~ 373;
#X obj 984 305 osc~ 211;
#X obj 614 96 unpack 0 0 0 0 0 0 0 0;
#X obj 615 70 inlet;
#X obj 636 563 outlet~;
#X obj 111 349 * 0.25;
#X msg 111 300 \$1 50;
#X obj 111 324 line;
#X obj 70 416 *~ 0;
#X obj 248 346 * 0.25;
#X msg 248 297 \$1 50;
#X obj 248 321 line;
#X msg 382 295 \$1 50;
#X obj 382 319 line;
#X obj 507 337 * 0.25;
#X msg 507 288 \$1 50;
#X obj 507 312 line;
#X obj 651 342 * 0.25;
#X msg 651 293 \$1 50;
#X obj 651 317 line;
#X msg 786 286 \$1 50;
#X obj 786 310 line;
#X obj 920 334 * 0.25;
#X msg 920 285 \$1 50;
#X obj 920 309 line;
#X obj 1053 330 * 0.25;
#X msg 1053 281 \$1 50;
#X obj 1053 305 line;
#X obj 205 412 *~ 0;
#X obj 328 396 *~ 0;
#X obj 469 404 *~ 0;
#X obj 612 408 *~ 0;
#X obj 747 404 *~ 0;
#X obj 870 388 *~ 0;
#X obj 1011 396 *~ 0;
#X obj 382 344 * 0.15;
#X obj 786 335 * 0.15;
#X obj 720 313 osc~ 156;
#X obj 313 317 osc~ 173;
#X connect 0 0 12 0;
#X connect 1 0 32 0;
#X connect 2 0 34 0;
#X connect 3 0 35 0;
#X connect 4 0 37 0;
#X connect 5 0 38 0;
#X connect 6 0 10 0;
#X connect 6 1 14 0;
#X connect 6 2 16 0;
#X connect 6 3 19 0;
#X connect 6 4 22 0;
#X connect 6 5 24 0;
#X connect 6 6 27 0;
#X connect 6 7 30 0;
#X connect 7 0 6 0;
#X connect 9 0 12 1;
#X connect 10 0 11 0;
#X connect 11 0 9 0;
#X connect 12 0 8 0;
#X connect 13 0 32 1;
#X connect 14 0 15 0;
#X connect 15 0 13 0;
#X connect 16 0 17 0;
#X connect 17 0 39 0;
#X connect 18 0 34 1;
#X connect 19 0 20 0;
#X connect 20 0 18 0;
#X connect 21 0 35 1;
#X connect 22 0 23 0;
#X connect 23 0 21 0;
#X connect 24 0 25 0;
#X connect 25 0 40 0;
#X connect 26 0 37 1;
#X connect 27 0 28 0;
#X connect 28 0 26 0;
#X connect 29 0 38 1;
#X connect 30 0 31 0;
#X connect 31 0 29 0;
#X connect 32 0 8 0;
#X connect 33 0 8 0;
#X connect 34 0 8 0;
#X connect 35 0 8 0;
#X connect 36 0 8 0;
#X connect 37 0 8 0;
#X connect 38 0 8 0;
#X connect 39 0 33 1;
#X connect 40 0 36 1;
#X connect 41 0 36 0;
#X connect 42 0 33 0;
#X restore 372 461 pd simpleSynth;
#X obj 1207 175 scaler;
#X obj 1035 176 scaler;
#X floatatom 5 156 5 0 0 0 - - -;
#X floatatom 176 157 5 0 0 0 - - -;
#X obj 176 179 scaler;
#X obj 5 179 scaler;
#X floatatom 348 156 5 0 0 0 - - -;
#X floatatom 519 157 5 0 0 0 - - -;
#X obj 519 179 scaler;
#X obj 350 179 scaler;
#X floatatom 690 153 5 0 0 0 - - -;
#X floatatom 861 154 5 0 0 0 - - -;
#X obj 861 176 scaler;
#X obj 693 177 scaler;
#N canvas 90 30 1350 733 accSynth 0;
#X obj 354 426 *~ 0;
#X obj 495 434 *~ 0;
#X obj 69 355 osc~ 232;
#X obj 204 351 osc~ 356;
#X obj 468 343 osc~ 621;
#X obj 638 438 *~ 0;
#X obj 896 418 *~ 0;
#X obj 1037 426 *~ 0;
#X obj 611 347 osc~ 732;
#X obj 881 339 osc~ 373;
#X obj 1010 335 osc~ 211;
#X obj 141 353 acc;
#X obj 504 85 inlet;
#X obj 501 118 unpack 0 0 0 0 0 0 0 0;
#X obj 668 631 outlet~;
#X obj 279 351 acc;
#X obj 411 346 acc;
#X obj 544 345 acc;
#X obj 681 344 acc;
#X obj 816 345 acc;
#X obj 949 339 acc;
#X obj 1084 335 acc;
#X obj 231 442 *~ 0;
#X obj 773 434 *~ 0;
#X obj 96 446 *~ 0;
#X obj 339 347 osc~ 173;
#X obj 746 343 osc~ 156;
#X connect 1 0 14 0;
#X connect 2 0 24 0;
#X connect 3 0 22 0;
#X connect 4 0 1 0;
#X connect 5 0 14 0;
#X connect 6 0 14 0;
#X connect 7 0 14 0;
#X connect 8 0 5 0;
#X connect 9 0 6 0;
#X connect 10 0 7 0;
#X connect 12 0 13 0;
#X connect 13 0 11 0;
#X connect 13 1 15 0;
#X connect 13 2 16 0;
#X connect 13 3 17 0;
#X connect 13 4 18 0;
#X connect 13 5 19 0;
#X connect 13 6 20 0;
#X connect 13 7 21 0;
#X connect 15 0 22 1;
#X connect 16 0 0 1;
#X connect 17 0 1 1;
#X connect 18 0 5 1;
#X connect 19 0 23 1;
#X connect 20 0 6 1;
#X connect 21 0 7 1;
#X connect 22 0 14 0;
#X connect 24 0 14 0;
#X connect 25 0 0 0;
#X connect 26 0 23 0;
#X restore 274 461 pd accSynth;
#X msg 347 660 \$1 100;
#X obj 348 682 line;
#X obj 299 659 *~ 1;
#X msg 301 -56 connect tcp://87.230.25.115:5555;
#X obj 561 379 pack 0 0 0 0 0 0 0 0;
#X msg 1064 35 0.172;
#X obj 1063 59 s minDef;
#X obj 1064 8 loadbang;
#N canvas 371 23 986 684 training 0;
#X msg 559 301 help;
#X msg 602 301 train;
#X obj 273 235 list trim;
#X obj 34 236 list prepend add;
#X obj 34 258 list trim;
#X obj 273 213 list prepend map;
#X obj 338 16 inlet;
#X obj 429 304 ml.ann;
#X obj 34 207 list prepend;
#X obj 108 39 loadbang;
#X text 386 17 sensor data in pack of 8;
#X msg 650 84 num_hidden 5;
#X obj 420 111 t b b b b b b;
#X msg 652 131 input_activation_function 1;
#X msg 652 107 hidden_activation_function 1;
#X msg 652 154 training_rate 0.2;
#X msg 652 176 max_epochs 4000;
#X msg 648 41 scaling 1;
#X msg 652 200 min_epochs 500;
#X obj 419 70 loadbang;
#X msg 654 302 read;
#X msg 697 302 write;
#X obj 462 364 print ann;
#X obj 248 92 cyclone/gate 2;
#X msg 245 56 1;
#X msg 289 56 2;
#X obj 34 174 cyclone/gate;
#X obj 34 143 tgl 15 0 empty empty empty 17 7 0 10 -262144 -1 -1 0
1;
#X msg 648 63 num_outputs 3;
#X msg 110 70 0 0 0;
#X text 288 37 map;
#X obj 52 421 hsl 128 15 0 1 0 0 empty empty empty -2 -8 0 10 -262144
-1 -1 0 1;
#X obj 196 421 hsl 128 15 0 1 0 0 empty empty empty -2 -8 0 10 -262144
-1 -1 0 1;
#X obj 334 421 hsl 128 15 0 1 0 0 empty empty empty -2 -8 0 10 -262144
-1 -1 0 1;
#X obj 23 446 pak 0 0 0;
#X obj 52 552 hsl 128 15 0 1 0 0 empty empty empty -2 -8 0 10 -262144
-1 -1 0 1;
#X obj 191 551 hsl 128 15 0 1 0 0 empty empty empty -2 -8 0 10 -262144
-1 -1 0 1;
#X obj 329 551 hsl 128 15 0 1 0 0 empty empty empty -2 -8 0 10 -262144
-1 -1 0 1;
#X obj 25 484 unpack 0 0 0;
#X obj 505 54 bng 15 250 50 0 empty empty empty 17 7 0 10 -262144 -1
-1;
#X msg 611 350 clear;
#X msg 166 315 0.1 0.7 0.2;
#X msg 168 342 0.5 0.2 0.8;
#X obj 128 371 unpack 0 0 0;
#X obj 535 525 outlet;
#X msg 648 17 mode 1;
#X msg 614 513 240 30 2400 80 2870 100;
#X msg 611 402 850 1220 2810;
#X msg 613 429 430 2480 3070;
#X msg 614 458 590 920 2710;
#X msg 614 483 370 950 2670;
#X connect 0 0 7 0;
#X connect 1 0 7 0;
#X connect 2 0 7 0;
#X connect 3 0 4 0;
#X connect 4 0 7 0;
#X connect 5 0 2 0;
#X connect 6 0 23 1;
#X connect 7 0 38 0;
#X connect 7 0 44 0;
#X connect 7 1 22 0;
#X connect 8 0 3 0;
#X connect 9 0 29 0;
#X connect 11 0 7 0;
#X connect 12 0 16 0;
#X connect 12 0 18 0;
#X connect 12 1 14 0;
#X connect 12 1 13 0;
#X connect 12 1 15 0;
#X connect 12 2 11 0;
#X connect 12 3 28 0;
#X connect 12 4 17 0;
#X connect 12 5 45 0;
#X connect 13 0 7 0;
#X connect 14 0 7 0;
#X connect 15 0 7 0;
#X connect 16 0 7 0;
#X connect 17 0 7 0;
#X connect 18 0 7 0;
#X connect 19 0 12 0;
#X connect 20 0 7 0;
#X connect 21 0 7 0;
#X connect 23 0 26 1;
#X connect 23 1 5 0;
#X connect 24 0 23 0;
#X connect 25 0 23 0;
#X connect 26 0 8 0;
#X connect 27 0 26 0;
#X connect 28 0 7 0;
#X connect 29 0 8 1;
#X connect 31 0 34 0;
#X connect 32 0 34 1;
#X connect 33 0 34 2;
#X connect 34 0 8 1;
#X connect 38 0 35 0;
#X connect 38 1 36 0;
#X connect 38 2 37 0;
#X connect 39 0 12 0;
#X connect 40 0 7 0;
#X connect 41 0 43 0;
#X connect 42 0 43 0;
#X connect 43 0 31 0;
#X connect 43 1 32 0;
#X connect 43 2 33 0;
#X connect 45 0 7 0;
#X restore 1048 341 pd training;
#N canvas 187 347 1231 757 trigger 0;
#X obj 68 449 soundfiler;
#X floatatom 68 473 10 0 0 0 - - -;
#X text 66 403 open sound file;
#X obj 67 379 loadbang;
#X obj 67 497 array define sample1;
#X obj 213 237 tabplay~ sample1;
#X obj 230 209 bng 15 250 50 0 empty empty empty 17 7 0 10 -262144
-1 -1;
#X obj 346 279 outlet~;
#X obj 215 119 inlet;
#X obj 611 247 tabplay~ sample1;
#X obj 628 219 bng 15 250 50 0 empty empty empty 17 7 0 10 -262144
-1 -1;
#X obj 694 412 outlet~;
#X obj 688 202 delay 10;
#X obj 691 91 inlet;
#X msg 68 425 read -resize drum.wav sample1;
#X obj 725 141 scale 0 1 1000 1;
#X connect 0 0 1 0;
#X connect 3 0 14 0;
#X connect 5 0 7 0;
#X connect 6 0 5 0;
#X connect 8 0 6 0;
#X connect 9 0 11 0;
#X connect 9 1 12 0;
#X connect 10 0 9 0;
#X connect 12 0 10 0;
#X connect 13 0 15 0;
#X connect 14 0 0 0;
#X connect 15 0 12 1;
#X restore 971 501 pd trigger;
#X obj 971 412 >;
#X obj 971 437 change;
#X obj 971 460 sel 1;
#X obj 971 483 bng 15 250 50 0 empty empty empty 17 7 0 10 -262144
-1 -1;
#X text 45 291 right foot;
#X text 1258 278 foot;
#X text 716 287 inee right;
#X text 398 291 knee left;
#X text 578 292 elboe;
#X text 921 295 elbow;
#X msg 1134 564 socket publish;
#X obj 1102 531 t b b;
#X obj 931 613 list trim;
#X obj 930 590 list prepend send;
#X msg 1116 595 connect tcp://87.230.25.115:5556;
#X msg 1164 428 connect tcp://192.168.0.16:5556;
#X obj 929 562 list prepend adjusted;
#X obj 1106 415 bng 15 250 50 0 empty empty empty 17 7 0 10 -262144
-1 -1;
#X obj 1175 677 zmq;
#X obj 251 37 route adjusted;
#X msg 314 -6 subscribe adjusted;
#X obj 1022 695 print;
#X obj 738 653 list trim;
#X obj 737 630 list prepend send;
#X obj 736 602 list prepend trained;
#X msg 463 -4 subscribe trained;
#X obj 374 70 route trained;
#N canvas 262 23 1092 807 classifier 0;
#X msg 559 301 help;
#X msg 602 301 train;
#X obj 273 235 list trim;
#X obj 34 236 list prepend add;
#X obj 34 258 list trim;
#X obj 273 213 list prepend map;
#X obj 338 16 inlet;
#X obj 34 207 list prepend;
#X obj 108 39 loadbang;
#X text 386 17 sensor data in pack of 8;
#X obj 420 111 t b b b b b b;
#X obj 419 70 loadbang;
#X msg 654 302 read;
#X msg 697 302 write;
#X obj 462 364 print ann;
#X obj 248 92 cyclone/gate 2;
#X msg 245 56 1;
#X msg 289 56 2;
#X obj 34 174 cyclone/gate;
#X obj 34 143 tgl 15 0 empty empty empty 17 7 0 10 -262144 -1 -1 0
1;
#X text 288 37 map;
#X obj 505 54 bng 15 250 50 0 empty empty empty 17 7 0 10 -262144 -1
-1;
#X msg 611 350 clear;
#X obj 535 525 outlet;
#X obj 429 304 ml.svm;
#X msg 110 70 1;
#X msg 83 421 2;
#X msg 115 422 3;
#X msg 152 422 4;
#X msg 184 423 5;
#X obj 390 448 change;
#X floatatom 390 477 5 0 0 0 - - -;
#X connect 0 0 24 0;
#X connect 1 0 24 0;
#X connect 2 0 24 0;
#X connect 3 0 4 0;
#X connect 4 0 24 0;
#X connect 5 0 2 0;
#X connect 6 0 15 1;
#X connect 7 0 3 0;
#X connect 8 0 25 0;
#X connect 11 0 10 0;
#X connect 12 0 24 0;
#X connect 13 0 24 0;
#X connect 15 0 18 1;
#X connect 15 1 5 0;
#X connect 16 0 15 0;
#X connect 17 0 15 0;
#X connect 18 0 7 0;
#X connect 19 0 18 0;
#X connect 21 0 10 0;
#X connect 22 0 24 0;
#X connect 24 0 30 0;
#X connect 24 1 14 0;
#X connect 25 0 7 1;
#X connect 26 0 18 1;
#X connect 27 0 18 1;
#X connect 28 0 18 1;
#X connect 29 0 18 1;
#X connect 30 0 31 0;
#X restore 70 521 pd classifier;
#N canvas 470 23 970 656 trainingVoder 1;
#X msg 559 301 help;
#X msg 602 301 train;
#X obj 273 235 list trim;
#X obj 34 236 list prepend add;
#X obj 34 258 list trim;
#X obj 273 213 list prepend map;
#X obj 338 16 inlet;
#X obj 429 304 ml.ann;
#X obj 34 207 list prepend;
#X obj 108 39 loadbang;
#X text 386 17 sensor data in pack of 8;
#X msg 650 84 num_hidden 5;
#X obj 420 111 t b b b b b b;
#X msg 652 131 input_activation_function 1;
#X msg 652 107 hidden_activation_function 1;
#X msg 652 154 training_rate 0.2;
#X msg 652 176 max_epochs 4000;
#X msg 648 41 scaling 1;
#X msg 652 200 min_epochs 500;
#X obj 419 70 loadbang;
#X msg 654 302 read;
#X obj 468 366 print ann;
#X obj 248 92 cyclone/gate 2;
#X msg 245 56 1;
#X msg 289 56 2;
#X obj 34 174 cyclone/gate;
#X obj 34 143 tgl 15 0 empty empty empty 17 7 0 10 -262144 -1 -1 0
1;
#X msg 648 63 num_outputs 3;
#X msg 110 70 0 0 0;
#X text 288 37 map;
#X obj 505 54 bng 15 250 50 0 empty empty empty 17 7 0 10 -262144 -1
-1;
#X msg 559 326 clear;
#X obj 427 545 outlet;
#X msg 648 17 mode 1;
#X text 33 313 a;
#X text 40 488 e;
#X text 43 576 u;
#X text 32 359 i;
#X text 42 532 y;
#X text 29 399 oe;
#X text 36 442 ɶ;
#X obj 428 512 pack 0 30 0 80 0 100;
#X msg 35 338 850 1220 2810;
#X msg 37 378 240 2400 2870;
#X msg 39 421 585 1710 2710;
#X msg 39 465 820 1530 3300;
#X msg 41 509 430 2480 3070;
#X msg 41 554 235 2100 2870;
#X msg 41 595 370 950 2670;
#X obj 428 426 unpack 0 0 0;
#X obj 402 457 max 100;
#X obj 475 460 max 800;
#X obj 550 468 max 2000;
#X obj 478 486 min 3000;
#X obj 543 490 min 3500;
#X obj 398 484 min 1000;
#X msg 724 270 write test;
#X connect 0 0 7 0;
#X connect 1 0 7 0;
#X connect 2 0 7 0;
#X connect 3 0 4 0;
#X connect 4 0 7 0;
#X connect 5 0 2 0;
#X connect 6 0 22 1;
#X connect 7 0 49 0;
#X connect 7 1 21 0;
#X connect 8 0 3 0;
#X connect 9 0 28 0;
#X connect 11 0 7 0;
#X connect 12 0 16 0;
#X connect 12 0 18 0;
#X connect 12 1 14 0;
#X connect 12 1 13 0;
#X connect 12 1 15 0;
#X connect 12 2 11 0;
#X connect 12 3 27 0;
#X connect 12 4 17 0;
#X connect 12 5 33 0;
#X connect 13 0 7 0;
#X connect 14 0 7 0;
#X connect 15 0 7 0;
#X connect 16 0 7 0;
#X connect 17 0 7 0;
#X connect 18 0 7 0;
#X connect 19 0 12 0;
#X connect 20 0 7 0;
#X connect 22 0 25 1;
#X connect 22 1 5 0;
#X connect 23 0 22 0;
#X connect 24 0 22 0;
#X connect 25 0 8 0;
#X connect 26 0 25 0;
#X connect 27 0 7 0;
#X connect 28 0 8 1;
#X connect 30 0 12 0;
#X connect 31 0 7 0;
#X connect 33 0 7 0;
#X connect 41 0 32 0;
#X connect 42 0 8 1;
#X connect 43 0 8 1;
#X connect 44 0 8 1;
#X connect 45 0 8 1;
#X connect 46 0 8 1;
#X connect 47 0 8 1;
#X connect 48 0 8 1;
#X connect 49 0 50 0;
#X connect 49 1 51 0;
#X connect 49 2 52 0;
#X connect 50 0 55 0;
#X connect 51 0 53 0;
#X connect 52 0 54 0;
#X connect 53 0 41 2;
#X connect 54 0 41 4;
#X connect 55 0 41 0;
#X connect 56 0 7 0;
#X restore 529 497 pd trainingVoder;
#N canvas 231 23 1209 783 voder2 0;
#X obj 75 515 bp~ 0 0;
#X obj 188 515 bp~ 0 0;
#X obj 190 573 hip~ 50;
#X obj 304 515 bp~ 0 0;
#X obj 70 480 line;
#X obj 127 480 line;
#X obj 188 480 line;
#X obj 246 480 line;
#X obj 303 480 line;
#X obj 360 480 line;
#X text 49 164 a;
#X text 79 209 e;
#X text 119 258 o;
#X text 152 313 u, f 2;
#X msg 43 184 850 30 1220 80 2810 100;
#X msg 80 230 430 30 2480 80 3070 100;
#X msg 122 278 590 30 920 80 2710 100;
#X msg 153 334 370 30 950 80 2670 100;
#X obj 190 548 *~ 1;
#X obj 515 472 phasor~;
#X obj 514 498 lop~ 5000;
#X floatatom 515 404 5 0 1 0 - - -;
#X obj 515 426 sig~;
#X obj 515 449 *~ 300;
#X obj 234 610 hsl 128 15 0 1 0 0 empty empty empty -2 -8 0 10 -262144
-1 -1 0 1;
#X floatatom 231 635 5 0 0 0 - - -;
#X obj 518 383 hsl 128 15 0 1 0 0 empty empty empty -2 -8 0 10 -262144
-1 -1 0 1;
#X msg 127 453 \$1 500;
#X msg 246 453 \$1 500;
#X msg 303 453 \$1 200;
#X msg 360 453 \$1 500;
#X msg 188 453 \$1 300;
#X msg 70 453 \$1 300;
#X text 510 362 tone of voice;
#X obj 189 674 outlet~;
#X obj 190 623 *~ 1;
#X obj 63 63 inlet;
#X text 180 361 i, f 2;
#X msg 185 384 240 30 2400 80 2870 100;
#X obj 63 99 sel 1 2 3 4 5;
#X obj 101 418 unpack 240 30 2400 80 2870 100;
#X obj 506 81 inlet;
#X connect 0 0 18 0;
#X connect 1 0 18 0;
#X connect 2 0 35 0;
#X connect 3 0 18 0;
#X connect 4 0 0 1;
#X connect 5 0 0 2;
#X connect 6 0 1 1;
#X connect 7 0 1 2;
#X connect 8 0 3 1;
#X connect 9 0 3 2;
#X connect 14 0 40 0;
#X connect 15 0 40 0;
#X connect 16 0 40 0;
#X connect 17 0 40 0;
#X connect 18 0 2 0;
#X connect 19 0 20 0;
#X connect 20 0 3 0;
#X connect 20 0 1 0;
#X connect 20 0 0 0;
#X connect 21 0 22 0;
#X connect 22 0 23 0;
#X connect 23 0 19 0;
#X connect 24 0 25 0;
#X connect 24 0 35 1;
#X connect 26 0 21 0;
#X connect 27 0 5 0;
#X connect 28 0 7 0;
#X connect 29 0 8 0;
#X connect 30 0 9 0;
#X connect 31 0 6 0;
#X connect 32 0 4 0;
#X connect 35 0 34 0;
#X connect 36 0 39 0;
#X connect 38 0 40 0;
#X connect 39 0 14 0;
#X connect 39 1 15 0;
#X connect 39 2 16 0;
#X connect 39 3 17 0;
#X connect 39 4 38 0;
#X connect 40 0 32 0;
#X connect 40 1 27 0;
#X connect 40 2 31 0;
#X connect 40 3 28 0;
#X connect 40 4 29 0;
#X connect 40 5 30 0;
#X connect 41 0 40 0;
#X restore 492 553 pd voder2;
#X msg 37 -16 connect tcp://192.168.0.101:5555;
#N canvas 0 23 958 665 voder_lizzie 0;
#X msg 39 121 850 30 1220 80 2810 100;
#X text 37 96 a;
#X text 167 158 e;
#X msg 147 180 430 30 2480 80 3070 100;
#X text 491 147 u;
#X msg 489 166 370 30 950 80 2670 100;
#X text 220 101 i;
#X msg 203 120 240 30 2400 80 2870 100;
#X msg 311 165 235 30 2100 80 2870 100;
#X text 323 144 y;
#X text 396 94 oe;
#X text 559 95 ɶ;
#X msg 381 117 585 30 1710 80 2710 100;
#X msg 538 118 820 30 1530 80 3300 100;
#X obj 160 238 unpack f f f f f f;
#X obj 73 373 line;
#X obj 72 523 bp~ 0 0;
#X obj 145 371 line;
#X floatatom 516 314 5 0 1 0 - - -;
#X obj 516 337 sig~;
#X obj 516 359 *~ 300;
#X obj 369 483 lop~ 4000;
#X obj 204 378 line;
#X obj 196 523 bp~ 0 0;
#X obj 276 376 line;
#X obj 312 367 line;
#X obj 266 529 bp~ 0 0;
#X obj 384 365 line;
#X obj 641 213 osc~ 6;
#X obj 680 237 noise~;
#X obj 741 244 phasor~ 25;
#X obj 689 287 samphold~;
#X obj 643 316 +~;
#X obj 714 372 line;
#X msg 724 329 0 \, 2 100;
#X obj 638 398 s~ vibrato;
#X obj 383 229 r~ vibrato;
#X obj 438 299 +~;
#X obj 678 567 osc~;
#X obj 679 544 +~;
#X obj 692 453 r~ vibrato;
#X obj 678 588 s~ modulator;
#X obj 455 253 r~ modulator;
#X obj 438 361 +~;
#X obj 460 446 phasor~;
#X msg 152 338 \$1 500;
#X msg 268 332 \$1 500;
#X msg 366 315 \$1 500;
#X obj 707 166 hsl 128 15 0 6 0 0 empty empty empty -2 -8 0 10 -262144
-1 -1 2100 1;
#X obj 553 222 adc~ 3 4 5;
#X obj 639 356 *~ 2;
#X obj 172 -12 inlet;
#X obj 691 -4 inlet;
#X obj 77 693 outlet~;
#X msg 93 329 \$1 500;
#X msg 209 323 \$1 500;
#X msg 307 306 \$1 500;
#X floatatom 58 419 5 0 0 0 - - -;
#X floatatom 157 425 5 0 0 0 - - -;
#X obj 83 629 hip~ 50;
#X obj 86 590 *~ 1;
#X floatatom 233 424 5 0 0 0 - - -;
#X floatatom 337 408 5 0 0 0 - - -;
#X connect 0 0 14 0;
#X connect 3 0 14 0;
#X connect 5 0 14 0;
#X connect 7 0 14 0;
#X connect 8 0 14 0;
#X connect 12 0 14 0;
#X connect 13 0 14 0;
#X connect 14 0 54 0;
#X connect 14 1 45 0;
#X connect 14 2 55 0;
#X connect 14 3 46 0;
#X connect 14 4 56 0;
#X connect 14 5 47 0;
#X connect 15 0 16 1;
#X connect 15 0 57 0;
#X connect 16 0 60 0;
#X connect 17 0 16 2;
#X connect 17 0 58 0;
#X connect 18 0 19 0;
#X connect 19 0 20 0;
#X connect 20 0 39 0;
#X connect 20 0 43 1;
#X connect 21 0 16 0;
#X connect 21 0 23 0;
#X connect 21 0 26 0;
#X connect 22 0 23 1;
#X connect 22 0 61 0;
#X connect 23 0 60 0;
#X connect 24 0 23 2;
#X connect 25 0 26 1;
#X connect 25 0 62 0;
#X connect 26 0 60 0;
#X connect 27 0 26 2;
#X connect 28 0 32 0;
#X connect 29 0 31 0;
#X connect 30 0 31 1;
#X connect 31 0 32 1;
#X connect 32 0 50 0;
#X connect 33 0 50 1;
#X connect 34 0 33 0;
#X connect 36 0 37 0;
#X connect 37 0 43 0;
#X connect 38 0 41 0;
#X connect 39 0 38 0;
#X connect 40 0 39 1;
#X connect 42 0 37 1;
#X connect 43 0 44 0;
#X connect 44 0 21 0;
#X connect 45 0 17 0;
#X connect 46 0 24 0;
#X connect 47 0 27 0;
#X connect 48 0 28 0;
#X connect 50 0 35 0;
#X connect 51 0 14 0;
#X connect 52 0 18 0;
#X connect 54 0 15 0;
#X connect 55 0 22 0;
#X connect 56 0 25 0;
#X connect 59 0 53 0;
#X connect 60 0 59 0;
#X restore 371 554 pd voder_lizzie;
#X obj 340 510 hsl 128 15 0 1 0 0 empty empty empty -2 -8 0 10 -262144
-1 -1 4800 1;
#X obj 23 665 soundfiler;
#X floatatom 23 689 10 0 0 0 - - -;
#X text 21 619 open sound file;
#X obj 22 595 loadbang;
#X obj 22 713 array define sample1;
#X obj 168 453 tabplay~ sample1;
#X obj 185 425 bng 15 250 50 0 empty empty empty 17 7 0 10 -262144
-1 -1;
#X msg 23 641 read -resize drum.wav sample1;
#X obj 269 403 print;
#X floatatom 732 320 5 0 0 0 - - -;
#X obj 155 359 change;
#X obj 157 388 tgl 15 0 empty empty empty 17 7 0 10 -262144 -1 -1 1
1;
#X obj 201 376 sel 0;
#X floatatom 54 497 5 0 0 0 - - -;
#X obj 86 353 > 0.2;
#N canvas 329 23 1042 697 volumeTrain 0;
#X msg 559 301 help;
#X msg 602 301 train;
#X obj 273 235 list trim;
#X obj 34 236 list prepend add;
#X obj 34 258 list trim;
#X obj 273 213 list prepend map;
#X obj 338 16 inlet;
#X obj 429 304 ml.ann;
#X obj 34 207 list prepend;
#X obj 108 39 loadbang;
#X text 386 17 sensor data in pack of 8;
#X obj 420 111 t b b b b b b;
#X msg 652 131 input_activation_function 1;
#X msg 652 107 hidden_activation_function 1;
#X msg 652 154 training_rate 0.2;
#X msg 652 176 max_epochs 4000;
#X msg 648 41 scaling 1;
#X msg 652 200 min_epochs 500;
#X obj 419 70 loadbang;
#X msg 654 302 read;
#X obj 468 366 print ann;
#X obj 248 92 cyclone/gate 2;
#X msg 245 56 1;
#X msg 289 56 2;
#X obj 34 174 cyclone/gate;
#X obj 34 143 tgl 15 0 empty empty empty 17 7 0 10 -262144 -1 -1 0
1;
#X text 288 37 map;
#X obj 505 54 bng 15 250 50 0 empty empty empty 17 7 0 10 -262144 -1
-1;
#X msg 559 326 clear;
#X obj 427 545 outlet;
#X msg 648 17 mode 1;
#X msg 648 63 num_outputs 1;
#X msg 650 84 num_hidden 3;
#X msg 110 70 0;
#X msg 72 73 1;
#X obj 402 457 max 0;
#X obj 398 484 min 1;
#X floatatom 315 411 5 0 0 0 - - -;
#X floatatom 325 526 5 0 0 0 - - -;
#X obj 403 424 scale 0.3 1 0 1;
#X msg 697 302 write testVol;
#X connect 0 0 7 0;
#X connect 1 0 7 0;
#X connect 2 0 7 0;
#X connect 3 0 4 0;
#X connect 4 0 7 0;
#X connect 5 0 2 0;
#X connect 6 0 21 1;
#X connect 7 0 37 0;
#X connect 7 0 39 0;
#X connect 7 1 20 0;
#X connect 8 0 3 0;
#X connect 9 0 33 0;
#X connect 11 0 15 0;
#X connect 11 0 17 0;
#X connect 11 1 13 0;
#X connect 11 1 12 0;
#X connect 11 1 14 0;
#X connect 11 2 32 0;
#X connect 11 3 31 0;
#X connect 11 4 16 0;
#X connect 11 5 30 0;
#X connect 12 0 7 0;
#X connect 13 0 7 0;
#X connect 14 0 7 0;
#X connect 15 0 7 0;
#X connect 16 0 7 0;
#X connect 17 0 7 0;
#X connect 18 0 11 0;
#X connect 19 0 7 0;
#X connect 21 0 24 1;
#X connect 21 1 5 0;
#X connect 22 0 21 0;
#X connect 23 0 21 0;
#X connect 24 0 8 0;
#X connect 25 0 24 0;
#X connect 27 0 11 0;
#X connect 28 0 7 0;
#X connect 30 0 7 0;
#X connect 31 0 7 0;
#X connect 32 0 7 0;
#X connect 33 0 8 1;
#X connect 34 0 8 1;
#X connect 35 0 36 0;
#X connect 36 0 29 0;
#X connect 36 0 38 0;
#X connect 39 0 35 0;
#X connect 40 0 7 0;
#X restore 591 657 pd volumeTrain;
#N canvas 0 23 958 665 voder_lizzie2 0;
#X msg 39 121 850 30 1220 80 2810 100;
#X text 37 96 a;
#X text 167 158 e;
#X msg 147 180 430 30 2480 80 3070 100;
#X text 491 147 u;
#X msg 489 166 370 30 950 80 2670 100;
#X text 220 101 i;
#X msg 203 120 240 30 2400 80 2870 100;
#X msg 311 165 235 30 2100 80 2870 100;
#X text 323 144 y;
#X text 396 94 oe;
#X text 559 95 ɶ;
#X msg 381 117 585 30 1710 80 2710 100;
#X msg 538 118 820 30 1530 80 3300 100;
#X obj 160 238 unpack f f f f f f;
#X obj 73 373 line;
#X obj 72 523 bp~ 0 0;
#X obj 145 371 line;
#X floatatom 516 314 5 0 1 0 - - -;
#X obj 516 337 sig~;
#X obj 516 359 *~ 300;
#X obj 369 483 lop~ 4000;
#X obj 204 378 line;
#X obj 196 523 bp~ 0 0;
#X obj 276 376 line;
#X obj 312 367 line;
#X obj 266 529 bp~ 0 0;
#X obj 384 365 line;
#X obj 641 213 osc~ 6;
#X obj 680 237 noise~;
#X obj 741 244 phasor~ 25;
#X obj 689 287 samphold~;
#X obj 643 316 +~;
#X obj 714 372 line;
#X msg 724 329 0 \, 2 100;
#X obj 638 398 s~ vibrato;
#X obj 383 229 r~ vibrato;
#X obj 438 299 +~;
#X obj 678 567 osc~;
#X obj 679 544 +~;
#X obj 692 453 r~ vibrato;
#X obj 678 588 s~ modulator;
#X obj 455 253 r~ modulator;
#X obj 438 361 +~;
#X obj 460 446 phasor~;
#X obj 707 166 hsl 128 15 0 6 0 0 empty empty empty -2 -8 0 10 -262144
-1 -1 0 1;
#X obj 553 222 adc~ 3 4 5;
#X obj 639 356 *~ 2;
#X obj 172 -12 inlet;
#X obj 691 -4 inlet;
#X obj 77 693 outlet~;
#X floatatom 58 419 5 0 0 0 - - -;
#X floatatom 157 425 5 0 0 0 - - -;
#X obj 83 629 hip~ 50;
#X obj 86 590 *~ 1;
#X floatatom 233 424 5 0 0 0 - - -;
#X floatatom 337 408 5 0 0 0 - - -;
#X msg 94 329 \$1 500;
#X msg 152 338 \$1 500;
#X msg 209 323 \$1 500;
#X msg 268 331 \$1 500;
#X msg 307 306 \$1 500;
#X msg 366 315 \$1 500;
#X connect 0 0 14 0;
#X connect 3 0 14 0;
#X connect 5 0 14 0;
#X connect 7 0 14 0;
#X connect 8 0 14 0;
#X connect 12 0 14 0;
#X connect 13 0 14 0;
#X connect 14 0 57 0;
#X connect 14 1 58 0;
#X connect 14 2 59 0;
#X connect 14 3 60 0;
#X connect 14 4 61 0;
#X connect 14 5 62 0;
#X connect 15 0 16 1;
#X connect 15 0 51 0;
#X connect 16 0 54 0;
#X connect 17 0 16 2;
#X connect 17 0 52 0;
#X connect 18 0 19 0;
#X connect 19 0 20 0;
#X connect 20 0 39 0;
#X connect 20 0 43 1;
#X connect 21 0 16 0;
#X connect 21 0 23 0;
#X connect 21 0 26 0;
#X connect 22 0 23 1;
#X connect 22 0 55 0;
#X connect 23 0 54 0;
#X connect 24 0 23 2;
#X connect 25 0 26 1;
#X connect 25 0 56 0;
#X connect 26 0 54 0;
#X connect 27 0 26 2;
#X connect 28 0 32 0;
#X connect 29 0 31 0;
#X connect 30 0 31 1;
#X connect 31 0 32 1;
#X connect 32 0 47 0;
#X connect 33 0 47 1;
#X connect 34 0 33 0;
#X connect 36 0 37 0;
#X connect 37 0 43 0;
#X connect 38 0 41 0;
#X connect 39 0 38 0;
#X connect 40 0 39 1;
#X connect 42 0 37 1;
#X connect 43 0 44 0;
#X connect 44 0 21 0;
#X connect 45 0 28 0;
#X connect 47 0 35 0;
#X connect 48 0 14 0;
#X connect 49 0 18 0;
#X connect 53 0 50 0;
#X connect 54 0 53 0;
#X connect 57 0 15 0;
#X connect 58 0 17 0;
#X connect 59 0 22 0;
#X connect 60 0 24 0;
#X connect 61 0 25 0;
#X connect 62 0 27 0;
#X restore 219 553 pd voder_lizzie2;
#X obj 195 513 hsl 128 15 0 1 0 0 empty empty empty -2 -8 0 10 -262144
-1 -1 8100 1;
#X obj 228 591 *~ 0.4;
#X obj 353 596 *~ 0.4;
#N canvas 0 23 1125 779 accadd 0;
#X obj 139 33 inlet;
#X obj 194 320 outlet;
#X obj 136 119 acc;
#X obj 139 83 unpack 0 0 0 0 0 0 0 0, f 43;
#X obj 172 126 acc;
#X obj 209 128 acc;
#X obj 244 136 acc;
#X obj 286 130 acc;
#X obj 321 138 acc;
#X obj 359 134 acc;
#X obj 394 142 acc;
#X obj 140 167 +;
#X obj 240 179 +;
#X obj 286 178 +;
#X obj 347 180 +;
#X obj 173 203 +;
#X obj 276 216 +;
#X obj 234 262 +;
#X connect 0 0 3 0;
#X connect 2 0 11 0;
#X connect 3 0 2 0;
#X connect 3 1 4 0;
#X connect 3 2 5 0;
#X connect 3 3 6 0;
#X connect 3 4 7 0;
#X connect 3 5 8 0;
#X connect 3 7 10 0;
#X connect 4 0 11 1;
#X connect 5 0 15 1;
#X connect 8 0 16 0;
#X connect 9 0 14 0;
#X connect 10 0 14 1;
#X connect 11 0 15 0;
#X connect 12 0 15 1;
#X connect 13 0 16 0;
#X connect 14 0 16 1;
#X connect 15 0 17 0;
#X connect 17 0 1 0;
#X restore 719 447 pd accadd;
#X floatatom 721 471 5 0 0 0 - - -;
#X obj 687 529 max 0;
#N canvas 0 23 1125 779 accadd 0;
#X obj 139 33 inlet;
#X obj 194 320 outlet;
#X obj 136 119 acc;
#X obj 139 83 unpack 0 0 0 0 0 0 0 0, f 43;
#X obj 172 126 acc;
#X obj 209 128 acc;
#X obj 244 136 acc;
#X obj 286 130 acc;
#X obj 321 138 acc;
#X obj 359 134 acc;
#X obj 394 142 acc;
#X obj 140 167 +;
#X obj 240 179 +;
#X obj 286 178 +;
#X obj 347 180 +;
#X obj 173 203 +;
#X obj 276 216 +;
#X obj 337 268 +;
#X connect 0 0 3 0;
#X connect 2 0 11 0;
#X connect 3 0 2 0;
#X connect 3 1 4 0;
#X connect 3 2 5 0;
#X connect 3 3 6 0;
#X connect 3 4 7 0;
#X connect 3 5 8 0;
#X connect 3 6 9 0;
#X connect 3 7 10 0;
#X connect 4 0 11 1;
#X connect 5 0 15 1;
#X connect 8 0 16 0;
#X connect 9 0 14 0;
#X connect 10 0 14 1;
#X connect 11 0 15 0;
#X connect 12 0 15 1;
#X connect 13 0 16 0;
#X connect 14 0 16 1;
#X connect 16 0 1 0;
#X connect 17 0 1 0;
#X restore 808 425 pd accadd;
#X obj 714 500 scale 0.06 0.2 0 0.5;
#X floatatom 824 462 5 0 0 0 - - -;
#X obj 798 516 scale 0.06 0.2 0 0.5;
#X obj 794 541 max 0;
#X obj 300 582 hsl 128 15 0 1 0 0 empty empty empty -2 -8 0 10 -262144
-1 -1 0 1;
#X msg 289 609 \$1 100;
#X obj 290 631 line;
#X obj 689 555 min 0.5;
#X obj 794 568 min 0.5;
#X obj 456 588 hsl 128 15 0 1 0 0 empty empty empty -2 -8 0 10 -262144
-1 -1 0 1;
#X msg 445 615 \$1 100;
#X obj 446 637 line;
#X connect 0 0 7 0;
#X connect 0 0 11 0;
#X connect 0 0 60 0;
#X connect 0 0 67 0;
#X connect 1 0 0 0;
#X connect 3 0 6 0;
#X connect 3 1 34 0;
#X connect 3 1 61 0;
#X connect 3 2 1 0;
#X connect 4 0 3 0;
#X connect 5 0 0 0;
#X connect 6 0 0 0;
#X connect 8 0 18 0;
#X connect 8 1 19 0;
#X connect 8 2 22 0;
#X connect 8 3 23 0;
#X connect 8 4 26 0;
#X connect 8 5 27 0;
#X connect 8 6 9 0;
#X connect 8 7 10 0;
#X connect 9 0 17 0;
#X connect 9 0 35 6;
#X connect 10 0 16 0;
#X connect 10 0 35 7;
#X connect 13 0 31 0;
#X connect 18 0 21 0;
#X connect 18 0 35 0;
#X connect 19 0 20 0;
#X connect 19 0 35 1;
#X connect 22 0 25 0;
#X connect 22 0 35 2;
#X connect 23 0 24 0;
#X connect 23 0 35 3;
#X connect 26 0 29 0;
#X connect 26 0 88 0;
#X connect 26 0 35 4;
#X connect 27 0 28 0;
#X connect 27 0 35 5;
#X connect 28 0 41 0;
#X connect 28 1 41 1;
#X connect 29 0 83 0;
#X connect 31 0 32 0;
#X connect 32 0 33 1;
#X connect 33 0 14 0;
#X connect 33 0 14 1;
#X connect 34 0 0 0;
#X connect 35 0 30 0;
#X connect 35 0 15 0;
#X connect 35 0 69 0;
#X connect 35 0 89 0;
#X connect 35 0 94 0;
#X connect 35 0 97 0;
#X connect 36 0 37 0;
#X connect 38 0 36 0;
#X connect 41 0 42 0;
#X connect 42 0 43 0;
#X connect 43 0 44 0;
#X connect 44 0 40 0;
#X connect 51 0 59 0;
#X connect 52 0 55 0;
#X connect 52 1 51 0;
#X connect 53 0 59 0;
#X connect 54 0 53 0;
#X connect 55 0 59 0;
#X connect 57 0 54 0;
#X connect 58 0 52 0;
#X connect 60 0 8 0;
#X connect 61 0 0 0;
#X connect 63 0 59 0;
#X connect 64 0 63 0;
#X connect 65 0 64 0;
#X connect 66 0 0 0;
#X connect 69 0 12 1;
#X connect 69 0 70 1;
#X connect 69 0 72 0;
#X connect 69 0 65 0;
#X connect 69 0 90 0;
#X connect 71 0 0 0;
#X connect 72 0 93 0;
#X connect 73 0 72 1;
#X connect 74 0 75 0;
#X connect 77 0 81 0;
#X connect 80 0 79 0;
#X connect 81 0 74 0;
#X connect 84 0 85 0;
#X connect 84 0 86 0;
#X connect 86 0 80 0;
#X connect 88 0 84 0;
#X connect 90 0 92 0;
#X connect 91 0 90 1;
#X connect 92 0 33 0;
#X connect 93 0 33 0;
#X connect 94 0 95 0;
#X connect 94 0 98 0;
#X connect 96 0 105 0;
#X connect 97 0 99 0;
#X connect 98 0 96 0;
#X connect 99 0 100 0;
#X connect 100 0 101 0;
#X connect 101 0 106 0;
#X connect 102 0 103 0;
#X connect 103 0 104 0;
#X connect 104 0 92 1;
#X connect 105 0 102 0;
#X connect 106 0 107 0;
#X connect 107 0 108 0;
#X connect 108 0 109 0;
#X connect 109 0 93 1;
