#N canvas 0 23 1436 574 12;
#X obj 46 55 zmq;
#X msg 59 -39 socket subscribe;
#X obj 161 11 print SUB;
#X obj 13 -65 t b b b;
#X obj 12 -85 bng 15 250 50 0 empty empty empty 17 7 0 10 -262144 -1
-1;
#X msg 88 38 close;
#X msg 14 8 subscribe sensors;
#X obj 26 81 route sensors;
#X obj 46 110 unpack 0 0 0 0 0 0 0 0, f 37;
#X floatatom 1036 152 5 0 0 0 - - -;
#X floatatom 1207 153 5 0 0 0 - - -;
#X obj 21 57 bng 15 250 50 0 empty empty empty 17 7 0 10 -262144 -1
-1;
#X obj 1207 175 scaler;
#X obj 1035 176 scaler;
#X floatatom 5 156 5 0 0 0 - - -;
#X floatatom 176 157 5 0 0 0 - - -;
#X obj 176 179 scaler;
#X obj 5 179 scaler;
#X floatatom 348 156 5 0 0 0 - - -;
#X floatatom 519 157 5 0 0 0 - - -;
#X obj 519 179 scaler;
#X obj 350 179 scaler;
#X floatatom 690 153 5 0 0 0 - - -;
#X floatatom 861 154 5 0 0 0 - - -;
#X obj 861 176 scaler;
#X obj 690 176 scaler;
#X msg 301 -56 connect tcp://87.230.25.115:5555;
#X msg 37 -16 connect tcp://192.168.0.16:5555;
#X msg 1064 35 0.172;
#X obj 1063 59 s minDef;
#X obj 1064 8 loadbang;
#X text 45 291 right foot;
#X text 716 287 inee right;
#X text 398 291 knee left;
#X text 578 292 elboe;
#X text 921 295 elbow;
#X obj 239 65 route adjusted;
#X msg 314 -6 subscribe adjusted;
#X connect 0 0 7 0;
#X connect 0 0 11 0;
#X connect 0 0 36 0;
#X connect 1 0 0 0;
#X connect 3 0 6 0;
#X connect 3 1 26 0;
#X connect 3 2 1 0;
#X connect 3 2 37 0;
#X connect 4 0 3 0;
#X connect 5 0 0 0;
#X connect 6 0 0 0;
#X connect 8 0 14 0;
#X connect 8 1 15 0;
#X connect 8 2 18 0;
#X connect 8 3 19 0;
#X connect 8 4 22 0;
#X connect 8 5 23 0;
#X connect 8 6 9 0;
#X connect 8 7 10 0;
#X connect 9 0 13 0;
#X connect 10 0 12 0;
#X connect 14 0 17 0;
#X connect 15 0 16 0;
#X connect 18 0 21 0;
#X connect 19 0 20 0;
#X connect 22 0 25 0;
#X connect 23 0 24 0;
#X connect 26 0 0 0;
#X connect 27 0 0 0;
#X connect 28 0 29 0;
#X connect 30 0 28 0;
#X connect 36 0 8 0;
#X connect 37 0 0 0;
