#N canvas 347 51 728 576 12;
#X obj 95 253 - 0.5;
#X obj 95 279 abs;
#X obj 95 305 * 2;
#X obj 95 333 min 1;
#X obj 96 166 inlet;
#X obj 95 195 t f f f;
#X obj 223 199 spigot 1;
#X obj 226 229 t b f;
#X msg 295 198 0;
#X obj 95 360 pack 0 160;
#X obj 94 393 line;
#X obj 94 424 outlet;
#X connect 0 0 1 0;
#X connect 1 0 2 0;
#X connect 2 0 3 0;
#X connect 3 0 9 0;
#X connect 4 0 5 0;
#X connect 5 0 0 1;
#X connect 5 1 0 0;
#X connect 5 2 6 0;
#X connect 6 0 7 0;
#X connect 7 0 8 0;
#X connect 7 1 0 1;
#X connect 8 0 6 1;
#X connect 9 0 10 0;
#X connect 10 0 11 0;
