#N canvas 236 195 858 686 12;
#X obj 216 437 ggee/shell;
#X msg 304 355 string aofgikeljawshfsifjlrfhk;
#X obj 291 206 list store;
#X msg 295 170 append \$1;
#X obj 177 183 bng 15 250 50 0 empty empty empty 17 7 0 10 -262144
-1 -1;
#X obj 394 198 bng 15 250 50 0 empty empty empty 17 7 0 10 -262144
-1 -1;
#X obj 294 98 i;
#X obj 295 147 + 97;
#X obj 291 251 moocow/wchars2any;
#X obj 294 122 change;
#X obj 278 290 symbol;
#X obj 165 224 t b b;
#X obj 293 73 * 28;
#X obj 282 21 inlet;
#X obj 402 63 hsl 128 15 0 1 0 0 empty empty empty -2 -8 0 10 -262144
-1 -1 6700 1;
#X obj 485 130 t a a;
#X obj 503 185 -;
#X obj 504 233 abs;
#X floatatom 573 269 5 0 0 0 - - -;
#X obj 472 299 sel 1;
#X obj 473 266 < 0.007;
#X msg 247 396 say -v Juan -r 79 \$1;
#X msg 64 362 say -v Fiona -r 70 \$1;
#X msg 43 310 string aofgikeljawshfsifjlrfhk;
#X connect 1 0 21 0;
#X connect 2 0 8 0;
#X connect 3 0 2 0;
#X connect 4 0 11 0;
#X connect 5 0 2 1;
#X connect 6 0 9 0;
#X connect 7 0 3 0;
#X connect 8 0 10 0;
#X connect 9 0 7 0;
#X connect 10 0 1 0;
#X connect 11 0 2 1;
#X connect 11 1 2 0;
#X connect 12 0 6 0;
#X connect 13 0 12 0;
#X connect 14 0 12 0;
#X connect 14 0 15 0;
#X connect 15 0 16 1;
#X connect 15 1 16 0;
#X connect 16 0 17 0;
#X connect 17 0 18 0;
#X connect 17 0 20 0;
#X connect 19 0 4 0;
#X connect 20 0 19 0;
#X connect 21 0 0 0;
#X connect 22 0 0 0;
#X connect 23 0 22 0;
