#N canvas 139 23 1080 755 12;
#X obj 32 302 readsf~;
#X msg 32 269 1;
#X obj 25 220 t b b;
#X obj 529 542 dac~;
#X msg 141 273 1;
#X obj 134 224 t b b;
#X msg 256 276 1;
#X obj 249 227 t b b;
#X obj 126 303 readsf~;
#X obj 247 312 readsf~;
#X msg 299 286 0;
#X msg 353 274 1;
#X obj 346 225 t b b;
#X obj 340 310 readsf~;
#X msg 454 274 1;
#X obj 447 225 t b b;
#X obj 445 310 readsf~;
#X obj 551 362 *~ 1;
#X obj 554 307 readsf~;
#X msg 554 274 1;
#X obj 547 225 t b b;
#X msg 663 278 1;
#X obj 656 229 t b b;
#X msg 778 281 1;
#X obj 771 232 t b b;
#X obj 648 308 readsf~;
#X obj 769 317 readsf~;
#X msg 875 279 1;
#X obj 868 230 t b b;
#X obj 862 315 readsf~;
#X msg 134 250 open ei.wav;
#X msg 446 251 open rrra.wav;
#X obj 385 445 hip~ 50;
#X obj 615 444 hip~ 50;
#X msg 656 255 open 007.wav;
#X msg 867 256 open 009.wav;
#X msg 345 251 open d.wav;
#X msg 249 253 open tsch.wav;
#X msg 547 251 open 013.wav;
#X obj 385 470 lop~ 500;
#X obj 614 471 lop~ 500;
#X msg 25 246 open 014.wav;
#X obj 384 397 comb~ 223 123 0.9 0.9 0.55;
#X obj 616 393 comb~ 500 200 0.9 0.9 0.5;
#X obj 385 420 comb~ 500 423 0.5 0.5 0.53;
#X obj 616 416 comb~ 600 210 0.5 0.5 0.55;
#X obj 482 505 *~ 1;
#X obj 567 506 *~ 1;
#X obj 164 18 list;
#X obj 163 -10 metro 200;
#X obj 302 -19 r bela_trill;
#X obj 302 9 route mycraft;
#X obj 437 13 s bela_setTrill;
#X obj 585 11 r bela_trillCreated;
#X obj 585 34 print bela_trillhairL_Created;
#X obj 50 5 loadbang;
#X obj 102 49 print;
#X msg 438 -12 new mycraft 1 CRAFT \, mode mycraft DIFF \, prescaler mycraft 3;
#X obj 159 64 zl slice 18;
#X obj 53 96 unpack 0 0 0 0 0 0 0 0 0 0, f 74;
#X obj 25 172 change;
#X obj 25 196 sel 1;
#X obj 133 176 change;
#X obj 133 200 sel 1;
#X obj 249 181 change;
#X obj 249 205 sel 1;
#X obj 346 176 change;
#X obj 346 200 sel 1;
#X obj 446 176 change;
#X obj 446 200 sel 1;
#X obj 547 176 change;
#X obj 547 200 sel 1;
#X obj 655 179 change;
#X obj 655 203 sel 1;
#X obj 770 183 change;
#X obj 770 207 sel 1;
#X obj 868 181 change;
#X obj 868 205 sel 1;
#X msg 972 280 1;
#X obj 965 231 t b b;
#X obj 959 316 readsf~;
#X obj 965 182 change;
#X obj 965 206 sel 1;
#X obj 25 148 > 0.06;
#X obj 133 152 > 0.06;
#X obj 249 157 > 0.06;
#X obj 346 152 > 0.06;
#X obj 446 152 > 0.06;
#X obj 547 152 > 0.06;
#X obj 655 155 > 0.06;
#X obj 770 159 > 0.06;
#X obj 868 157 > 0.06;
#X obj 965 158 > 0.06;
#X msg 964 257 open j.wav;
#X msg 771 258 open nn.wav;
#X connect 0 0 17 0;
#X connect 1 0 0 0;
#X connect 2 0 1 0;
#X connect 2 1 41 0;
#X connect 4 0 8 0;
#X connect 5 0 4 0;
#X connect 5 1 30 0;
#X connect 6 0 9 0;
#X connect 7 0 6 0;
#X connect 7 1 37 0;
#X connect 8 0 17 0;
#X connect 9 0 17 0;
#X connect 10 0 9 0;
#X connect 11 0 13 0;
#X connect 12 0 11 0;
#X connect 12 1 36 0;
#X connect 13 0 17 0;
#X connect 14 0 16 0;
#X connect 15 0 14 0;
#X connect 15 1 31 0;
#X connect 16 0 17 0;
#X connect 17 0 42 0;
#X connect 17 0 43 0;
#X connect 18 0 17 0;
#X connect 19 0 18 0;
#X connect 20 0 19 0;
#X connect 20 1 38 0;
#X connect 21 0 25 0;
#X connect 22 0 21 0;
#X connect 22 1 34 0;
#X connect 23 0 26 0;
#X connect 24 0 23 0;
#X connect 24 1 94 0;
#X connect 25 0 17 0;
#X connect 26 0 17 0;
#X connect 27 0 29 0;
#X connect 28 0 27 0;
#X connect 28 1 35 0;
#X connect 29 0 17 0;
#X connect 30 0 8 0;
#X connect 31 0 16 0;
#X connect 32 0 39 0;
#X connect 33 0 40 0;
#X connect 34 0 25 0;
#X connect 35 0 29 0;
#X connect 36 0 13 0;
#X connect 37 0 9 0;
#X connect 38 0 18 0;
#X connect 39 0 46 0;
#X connect 40 0 47 0;
#X connect 41 0 0 0;
#X connect 42 0 44 0;
#X connect 43 0 45 0;
#X connect 44 0 32 0;
#X connect 45 0 33 0;
#X connect 46 0 3 0;
#X connect 47 0 3 1;
#X connect 48 0 56 0;
#X connect 49 0 48 0;
#X connect 50 0 51 0;
#X connect 51 0 48 1;
#X connect 51 0 58 0;
#X connect 53 0 54 0;
#X connect 55 0 57 0;
#X connect 55 0 49 0;
#X connect 57 0 52 0;
#X connect 58 1 59 0;
#X connect 59 0 83 0;
#X connect 59 1 84 0;
#X connect 59 2 85 0;
#X connect 59 3 86 0;
#X connect 59 4 87 0;
#X connect 59 5 88 0;
#X connect 59 6 89 0;
#X connect 59 7 90 0;
#X connect 59 8 91 0;
#X connect 59 9 92 0;
#X connect 60 0 61 0;
#X connect 61 0 2 0;
#X connect 62 0 63 0;
#X connect 63 0 5 0;
#X connect 64 0 65 0;
#X connect 65 0 7 0;
#X connect 66 0 67 0;
#X connect 67 0 12 0;
#X connect 68 0 69 0;
#X connect 69 0 15 0;
#X connect 70 0 71 0;
#X connect 71 0 20 0;
#X connect 72 0 73 0;
#X connect 73 0 22 0;
#X connect 74 0 75 0;
#X connect 75 0 24 0;
#X connect 76 0 77 0;
#X connect 77 0 28 0;
#X connect 78 0 80 0;
#X connect 79 0 78 0;
#X connect 79 1 93 0;
#X connect 80 0 17 0;
#X connect 81 0 82 0;
#X connect 82 0 79 0;
#X connect 83 0 60 0;
#X connect 84 0 62 0;
#X connect 85 0 64 0;
#X connect 86 0 66 0;
#X connect 87 0 68 0;
#X connect 88 0 70 0;
#X connect 89 0 72 0;
#X connect 90 0 74 0;
#X connect 91 0 76 0;
#X connect 92 0 81 0;
#X connect 93 0 80 0;
#X connect 94 0 26 0;
