#N canvas 140 23 1049 709 12;
#X obj 32 648 zmq;
#X msg 57 141 socket publish;
#X obj 32 676 print PUB;
#N canvas 267 23 1013 685 init 0;
#X obj 52 29 loadbang;
#X obj 53 80 metro 1000;
#X msg 52 53 1;
#X msg 201 42 0;
#X obj 55 377 ether;
#X msg 55 318 wlan0;
#X obj 56 403 list trim;
#X obj 54 148 ipinfo;
#X msg 54 120 wlan0;
#X msg 113 118 en0;
#X obj 55 275 delay 500;
#X obj 55 601 s wifi_ready;
#X obj 168 233 s my_ip;
#X obj 101 205 unpack s s;
#X obj 55 179 t b b l;
#X obj 178 409 print ether;
#X obj 179 181 print IP;
#X obj 1038 180 t b;
#X msg 1038 205 p5;
#X obj 56 543 t b a, f 7;
#X text 452 485 link01: http://192.168.0.137/ 28:87:BA:49:76:FC;
#X text 452 506 link02: http://192.168.0.112/ 28:87:BA:49:74:FA;
#X obj 53 475 t b;
#X obj 116 475 t b;
#X obj 180 475 t b;
#X obj 154 601 s my_id;
#X obj 217 602 print ID;
#X text 452 550 link04: http://192.168.0.105/ 28:87:BA:49:81:D7;
#X text 453 529 link03: http://192.168.0.108/ 28:87:BA:49:6B:E6;
#X obj 53 444 route 28:87:BA:49:76:FC 28:87:BA:49:74:FA 28:87:BA:49:6B:E6 28:87:BA:49:81:D7, f 81;
#X obj 248 477 t b;
#X obj 323 475 t b;
#X msg 323 500 other;
#X msg 53 500 pm1;
#X msg 116 500 pm2;
#X msg 180 500 pm3;
#X msg 248 502 pm4;
#X connect 0 0 2 0;
#X connect 1 0 8 0;
#X connect 2 0 1 0;
#X connect 3 0 1 0;
#X connect 4 0 6 0;
#X connect 4 0 15 0;
#X connect 5 0 4 0;
#X connect 6 0 29 0;
#X connect 7 0 14 0;
#X connect 7 0 16 0;
#X connect 8 0 7 0;
#X connect 9 0 7 0;
#X connect 10 0 5 0;
#X connect 13 1 12 0;
#X connect 14 0 10 0;
#X connect 14 1 3 0;
#X connect 14 2 13 0;
#X connect 17 0 18 0;
#X connect 19 0 11 0;
#X connect 19 1 25 0;
#X connect 19 1 26 0;
#X connect 22 0 33 0;
#X connect 23 0 34 0;
#X connect 24 0 35 0;
#X connect 29 0 22 0;
#X connect 29 1 23 0;
#X connect 29 2 24 0;
#X connect 29 3 30 0;
#X connect 29 4 31 0;
#X connect 30 0 36 0;
#X connect 31 0 32 0;
#X connect 32 0 19 0;
#X connect 33 0 19 0;
#X connect 34 0 19 0;
#X connect 35 0 19 0;
#X connect 36 0 19 0;
#X restore 31 25 pd init;
#X obj 25 87 r wifi_ready;
#X obj 35 189 print connect message;
#X msg 424 120 subscribe control;
#X msg 476 75 socket subscribe;
#X obj 427 51 t b b b;
#X obj 423 143 zmq;
#X obj 427 26 r wifi_ready;
#X obj 26 117 t b b;
#X obj 354 334 snapshot~;
#X obj 421 334 snapshot~;
#X obj 72 235 adc~ 3 4 5 6 7 8 9 10, f 71;
#X obj 72 334 snapshot~;
#X obj 143 334 snapshot~;
#X obj 215 334 snapshot~;
#X obj 285 334 snapshot~;
#X obj 67 589 list trim;
#X obj 67 565 list prepend send;
#X obj 709 246 r wifi_ready;
#X msg 146 55 connect tcp://192.168.0.10:5556;
#X msg 627 38 connect tcp://192.168.0.10:5555;
#X obj 70 399 pack 0 1 0 0 0 1;
#X msg 25 165 connect tcp://192.168.0.10:5556;
#X msg 451 98 connect tcp://192.168.0.10:5555;
#X obj 710 292 metro 40;
#X obj 710 268 t b;
#X text 181 17 bela_sensor_clib_ml;
#N canvas 273 23 1007 692 threshold 0;
#X obj 32 56 get_threshold;
#X obj 85 -3 inlet;
#X obj 672 238 textfile;
#X obj 671 152 list trim;
#X obj 672 130 list prepend set;
#X obj 138 57 get_threshold;
#X obj 247 58 get_threshold;
#X obj 349 58 get_threshold;
#X obj 459 58 get_threshold;
#X obj 567 59 get_threshold;
#X text 955 155 max list;
#X obj 884 240 textfile;
#X obj 883 156 list trim;
#X obj 907 131 list prepend set;
#X obj 824 24 change;
#X obj 824 47 sel 0;
#X obj 824 71 t b b;
#X obj 681 371 textfile;
#X msg 681 352 bang;
#X msg 705 351 rewind;
#X obj 681 286 t b b b;
#X obj 888 387 textfile;
#X msg 889 365 bang;
#X msg 912 365 rewind;
#X obj 889 290 t b b b;
#X text 745 154 min list;
#X obj 672 102 list;
#X obj 883 104 list;
#X obj 42 581 clip 0 1;
#X obj 159 581 clip 0 1;
#X obj 271 577 clip 0 1;
#X obj 384 583 clip 0 1;
#X obj 497 580 clip 0 1;
#X obj 611 581 clip 0 1;
#X obj 42 606 outlet;
#X obj 676 4 inlet;
#X obj 41 425 scale 0 1 0 100;
#X obj 155 426 scale 0 1 0 100;
#X obj 268 426 scale 0 1 0 100;
#X obj 382 427 scale 0 1 0 100;
#X obj 495 425 scale 0 1 0 100;
#X obj 607 425 scale 0 1 0 100;
#X obj 42 536 int;
#X obj 42 558 / 100;
#X obj 158 536 int;
#X obj 158 558 / 100;
#X obj 270 536 int;
#X obj 271 555 / 100;
#X obj 384 536 int;
#X obj 384 559 / 100;
#X obj 497 534 int;
#X obj 497 557 / 100;
#X obj 609 535 int;
#X obj 611 557 / 100;
#X obj 676 40 t a a a a a a a a;
#X obj 671 393 unpack 0 0 0 0 0 0 0 0;
#X obj 881 406 unpack 0 0 0 0 0 0 0 0;
#X obj 887 267 loadbang;
#X obj 171 -1 inlet;
#X obj 254 0 inlet;
#X obj 347 -2 inlet;
#X obj 431 -1 inlet;
#X obj 517 1 inlet;
#X obj 157 605 outlet;
#X obj 268 610 outlet;
#X obj 381 613 outlet;
#X obj 498 614 outlet;
#X obj 611 617 outlet;
#X msg 728 471 /root/Bela/projects/bela_sensor_ml/;
#X msg 892 177 write /root/Bela/projects/bela_sensor_ml/sensormax.txt cr, f 19;
#X msg 683 174 write /root/Bela/projects/bela_sensor_ml/sensormin.txt cr, f 24;
#X msg 738 286 read /root/Bela/projects/bela_sensor_ml/sensormin.txt cr, f 18;
#N canvas 68 97 450 300 extra_max 0;
#X obj 60 26 inlet;
#X obj 60 51 unpack 0 0 0 0 0 0 0 0, f 32;
#X obj 60 108 clip 0 1;
#X obj 87 155 clip 0 1;
#X obj 124 107 clip 0 1;
#X obj 151 154 clip 0 1;
#X obj 188 107 clip 0 1;
#X obj 215 154 clip 0 1;
#X obj 252 106 clip 0 1;
#X obj 279 153 clip 0 1;
#X obj 61 181 pack 0 0 0 0 0 0 0 0, f 31;
#X obj 62 231 outlet;
#X obj 60 84 + 0.01;
#X obj 124 83 + 0.01;
#X obj 188 83 + 0.01;
#X obj 252 82 + 0.01;
#X obj 87 131 + 0.01;
#X obj 151 130 + 0.01;
#X obj 215 130 + 0.01;
#X obj 279 129 + 0.01;
#X connect 0 0 1 0;
#X connect 1 0 12 0;
#X connect 1 1 16 0;
#X connect 1 2 13 0;
#X connect 1 3 17 0;
#X connect 1 4 14 0;
#X connect 1 5 18 0;
#X connect 1 6 15 0;
#X connect 1 7 19 0;
#X connect 2 0 10 0;
#X connect 3 0 10 1;
#X connect 4 0 10 2;
#X connect 5 0 10 3;
#X connect 6 0 10 4;
#X connect 7 0 10 5;
#X connect 8 0 10 6;
#X connect 9 0 10 7;
#X connect 10 0 11 0;
#X connect 12 0 2 0;
#X connect 13 0 4 0;
#X connect 14 0 6 0;
#X connect 15 0 8 0;
#X connect 16 0 3 0;
#X connect 17 0 5 0;
#X connect 18 0 7 0;
#X connect 19 0 9 0;
#X restore 928 106 pd extra_max;
#N canvas 68 97 450 300 extra_min 0;
#X obj 60 26 inlet;
#X obj 60 51 unpack 0 0 0 0 0 0 0 0, f 32;
#X obj 60 108 clip 0 1;
#X obj 87 155 clip 0 1;
#X obj 124 107 clip 0 1;
#X obj 151 154 clip 0 1;
#X obj 188 107 clip 0 1;
#X obj 215 154 clip 0 1;
#X obj 252 106 clip 0 1;
#X obj 279 153 clip 0 1;
#X obj 61 181 pack 0 0 0 0 0 0 0 0, f 31;
#X obj 62 231 outlet;
#X obj 60 84 - 0.01;
#X obj 124 83 - 0.01;
#X obj 188 83 - 0.01;
#X obj 252 82 - 0.01;
#X obj 87 131 - 0.01;
#X obj 151 130 - 0.01;
#X obj 215 130 - 0.01;
#X obj 279 129 - 0.01;
#X connect 0 0 1 0;
#X connect 1 0 12 0;
#X connect 1 1 16 0;
#X connect 1 2 13 0;
#X connect 1 3 17 0;
#X connect 1 4 14 0;
#X connect 1 5 18 0;
#X connect 1 6 15 0;
#X connect 1 7 19 0;
#X connect 2 0 10 0;
#X connect 3 0 10 1;
#X connect 4 0 10 2;
#X connect 5 0 10 3;
#X connect 6 0 10 4;
#X connect 7 0 10 5;
#X connect 8 0 10 6;
#X connect 9 0 10 7;
#X connect 10 0 11 0;
#X connect 12 0 2 0;
#X connect 13 0 4 0;
#X connect 14 0 6 0;
#X connect 15 0 8 0;
#X connect 16 0 3 0;
#X connect 17 0 5 0;
#X connect 18 0 7 0;
#X connect 19 0 9 0;
#X restore 714 102 pd extra_min;
#X msg 947 290 read /root/Bela/projects/bela_sensor_ml/sensormax.txt cr, f 20;
#X obj 670 75 pak 0 0 0 0 0 0 0 0;
#X obj 907 74 pak 0 0 0 0 0 0 0 0;
#X obj 41 486 line;
#X msg 42 464 \$1 80;
#X obj 155 488 line;
#X msg 156 466 \$1 80;
#X obj 271 490 line;
#X msg 272 468 \$1 80;
#X obj 383 488 line;
#X msg 384 466 \$1 80;
#X obj 497 490 line;
#X msg 498 468 \$1 80;
#X obj 611 488 line;
#X msg 612 466 \$1 80;
#X connect 0 0 36 1;
#X connect 0 0 75 0;
#X connect 0 1 36 2;
#X connect 0 1 76 0;
#X connect 1 0 0 0;
#X connect 1 0 36 0;
#X connect 3 0 2 0;
#X connect 4 0 3 0;
#X connect 5 0 37 1;
#X connect 5 0 75 1;
#X connect 5 1 37 2;
#X connect 5 1 76 1;
#X connect 6 0 38 1;
#X connect 6 0 75 2;
#X connect 6 1 38 2;
#X connect 6 1 76 2;
#X connect 7 0 39 1;
#X connect 7 0 75 3;
#X connect 7 1 39 2;
#X connect 7 1 76 3;
#X connect 8 0 40 1;
#X connect 8 0 75 4;
#X connect 8 1 40 2;
#X connect 8 1 76 4;
#X connect 9 0 41 1;
#X connect 9 0 75 5;
#X connect 9 1 41 2;
#X connect 9 1 76 5;
#X connect 12 0 11 0;
#X connect 13 0 12 0;
#X connect 14 0 15 0;
#X connect 15 0 16 0;
#X connect 16 0 69 0;
#X connect 16 0 70 0;
#X connect 16 1 26 0;
#X connect 16 1 27 0;
#X connect 17 0 55 0;
#X connect 18 0 17 0;
#X connect 19 0 17 0;
#X connect 20 0 18 0;
#X connect 20 1 19 0;
#X connect 20 2 71 0;
#X connect 21 0 56 0;
#X connect 22 0 21 0;
#X connect 23 0 21 0;
#X connect 24 0 22 0;
#X connect 24 1 23 0;
#X connect 24 2 74 0;
#X connect 26 0 73 0;
#X connect 27 0 72 0;
#X connect 28 0 34 0;
#X connect 29 0 63 0;
#X connect 30 0 64 0;
#X connect 31 0 65 0;
#X connect 32 0 66 0;
#X connect 33 0 67 0;
#X connect 35 0 54 0;
#X connect 35 0 14 0;
#X connect 36 0 78 0;
#X connect 37 0 80 0;
#X connect 38 0 82 0;
#X connect 39 0 84 0;
#X connect 40 0 86 0;
#X connect 41 0 88 0;
#X connect 42 0 43 0;
#X connect 43 0 28 0;
#X connect 44 0 45 0;
#X connect 45 0 29 0;
#X connect 46 0 47 0;
#X connect 47 0 30 0;
#X connect 48 0 49 0;
#X connect 49 0 31 0;
#X connect 50 0 51 0;
#X connect 51 0 32 0;
#X connect 52 0 53 0;
#X connect 53 0 33 0;
#X connect 54 0 0 1;
#X connect 54 1 5 1;
#X connect 54 2 6 1;
#X connect 54 3 7 1;
#X connect 54 4 8 1;
#X connect 54 5 9 1;
#X connect 55 0 36 1;
#X connect 55 1 37 1;
#X connect 55 2 38 1;
#X connect 55 3 39 1;
#X connect 55 4 40 1;
#X connect 55 5 41 1;
#X connect 56 0 36 2;
#X connect 56 1 37 2;
#X connect 56 2 38 2;
#X connect 56 3 39 2;
#X connect 56 4 40 2;
#X connect 56 5 41 2;
#X connect 57 0 24 0;
#X connect 57 0 20 0;
#X connect 58 0 5 0;
#X connect 58 0 37 0;
#X connect 59 0 6 0;
#X connect 59 0 38 0;
#X connect 60 0 7 0;
#X connect 60 0 39 0;
#X connect 61 0 8 0;
#X connect 61 0 40 0;
#X connect 62 0 9 0;
#X connect 62 0 41 0;
#X connect 69 0 11 0;
#X connect 70 0 2 0;
#X connect 71 0 17 0;
#X connect 72 0 13 0;
#X connect 72 0 56 0;
#X connect 73 0 4 0;
#X connect 73 0 55 0;
#X connect 74 0 21 0;
#X connect 75 0 26 1;
#X connect 76 0 27 1;
#X connect 77 0 42 0;
#X connect 78 0 77 0;
#X connect 79 0 44 0;
#X connect 80 0 79 0;
#X connect 81 0 46 0;
#X connect 82 0 81 0;
#X connect 83 0 48 0;
#X connect 84 0 83 0;
#X connect 85 0 50 0;
#X connect 86 0 85 0;
#X connect 87 0 52 0;
#X connect 88 0 87 0;
#X restore 71 364 pd threshold;
#X f 39;
#X obj 359 369 tgl 15 0 empty empty empty 17 7 0 10 #fcfcfc #000000 #000000 0 1;
#X obj 423 167 route control;
#X obj 492 334 snapshot~;
#X obj 567 334 snapshot~;
#X text 375 370 calib;
#N canvas 233 86 1007 692 face_thres 0;
#X obj 27 56 get_threshold;
#X obj 85 -3 inlet;
#X obj 317 236 textfile;
#X obj 316 150 list trim;
#X obj 316 126 list prepend set;
#X obj 138 57 get_threshold;
#X text 600 153 max list;
#X obj 529 238 textfile;
#X obj 528 154 list trim;
#X obj 528 129 list prepend set;
#X obj 476 46 change;
#X obj 476 69 sel 0;
#X obj 476 93 t b b;
#X obj 522 382 textfile;
#X msg 523 360 bang;
#X msg 569 363 clear;
#X msg 546 338 rewind;
#X obj 521 290 t b b b;
#X obj 312 378 textfile;
#X msg 313 356 bang;
#X msg 359 359 clear;
#X msg 336 334 rewind;
#X obj 312 293 t b b b;
#X text 390 152 min list;
#X obj 317 100 list;
#X obj 528 102 list;
#X obj 40 494 clip 0 1;
#X obj 157 494 clip 0 1;
#X obj 43 535 outlet;
#X obj 321 2 inlet;
#X obj 41 425 scale 0 1 0 100;
#X obj 155 426 scale 0 1 0 100;
#X obj 40 449 int;
#X obj 40 471 / 100;
#X obj 156 449 int;
#X obj 156 471 / 100;
#X obj 321 38 t a a a a a a a a;
#X obj 317 76 pack 0 0 0 0 0 0 0 0;
#X obj 521 403 unpack 0 0 0 0 0 0 0 0;
#X obj 311 402 unpack 0 0 0 0 0 0 0 0;
#X obj 310 270 loadbang;
#X obj 526 75 pack 0 0 0 0 0 0 0 0;
#X obj 171 -1 inlet;
#X obj 158 534 outlet;
#X msg 728 471 /root/Bela/projects/bela_sensor_ml/;
#N canvas 68 97 450 300 extra_max 0;
#X obj 60 26 inlet;
#X obj 60 51 unpack 0 0 0 0 0 0 0 0, f 32;
#X obj 60 84 + 0.1;
#X obj 87 131 + 0.1;
#X obj 60 108 clip 0 1;
#X obj 87 155 clip 0 1;
#X obj 124 83 + 0.1;
#X obj 151 130 + 0.1;
#X obj 124 107 clip 0 1;
#X obj 151 154 clip 0 1;
#X obj 188 83 + 0.1;
#X obj 215 130 + 0.1;
#X obj 188 107 clip 0 1;
#X obj 215 154 clip 0 1;
#X obj 252 82 + 0.1;
#X obj 279 129 + 0.1;
#X obj 252 106 clip 0 1;
#X obj 279 153 clip 0 1;
#X obj 61 181 pack 0 0 0 0 0 0 0 0, f 31;
#X obj 62 231 outlet;
#X connect 0 0 1 0;
#X connect 1 0 2 0;
#X connect 1 1 3 0;
#X connect 1 2 6 0;
#X connect 1 3 7 0;
#X connect 1 4 10 0;
#X connect 1 5 11 0;
#X connect 1 6 14 0;
#X connect 1 7 15 0;
#X connect 2 0 4 0;
#X connect 3 0 5 0;
#X connect 4 0 18 0;
#X connect 5 0 18 1;
#X connect 6 0 8 0;
#X connect 7 0 9 0;
#X connect 8 0 18 2;
#X connect 9 0 18 3;
#X connect 10 0 12 0;
#X connect 11 0 13 0;
#X connect 12 0 18 4;
#X connect 13 0 18 5;
#X connect 14 0 16 0;
#X connect 15 0 17 0;
#X connect 16 0 18 6;
#X connect 17 0 18 7;
#X connect 18 0 19 0;
#X restore 564 101 pd extra_max;
#N canvas 68 97 450 300 extra_min 0;
#X obj 60 26 inlet;
#X obj 60 51 unpack 0 0 0 0 0 0 0 0, f 32;
#X obj 60 108 clip 0 1;
#X obj 87 155 clip 0 1;
#X obj 124 107 clip 0 1;
#X obj 151 154 clip 0 1;
#X obj 188 107 clip 0 1;
#X obj 215 154 clip 0 1;
#X obj 252 106 clip 0 1;
#X obj 279 153 clip 0 1;
#X obj 61 181 pack 0 0 0 0 0 0 0 0, f 31;
#X obj 62 231 outlet;
#X obj 60 84 - 0.1;
#X obj 124 83 - 0.1;
#X obj 188 83 - 0.1;
#X obj 252 82 - 0.1;
#X obj 87 131 - 0.1;
#X obj 151 130 - 0.1;
#X obj 215 130 - 0.1;
#X obj 279 129 - 0.1;
#X connect 0 0 1 0;
#X connect 1 0 12 0;
#X connect 1 1 16 0;
#X connect 1 2 13 0;
#X connect 1 3 17 0;
#X connect 1 4 14 0;
#X connect 1 5 18 0;
#X connect 1 6 15 0;
#X connect 1 7 19 0;
#X connect 2 0 10 0;
#X connect 3 0 10 1;
#X connect 4 0 10 2;
#X connect 5 0 10 3;
#X connect 6 0 10 4;
#X connect 7 0 10 5;
#X connect 8 0 10 6;
#X connect 9 0 10 7;
#X connect 10 0 11 0;
#X connect 12 0 2 0;
#X connect 13 0 4 0;
#X connect 14 0 6 0;
#X connect 15 0 8 0;
#X connect 16 0 3 0;
#X connect 17 0 5 0;
#X connect 18 0 7 0;
#X connect 19 0 9 0;
#X restore 354 101 pd extra_min;
#X msg 322 172 write /root/Bela/projects/bela_sensor_ml/facemin.txt cr, f 24;
#X msg 537 175 write /root/Bela/projects/bela_sensor_ml/facemax.txt cr, f 19;
#X msg 374 269 read /root/Bela/projects/bela_sensor_ml/facemax.txt cr, f 20;
#X msg 578 271 read /root/Bela/projects/bela_sensor_ml/facemin.txt cr, f 18;
#X connect 0 0 30 1;
#X connect 0 0 41 0;
#X connect 0 0 37 0;
#X connect 0 1 30 2;
#X connect 1 0 0 0;
#X connect 1 0 30 0;
#X connect 3 0 2 0;
#X connect 4 0 3 0;
#X connect 5 0 31 1;
#X connect 5 0 37 1;
#X connect 5 1 31 2;
#X connect 5 1 41 1;
#X connect 8 0 7 0;
#X connect 9 0 8 0;
#X connect 10 0 11 0;
#X connect 11 0 12 0;
#X connect 12 0 48 0;
#X connect 12 0 47 0;
#X connect 12 1 24 0;
#X connect 12 1 25 0;
#X connect 13 0 38 0;
#X connect 14 0 13 0;
#X connect 15 0 13 0;
#X connect 16 0 13 0;
#X connect 17 0 14 0;
#X connect 17 1 16 0;
#X connect 17 2 50 0;
#X connect 18 0 39 0;
#X connect 19 0 18 0;
#X connect 20 0 18 0;
#X connect 21 0 18 0;
#X connect 22 0 19 0;
#X connect 22 1 21 0;
#X connect 22 2 49 0;
#X connect 24 0 46 0;
#X connect 25 0 45 0;
#X connect 26 0 28 0;
#X connect 27 0 43 0;
#X connect 29 0 36 0;
#X connect 29 0 10 0;
#X connect 30 0 32 0;
#X connect 31 0 34 0;
#X connect 32 0 33 0;
#X connect 33 0 26 0;
#X connect 34 0 35 0;
#X connect 35 0 27 0;
#X connect 36 0 0 1;
#X connect 36 1 5 1;
#X connect 37 0 24 1;
#X connect 38 0 30 1;
#X connect 38 1 31 1;
#X connect 39 0 30 2;
#X connect 39 1 31 2;
#X connect 40 0 22 0;
#X connect 40 0 17 0;
#X connect 41 0 25 1;
#X connect 42 0 5 0;
#X connect 42 0 31 0;
#X connect 45 0 9 0;
#X connect 45 0 39 0;
#X connect 46 0 38 0;
#X connect 46 0 4 0;
#X connect 47 0 2 0;
#X connect 48 0 7 0;
#X connect 49 0 18 0;
#X connect 50 0 13 0;
#X restore 748 420 pd face_thres;
#X f 14;
#X obj 851 402 tgl 15 0 empty empty empty 17 7 0 10 #fcfcfc #000000 #000000 0 1;
#X text 871 401 calib;
#X obj 749 591 list trim;
#X obj 749 567 list prepend send;
#X obj 749 543 list prepend sensors;
#X obj 749 519 list prepend;
#X obj 830 492 r my_id;
#X obj 480 588 list trim;
#X obj 480 564 list prepend send;
#X obj 480 515 list prepend;
#X obj 561 488 r my_id;
#X obj 67 541 list prepend drummer;
#X obj 69 467 spigot;
#X obj 158 445 r my_id;
#X msg 124 468 1;
#X obj 480 540 list prepend ml;
#N canvas 99 127 1166 651 machineLearning 0;
#X msg 498 174 mode 1;
#X msg 763 351 train;
#X obj 233 344 list trim;
#X obj 11 316 list prepend add;
#X obj 11 342 list trim;
#X obj 233 322 list prepend map;
#X obj 390 379 ml.ann;
#X obj 11 287 list prepend;
#X obj 93 220 loadbang;
#X msg 711 351 clear;
#X obj 398 112 t b b b b b b;
#X msg 498 267 hidden_activation_function 1;
#X msg 497 292 training_rate 0.2;
#X msg 497 197 scaling 1;
#X text 341 12 mode switch;
#X obj 388 589 outlet;
#X msg 498 243 num_hidden 3;
#X obj 11 261 spigot;
#X obj 12 179 spigot;
#X obj 225 58 sel 1;
#X obj 293 60 sel 0;
#X msg 225 84 1;
#X msg 259 84 0;
#X msg 294 84 1;
#X msg 328 84 0;
#X obj 233 246 spigot;
#X obj 233 297 spigot;
#X obj 400 86 loadbang;
#X obj 50 243 tgl 15 0 empty empty empty 17 7 0 10 #fcfcfc #000000 #000000 0 1;
#X obj 432 418 route train;
#X obj 271 278 tgl 15 0 empty empty empty 17 7 0 10 #fcfcfc #000000 #000000 0 1;
#X obj 11 18 inlet sensor;
#X obj 258 14 inlet mode;
#X text 38 38 sensor data as a list;
#X obj 456 16 inlet doTrain;
#X text 340 30 1: training;
#X text 341 45 0: map;
#X text 448 39 letting the trainingdata;
#X obj 661 18 inlet targetData;
#X text 672 40 target data for training;
#X obj 908 20 inlet annMessage;
#X text 606 219 number of output needs to be defined;
#X text 91 171 make sure to give a list that matches number of output;
#X obj 51 156 tgl 15 0 empty empty empty 17 7 0 10 #fcfcfc #000000 #000000 0 1;
#X obj 272 221 tgl 15 0 empty empty empty 17 7 0 10 #fcfcfc #000000 #000000 0 1;
#X obj 908 67 t b;
#X obj 958 67 t b;
#X obj 552 414 print ann;
#X obj 433 444 sel 1;
#X msg 434 467 1;
#X msg 308 253 0;
#X msg 496 219 num_outputs 1;
#X msg 93 244 0;
#X msg 815 121 read /root/Bela/projects/bela_sensor_ml/training.data;
#X msg 819 93 write /root/Bela/projects/bela_sensor_ml/training;
#X obj 1005 68 t b;
#X obj 909 44 route write read clear train;
#X obj 1053 67 t b;
#X obj 359 418 clip 0 1;
#X obj 357 472 line;
#X msg 357 445 \$1 100;
#X connect 0 0 6 0;
#X connect 1 0 6 0;
#X connect 2 0 6 0;
#X connect 3 0 4 0;
#X connect 4 0 6 0;
#X connect 5 0 2 0;
#X connect 6 0 58 0;
#X connect 6 1 29 0;
#X connect 6 1 47 0;
#X connect 7 0 3 0;
#X connect 8 0 52 0;
#X connect 9 0 6 0;
#X connect 10 0 12 0;
#X connect 10 1 11 0;
#X connect 10 2 16 0;
#X connect 10 3 51 0;
#X connect 10 4 13 0;
#X connect 10 5 0 0;
#X connect 11 0 6 0;
#X connect 12 0 6 0;
#X connect 13 0 6 0;
#X connect 16 0 6 0;
#X connect 17 0 7 0;
#X connect 18 0 17 0;
#X connect 19 0 21 0;
#X connect 19 0 22 0;
#X connect 20 0 23 0;
#X connect 20 0 24 0;
#X connect 21 0 43 0;
#X connect 22 0 44 0;
#X connect 23 0 44 0;
#X connect 24 0 43 0;
#X connect 25 0 26 0;
#X connect 26 0 5 0;
#X connect 27 0 10 0;
#X connect 28 0 17 1;
#X connect 29 0 48 0;
#X connect 30 0 26 1;
#X connect 31 0 25 0;
#X connect 31 0 18 0;
#X connect 32 0 19 0;
#X connect 32 0 20 0;
#X connect 34 0 28 0;
#X connect 38 0 7 1;
#X connect 40 0 56 0;
#X connect 43 0 18 1;
#X connect 44 0 25 1;
#X connect 45 0 54 0;
#X connect 46 0 53 0;
#X connect 48 0 49 0;
#X connect 49 0 30 0;
#X connect 50 0 30 0;
#X connect 51 0 6 0;
#X connect 52 0 7 1;
#X connect 53 0 6 0;
#X connect 54 0 6 0;
#X connect 55 0 50 0;
#X connect 55 0 9 0;
#X connect 56 0 45 0;
#X connect 56 1 46 0;
#X connect 56 2 55 0;
#X connect 56 3 57 0;
#X connect 57 0 1 0;
#X connect 58 0 60 0;
#X connect 59 0 15 0;
#X connect 60 0 59 0;
#X restore 498 465 pd machineLearning;
#X obj 531 209 route calib face_C drummer annMessage ml_mode target doTrain, f 68;
#X obj 480 490 f;
#X obj 68 515 list;
#X obj 709 315 t b b b b b b b b b b b;
#X obj 748 496 list;
#X obj 749 448 pack 0 0;
#X obj 748 474 zl join;
#X obj 533 185 route pm;
#X obj 156 469 route pm2;
#X obj 597 141 r my_id;
#X obj 596 164 symbol;
#X obj 324 189 print SUB;
#X obj 423 209 print MYSUB;
#N canvas 506 110 450 300 smoother 1;
#X obj 57 35 unpack 0 0 0 0 0 0, f 39;
#X obj 57 100 i;
#X obj 58 222 pack 0 0 0 0 0 0, f 39;
#X obj 110 101 i;
#X obj 164 99 i;
#X obj 214 98 i;
#X obj 267 99 i;
#X obj 321 97 i;
#X obj 55 12 inlet;
#X obj 63 270 outlet;
#X obj 57 75 * 50;
#X obj 57 128 / 50;
#X obj 110 76 * 50;
#X obj 111 128 / 50;
#X obj 164 74 * 50;
#X obj 165 126 / 50;
#X obj 214 73 * 50;
#X obj 215 125 / 50;
#X obj 267 74 * 50;
#X obj 268 126 / 50;
#X obj 321 72 * 50;
#X obj 322 124 / 50;
#X connect 0 0 10 0;
#X connect 0 1 12 0;
#X connect 0 2 14 0;
#X connect 0 3 16 0;
#X connect 0 4 18 0;
#X connect 0 5 20 0;
#X connect 1 0 11 0;
#X connect 2 0 9 0;
#X connect 3 0 13 0;
#X connect 4 0 15 0;
#X connect 5 0 17 0;
#X connect 6 0 19 0;
#X connect 7 0 21 0;
#X connect 8 0 0 0;
#X connect 10 0 1 0;
#X connect 11 0 2 0;
#X connect 12 0 3 0;
#X connect 13 0 2 1;
#X connect 14 0 4 0;
#X connect 15 0 2 2;
#X connect 16 0 5 0;
#X connect 17 0 2 3;
#X connect 18 0 6 0;
#X connect 19 0 2 4;
#X connect 20 0 7 0;
#X connect 21 0 2 5;
#X restore 148 503 pd smoother;
#X obj 563 278 average~ 5000;
#X obj 492 302 average~ 5000;
#X obj 420 280 average~ 5000;
#X obj 353 304 average~ 5000;
#X obj 279 282 average~ 5000;
#X obj 213 304 average~ 5000;
#X obj 120 284 average~ 5000;
#X obj 29 305 average~ 5000;
#X obj 50 274 lop~ 10;
#X obj 131 260 lop~ 10;
#X obj 213 270 lop~ 10;
#X obj 281 259 lop~ 10;
#X obj 353 270 lop~ 10;
#X obj 422 258 lop~ 10;
#X obj 493 269 lop~ 10;
#X obj 564 257 lop~ 10;
#X connect 0 0 2 0;
#X connect 1 0 0 0;
#X connect 4 0 11 0;
#X connect 6 0 9 0;
#X connect 7 0 9 0;
#X connect 8 0 6 0;
#X connect 8 1 26 0;
#X connect 8 2 7 0;
#X connect 9 0 32 0;
#X connect 10 0 8 0;
#X connect 11 0 25 0;
#X connect 11 1 1 0;
#X connect 12 0 30 4;
#X connect 13 0 30 5;
#X connect 14 0 76 0;
#X connect 14 1 77 0;
#X connect 14 2 78 0;
#X connect 14 3 79 0;
#X connect 14 4 80 0;
#X connect 14 5 81 0;
#X connect 14 6 82 0;
#X connect 14 7 83 0;
#X connect 15 0 30 0;
#X connect 16 0 30 1;
#X connect 17 0 30 2;
#X connect 18 0 30 3;
#X connect 19 0 0 0;
#X connect 20 0 19 0;
#X connect 21 0 28 0;
#X connect 24 0 49 0;
#X connect 24 0 53 0;
#X connect 24 0 60 0;
#X connect 25 0 0 0;
#X connect 25 0 5 0;
#X connect 26 0 9 0;
#X connect 27 0 57 0;
#X connect 28 0 27 0;
#X connect 30 0 24 0;
#X connect 30 1 24 1;
#X connect 30 2 24 2;
#X connect 30 3 24 3;
#X connect 30 4 24 4;
#X connect 30 5 24 5;
#X connect 31 0 30 6;
#X connect 32 0 61 0;
#X connect 32 0 65 0;
#X connect 33 0 36 0;
#X connect 34 0 36 1;
#X connect 36 0 59 0;
#X connect 36 1 59 1;
#X connect 37 0 36 2;
#X connect 39 0 0 0;
#X connect 40 0 39 0;
#X connect 41 0 40 0;
#X connect 42 0 41 0;
#X connect 43 0 42 1;
#X connect 44 0 0 0;
#X connect 45 0 44 0;
#X connect 46 0 52 0;
#X connect 47 0 46 1;
#X connect 48 0 20 0;
#X connect 49 0 67 0;
#X connect 50 0 62 0;
#X connect 51 0 49 1;
#X connect 52 0 45 0;
#X connect 53 0 55 1;
#X connect 54 0 30 6;
#X connect 54 1 36 2;
#X connect 54 2 49 1;
#X connect 54 3 53 4;
#X connect 54 4 53 1;
#X connect 54 5 53 3;
#X connect 54 6 53 2;
#X connect 55 0 46 0;
#X connect 56 0 48 0;
#X connect 57 0 56 0;
#X connect 57 1 55 0;
#X connect 57 2 58 0;
#X connect 57 3 15 0;
#X connect 57 4 16 0;
#X connect 57 5 17 0;
#X connect 57 6 18 0;
#X connect 57 7 12 0;
#X connect 57 8 13 0;
#X connect 57 9 33 0;
#X connect 57 10 34 0;
#X connect 58 0 42 0;
#X connect 59 0 60 1;
#X connect 60 0 58 1;
#X connect 61 0 54 0;
#X connect 61 0 66 0;
#X connect 62 0 51 0;
#X connect 63 0 64 0;
#X connect 64 0 61 1;
#X connect 67 0 56 1;
#X connect 68 0 34 0;
#X connect 69 0 33 0;
#X connect 70 0 13 0;
#X connect 71 0 12 0;
#X connect 72 0 18 0;
#X connect 73 0 17 0;
#X connect 74 0 16 0;
#X connect 75 0 15 0;
#X connect 76 0 75 0;
#X connect 77 0 74 0;
#X connect 78 0 73 0;
#X connect 79 0 72 0;
#X connect 80 0 71 0;
#X connect 81 0 70 0;
#X connect 82 0 69 0;
#X connect 83 0 68 0;
