#N canvas 392 23 826 799 12;
#X obj 36 610 zmq;
#X msg 149 475 socket publish;
#X obj 89 391 t b b;
#X obj 89 368 bng 15 250 50 0 empty empty empty 17 7 0 10 -262144 -1
-1;
#X obj 34 638 print PUB;
#X obj 263 116 snapshot~;
#X obj 324 162 snapshot~;
#X obj 391 210 snapshot~;
#X obj 448 260 snapshot~;
#X obj 159 39 adc~ 3 4 5 6 7 8 9 10;
#X obj 121 157 snapshot~;
#X obj 195 200 snapshot~;
#X obj 262 233 snapshot~;
#X obj 335 263 snapshot~;
#X obj 121 132 average~ 5000;
#X obj 194 175 average~ 5000;
#X obj 261 208 average~ 5000;
#X obj 336 239 average~ 5000;
#X obj 261 92 average~ 5000;
#X obj 322 139 average~ 5000;
#X obj 389 185 average~ 5000;
#X obj 447 235 average~ 5000;
#X obj 288 478 list trim;
#X obj 31 43 loadbang;
#X obj 31 70 delay 3000;
#X obj 31 123 delay 1000;
#X obj 31 96 t b b;
#X obj 541 156 tgl 15 0 empty empty empty 17 7 0 10 -262144 -1 -1 1
1;
#X obj 539 179 metro 40;
#X obj 288 429 list prepend sensors;
#X obj 288 452 list prepend send;
#X msg 37 523 connect tcp://87.230.25.115:5556;
#X obj 290 402 pack 0 1 0 0 0 1 0 0;
#X obj 566 343 - 1;
#X obj 566 367 abs;
#X obj 533 344 - 1;
#X obj 533 368 abs;
#X obj 500 345 - 1;
#X obj 500 369 abs;
#X obj 469 346 - 1;
#X obj 469 370 abs;
#X obj 438 346 - 1;
#X obj 438 370 abs;
#X obj 407 347 - 1;
#X obj 408 371 abs;
#X obj 376 348 - 1;
#X obj 376 372 abs;
#X obj 345 348 - 1;
#X obj 345 372 abs;
#X msg 67 501 connect tcp://192.168.0.101:5556;
#X obj 481 590 pack 0 0 0 0 0 0 0 0;
#X obj 478 667 list trim;
#X obj 478 641 list prepend send;
#X obj 478 618 list prepend adjusted;
#X obj 405 478 autoscale 0 1;
#X obj 425 503 autoscale 0 1;
#X obj 447 526 autoscale 0 1;
#X obj 467 551 autoscale 0 1;
#X obj 520 474 autoscale 0 1;
#X obj 540 499 autoscale 0 1;
#X obj 562 522 autoscale 0 1;
#X obj 582 547 autoscale 0 1;
#X connect 0 0 4 0;
#X connect 1 0 0 0;
#X connect 2 0 31 0;
#X connect 2 1 1 0;
#X connect 3 0 2 0;
#X connect 5 0 39 0;
#X connect 6 0 37 0;
#X connect 7 0 35 0;
#X connect 8 0 33 0;
#X connect 9 0 14 0;
#X connect 9 1 15 0;
#X connect 9 2 16 0;
#X connect 9 3 17 0;
#X connect 9 4 18 0;
#X connect 9 5 19 0;
#X connect 9 6 20 0;
#X connect 9 7 21 0;
#X connect 10 0 47 0;
#X connect 11 0 45 0;
#X connect 12 0 43 0;
#X connect 13 0 41 0;
#X connect 14 0 10 0;
#X connect 15 0 11 0;
#X connect 16 0 12 0;
#X connect 17 0 13 0;
#X connect 18 0 5 0;
#X connect 19 0 6 0;
#X connect 20 0 7 0;
#X connect 21 0 8 0;
#X connect 22 0 0 0;
#X connect 23 0 24 0;
#X connect 24 0 26 0;
#X connect 25 0 27 0;
#X connect 26 0 25 0;
#X connect 26 1 3 0;
#X connect 27 0 28 0;
#X connect 28 0 10 0;
#X connect 28 0 11 0;
#X connect 28 0 12 0;
#X connect 28 0 13 0;
#X connect 28 0 5 0;
#X connect 28 0 6 0;
#X connect 28 0 7 0;
#X connect 28 0 8 0;
#X connect 29 0 30 0;
#X connect 30 0 22 0;
#X connect 31 0 0 0;
#X connect 32 0 29 0;
#X connect 33 0 34 0;
#X connect 34 0 32 7;
#X connect 34 0 61 0;
#X connect 35 0 36 0;
#X connect 36 0 32 6;
#X connect 36 0 60 0;
#X connect 37 0 38 0;
#X connect 38 0 32 5;
#X connect 38 0 59 0;
#X connect 39 0 40 0;
#X connect 40 0 32 4;
#X connect 40 0 58 0;
#X connect 41 0 42 0;
#X connect 42 0 32 3;
#X connect 42 0 57 0;
#X connect 43 0 44 0;
#X connect 44 0 32 2;
#X connect 44 0 56 0;
#X connect 45 0 46 0;
#X connect 46 0 32 1;
#X connect 46 0 55 0;
#X connect 47 0 48 0;
#X connect 48 0 32 0;
#X connect 48 0 54 0;
#X connect 49 0 0 0;
#X connect 50 0 53 0;
#X connect 51 0 0 0;
#X connect 52 0 51 0;
#X connect 53 0 52 0;
#X connect 54 0 50 0;
#X connect 55 0 50 1;
#X connect 56 0 50 2;
#X connect 57 0 50 3;
#X connect 58 0 50 4;
#X connect 59 0 50 5;
#X connect 60 0 50 6;
#X connect 61 0 50 7;
